<svg xmlns="http://www.w3.org/2000/svg" xmlns:xlink="http://www.w3.org/1999/xlink" width="701" height="365" version="1.1" viewBox="0 0 701 365"><title>Artboard</title><g id="Artboard" fill="none" fill-rule="evenodd" stroke="none" stroke-width="1"><path id="Play" fill="#000" fill-rule="nonzero" d="M359,63.40625 C361.75,63.40625 363.15625,61.96875 363.15625,59.21875 L363.15625,16.65625 C363.15625,13.8125 361.75,12.5 359,12.5 L351.90625,12.5 C349.15625,12.5 347.71875,13.9375 347.71875,16.65625 L347.71875,59.21875 C347.71875,61.96875 349.15625,63.40625 351.90625,63.40625 L359,63.40625 Z M381.71875,63.40625 C384.4375,63.40625 385.875,61.96875 385.875,59.21875 L385.875,16.65625 C385.875,13.8125 384.4375,12.5 381.71875,12.5 L374.59375,12.5 C371.84375,12.5 370.4375,13.9375 370.4375,16.65625 L370.4375,59.21875 C370.4375,61.96875 371.84375,63.40625 374.59375,63.40625 L381.71875,63.40625 Z M301.71875,62.46875 C303,62.46875 304.03125,62.0625 305.3125,61.3125 L337.15625,42.59375 C339.375,41.28125 340.3125,39.71875 340.3125,37.9375 C340.3125,36.125 339.375,34.59375 337.15625,33.28125 L305.3125,14.53125 C304.03125,13.78125 303,13.375 301.71875,13.375 C299.25,13.375 297.21875,15.25 297.21875,18.75 L297.21875,57.125 C297.21875,60.625 299.25,62.46875 301.71875,62.46875 Z"/><path id="Forward" fill="#000" fill-rule="nonzero" d="M598.21875,69.8125 C615.65625,69.8125 630.09375,55.375 630.09375,37.9375 C630.09375,27.4375 624.78125,18 616.75,12.15625 C615.375,11.09375 613.65625,11.4375 612.875,12.71875 C612.09375,14.03125 612.5,15.5 613.78125,16.46875 C620.4375,21.21875 624.75,29.0625 624.78125,37.9375 C624.8125,52.6875 612.96875,64.5 598.21875,64.5 C583.46875,64.5 571.6875,52.6875 571.6875,37.9375 C571.6875,25.28125 580.375,14.75 592.1875,12.0625 L592.1875,16.5625 C592.1875,18.78125 593.71875,19.375 595.4375,18.15625 L605.40625,11.15625 C606.8125,10.1875 606.84375,8.6875 605.40625,7.65625 L595.46875,0.65625 C593.71875,-0.59375 592.1875,0 592.1875,2.25 L592.1875,6.65625 C577.5625,9.5 566.34375,22.5625 566.34375,37.9375 C566.34375,55.375 580.8125,69.8125 598.21875,69.8125 Z"/><path id="Back" fill="#000" fill-rule="nonzero" d="M85.21875,69.8125 C102.65625,69.8125 117.09375,55.375 117.09375,37.9375 C117.09375,22.5625 105.875,9.53125 91.25,6.65625 L91.25,2.21875 C91.25,0 89.71875,-0.59375 88.03125,0.625 L78.0625,7.59375 C76.625,8.59375 76.59375,10.09375 78.0625,11.125 L88,18.125 C89.71875,19.375 91.25,18.78125 91.25,16.53125 L91.25,12.0625 C103.0625,14.75 111.75,25.28125 111.75,37.9375 C111.75,52.6875 99.96875,64.5 85.21875,64.5 C70.46875,64.5 58.625,52.6875 58.65625,37.9375 C58.6875,29.0625 63,21.21875 69.65625,16.46875 C70.9375,15.5 71.34375,14.03125 70.5625,12.71875 C69.78125,11.4375 68.0625,11.09375 66.6875,12.15625 C58.65625,18 53.34375,27.4375 53.34375,37.9375 C53.34375,55.375 67.8125,69.8125 85.21875,69.8125 Z"/><path id="Skip" fill="#000" fill-rule="nonzero" d="M366.4375,302.40625 C369.1875,302.40625 370.59375,300.96875 370.59375,298.21875 L370.59375,255.65625 C370.59375,252.8125 369.1875,251.5 366.4375,251.5 L359.3125,251.5 C356.59375,251.5 355.15625,252.9375 355.15625,255.65625 L355.15625,275.71875 C354.8125,274.4375 353.84375,273.28125 352.15625,272.28125 L320.3125,253.53125 C319.03125,252.78125 318,252.375 316.71875,252.375 C314.25,252.375 312.21875,254.25 312.21875,257.75 L312.21875,296.125 C312.21875,299.625 314.25,301.46875 316.71875,301.46875 C318,301.46875 319.03125,301.0625 320.3125,300.3125 L352.15625,281.59375 C353.84375,280.5625 354.8125,279.4375 355.15625,278.125 L355.15625,298.21875 C355.15625,300.96875 356.59375,302.40625 359.3125,302.40625 L366.4375,302.40625 Z"/><path id="PIP" fill="#000" fill-rule="nonzero" d="M628.90625,309.71875 C635.40625,309.71875 638.6875,306.46875 638.6875,300.03125 L638.6875,279.78125 C638.6875,273.34375 635.40625,270.09375 628.90625,270.09375 L622.90625,270.09375 L622.90625,253.9375 C622.90625,247.5 619.625,244.25 613.125,244.25 L567.53125,244.25 C560.96875,244.25 557.71875,247.5 557.71875,253.9375 L557.71875,285.5625 C557.71875,292 560.96875,295.25 567.53125,295.25 L588.375,295.25 L588.375,300.03125 C588.375,306.46875 591.65625,309.71875 598.1875,309.71875 L628.90625,309.71875 Z M588.375,290.21875 L567.59375,290.21875 C564.46875,290.21875 562.75,288.53125 562.75,285.28125 L562.75,254.21875 C562.75,250.96875 564.46875,249.28125 567.59375,249.28125 L613.03125,249.28125 C616.125,249.28125 617.875,250.96875 617.875,254.21875 L617.875,270.09375 L598.1875,270.09375 C591.65625,270.09375 588.375,273.3125 588.375,279.78125 L588.375,290.21875 Z M585.875,269.5 L584.28125,259.0625 C583.9375,256.875 581.9375,255.9375 580.40625,257.53125 L577.46875,260.46875 L571.03125,254.03125 C570.5625,253.5625 570.09375,253.375 569.5,253.375 C568.28125,253.375 567.375,254.25 567.375,255.375 C567.375,256 567.5625,256.5 568.0625,257 L574.53125,263.4375 L571.5625,266.375 C570.0625,267.90625 571,269.875 573.125,270.21875 L583.53125,271.8125 C584.96875,272.03125 586.0625,270.9375 585.875,269.5 Z"/><path id="Mute" fill="#000" fill-rule="nonzero" d="M100.875,285.78125 L100.875,252.125 C100.875,250.03125 99.34375,248.3125 97.15625,248.3125 C95.625,248.3125 94.59375,248.96875 92.9375,250.53125 L80.09375,262.65625 C79.875,262.84375 79.71875,262.96875 79.5,263.03125 L78.21875,263.09375 L100.875,285.78125 Z M114.34375,307.8125 C115.25,306.84375 115.28125,305.34375 114.34375,304.40625 L60.8125,250.90625 C59.875,249.96875 58.34375,249.96875 57.375,250.90625 C56.46875,251.8125 56.46875,253.40625 57.375,254.3125 L110.9375,307.8125 C111.875,308.75 113.4375,308.75 114.34375,307.8125 Z M97.21875,305.625 C98.65625,305.625 99.78125,304.875 100.34375,303.78125 C100.46875,303.5 100.59375,303.1875 100.6875,302.84375 L63.78125,265.90625 C62.75,267.03125 62.1875,268.75 62.1875,270.96875 L62.1875,283.0625 C62.1875,287.75 64.5625,290.15625 68.96875,290.15625 L78.3125,290.15625 C78.625,290.15625 78.875,290.25 79.09375,290.4375 L92.9375,303.59375 C94.4375,305 95.6875,305.625 97.21875,305.625 Z"/><path id="Skipbackward" fill="#000" fill-rule="nonzero" d="M7.63085938,132.828125 C12.046875,132.828125 14.9179688,130.544922 14.9179688,126.894531 C14.9179688,124.105469 13.2910156,122.464844 9.17578125,121.5625 L6.98828125,121.083984 C4.29492188,120.496094 3.2421875,119.429688 3.2421875,117.871094 C3.2421875,115.861328 5.14257812,114.658203 7.60351562,114.658203 C9.73632812,114.658203 11.3632812,115.533203 12.046875,117.529297 C12.265625,118.158203 12.6484375,118.486328 13.2773438,118.486328 C13.9335938,118.486328 14.3984375,118.048828 14.3984375,117.378906 C14.3984375,117.119141 14.3710938,116.914062 14.3300781,116.763672 C13.6191406,114.097656 10.9667969,112.443359 7.671875,112.443359 C3.58398438,112.443359 0.712890625,114.726562 0.712890625,117.980469 C0.712890625,120.783203 2.421875,122.574219 6.37304688,123.435547 L8.56054688,123.914062 C11.2949219,124.515625 12.3886719,125.609375 12.3886719,127.263672 C12.3886719,129.205078 10.4472656,130.613281 7.76757812,130.613281 C5.27929688,130.613281 3.33789062,129.65625 2.73632812,127.619141 C2.54492188,126.962891 2.16210938,126.648438 1.546875,126.648438 C0.849609375,126.648438 0.412109375,127.140625 0.412109375,127.919922 C0.412109375,128.207031 0.466796875,128.507812 0.548828125,128.78125 C1.28710938,131.160156 3.92578125,132.828125 7.63085938,132.828125 Z M27.4824219,132.746094 C28.0976562,132.746094 28.5761719,132.308594 28.5761719,131.734375 C28.5761719,131.433594 28.5078125,131.214844 28.2753906,130.927734 L22.9296875,124.419922 L27.7695312,119.826172 C28.0566406,119.552734 28.1523438,119.347656 28.1523438,119.019531 C28.1523438,118.486328 27.7011719,118.035156 27.140625,118.035156 C26.7988281,118.035156 26.5664062,118.144531 26.2792969,118.431641 L19.921875,124.597656 L19.921875,113.796875 C19.921875,113.044922 19.4296875,112.525391 18.7324219,112.525391 C18.0351562,112.525391 17.5429688,113.044922 17.5429688,113.796875 L17.5429688,131.474609 C17.5429688,132.226562 18.0351562,132.746094 18.7324219,132.746094 C19.4296875,132.746094 19.921875,132.226562 19.921875,131.474609 L19.921875,127.140625 L21.2480469,125.882812 L26.59375,132.308594 C26.8671875,132.636719 27.1132812,132.746094 27.4824219,132.746094 Z M32.3222656,115.888672 C33.1425781,115.888672 33.8125,115.21875 33.8125,114.412109 C33.8125,113.591797 33.1425781,112.935547 32.3222656,112.935547 C31.515625,112.935547 30.8457031,113.591797 30.8457031,114.412109 C30.8457031,115.21875 31.515625,115.888672 32.3222656,115.888672 Z M32.3222656,132.746094 C33.0195312,132.746094 33.5117188,132.226562 33.5117188,131.474609 L33.5117188,119.306641 C33.5117188,118.554688 33.0195312,118.035156 32.3222656,118.035156 C31.625,118.035156 31.1328125,118.554688 31.1328125,119.306641 L31.1328125,131.474609 C31.1328125,132.226562 31.625,132.746094 32.3222656,132.746094 Z M37.9140625,137.517578 C38.6113281,137.517578 39.1035156,136.998047 39.1035156,136.246094 L39.1035156,130.189453 L39.1582031,130.189453 C40.0058594,131.748047 41.6464844,132.746094 43.6835938,132.746094 C47.265625,132.746094 49.7128906,129.847656 49.7128906,125.390625 C49.7128906,120.933594 47.2519531,118.035156 43.6289062,118.035156 C41.5644531,118.035156 39.9101562,119.087891 39.0351562,120.6875 L38.9804688,120.6875 L38.9804688,119.238281 C38.9804688,118.527344 38.515625,118.035156 37.859375,118.035156 C37.1894531,118.035156 36.7246094,118.527344 36.7246094,119.238281 L36.7246094,136.246094 C36.7246094,136.998047 37.2167969,137.517578 37.9140625,137.517578 Z M43.1640625,130.654297 C40.7304688,130.654297 39.0898438,128.5625 39.0898438,125.390625 C39.0898438,122.232422 40.7304688,120.126953 43.1640625,120.126953 C45.6933594,120.126953 47.2792969,122.177734 47.2792969,125.390625 C47.2792969,128.617188 45.6933594,130.654297 43.1640625,130.654297 Z M64.9296875,132.746094 C68.5664062,132.746094 70.9726562,129.861328 70.9726562,125.390625 C70.9726562,120.933594 68.5527344,118.035156 64.9707031,118.035156 C62.9609375,118.035156 61.3066406,119.033203 60.4042969,120.660156 L60.3496094,120.660156 L60.3496094,113.796875 C60.3496094,113.044922 59.8574219,112.525391 59.1601562,112.525391 C58.4628906,112.525391 57.9707031,113.044922 57.9707031,113.796875 L57.9707031,131.583984 C57.9707031,132.28125 58.4082031,132.746094 59.078125,132.746094 C59.7617188,132.746094 60.2402344,132.267578 60.2402344,131.583984 L60.2402344,130.09375 L60.2949219,130.09375 C61.2246094,131.734375 62.8515625,132.746094 64.9296875,132.746094 Z M64.4648438,130.654297 C62.0585938,130.654297 60.3359375,128.5625 60.3359375,125.390625 C60.3359375,122.232422 62.0585938,120.126953 64.4648438,120.126953 C66.9804688,120.126953 68.5390625,122.164062 68.5390625,125.390625 C68.5390625,128.644531 66.9804688,130.654297 64.4648438,130.654297 Z M83.2773438,132.746094 C83.9335938,132.746094 84.3984375,132.253906 84.3984375,131.542969 L84.3984375,122.669922 C84.3984375,119.839844 82.2929688,118.035156 78.9570312,118.035156 C76.6464844,118.035156 74.5683594,119.060547 73.7617188,120.619141 C73.5703125,120.960938 73.4746094,121.302734 73.4746094,121.603516 C73.4746094,122.246094 73.9121094,122.669922 74.5273438,122.669922 C74.9785156,122.669922 75.2929688,122.492188 75.5117188,122.095703 C76.3046875,120.6875 77.3574219,120.126953 78.9023438,120.126953 C80.8710938,120.126953 82.0195312,121.166016 82.0195312,122.902344 L82.0195312,124.091797 L77.9316406,124.324219 C74.6503906,124.515625 72.7773438,126.046875 72.7773438,128.480469 C72.7773438,131.037109 74.6777344,132.746094 77.5078125,132.746094 C79.421875,132.746094 81.2402344,131.679688 82.0878906,130.052734 L82.1425781,130.052734 L82.1425781,131.542969 C82.1425781,132.253906 82.6074219,132.746094 83.2773438,132.746094 Z M78.0410156,130.722656 C76.3320312,130.722656 75.1972656,129.833984 75.1972656,128.480469 C75.1972656,127.140625 76.2910156,126.292969 78.2050781,126.169922 L82.0195312,125.9375 L82.0195312,127.099609 C82.0195312,129.150391 80.2832031,130.722656 78.0410156,130.722656 Z M93.2851562,132.746094 C95.8691406,132.746094 98.125,131.324219 98.8085938,129.355469 C98.8769531,129.136719 98.9179688,128.931641 98.9179688,128.753906 C98.9179688,128.138672 98.5078125,127.714844 97.8925781,127.714844 C97.3730469,127.714844 97.1132812,127.90625 96.7714844,128.548828 C96.0332031,129.916016 94.9941406,130.654297 93.2851562,130.654297 C90.8378906,130.654297 89.1425781,128.658203 89.1425781,125.390625 C89.1425781,122.205078 90.8105469,120.126953 93.2851562,120.126953 C94.9257812,120.126953 96.0058594,120.824219 96.7578125,122.232422 C97.0859375,122.847656 97.3730469,123.066406 97.8925781,123.066406 C98.5078125,123.066406 98.9042969,122.65625 98.9042969,122.027344 C98.9042969,121.876953 98.8769531,121.699219 98.8222656,121.521484 C98.2753906,119.552734 95.9375,118.035156 93.2578125,118.035156 C89.3203125,118.035156 86.7226562,120.947266 86.7226562,125.417969 C86.7226562,129.916016 89.3476562,132.746094 93.2851562,132.746094 Z M111.509766,132.746094 C112.125,132.746094 112.603516,132.308594 112.603516,131.734375 C112.603516,131.433594 112.535156,131.214844 112.302734,130.927734 L106.957031,124.419922 L111.796875,119.826172 C112.083984,119.552734 112.179688,119.347656 112.179688,119.019531 C112.179688,118.486328 111.728516,118.035156 111.167969,118.035156 C110.826172,118.035156 110.59375,118.144531 110.306641,118.431641 L103.949219,124.597656 L103.949219,113.796875 C103.949219,113.044922 103.457031,112.525391 102.759766,112.525391 C102.0625,112.525391 101.570312,113.044922 101.570312,113.796875 L101.570312,131.474609 C101.570312,132.226562 102.0625,132.746094 102.759766,132.746094 C103.457031,132.746094 103.949219,132.226562 103.949219,131.474609 L103.949219,127.140625 L105.275391,125.882812 L110.621094,132.308594 C110.894531,132.636719 111.140625,132.746094 111.509766,132.746094 Z M127.957031,132.746094 C128.695312,132.746094 129.1875,132.363281 129.40625,131.597656 L132.878906,119.675781 C132.947266,119.443359 132.974609,119.238281 132.974609,119.060547 C132.974609,118.431641 132.523438,118.035156 131.8125,118.035156 C131.224609,118.035156 130.910156,118.308594 130.732422,119.005859 L127.929688,129.847656 L127.875,129.847656 L124.867188,119.087891 C124.675781,118.390625 124.224609,118.035156 123.513672,118.035156 C122.789062,118.035156 122.310547,118.404297 122.119141,119.101562 L119.138672,129.847656 L119.083984,129.847656 L116.28125,119.005859 C116.103516,118.308594 115.789062,118.035156 115.201172,118.035156 C114.490234,118.035156 114.039062,118.431641 114.039062,119.060547 C114.039062,119.238281 114.066406,119.443359 114.134766,119.675781 L117.607422,131.597656 C117.839844,132.390625 118.291016,132.746094 119.042969,132.746094 C119.794922,132.746094 120.314453,132.349609 120.533203,131.597656 L123.472656,121.494141 L123.527344,121.494141 L126.480469,131.597656 C126.712891,132.404297 127.164062,132.746094 127.957031,132.746094 Z M144.705078,132.746094 C145.361328,132.746094 145.826172,132.253906 145.826172,131.542969 L145.826172,122.669922 C145.826172,119.839844 143.720703,118.035156 140.384766,118.035156 C138.074219,118.035156 135.996094,119.060547 135.189453,120.619141 C134.998047,120.960938 134.902344,121.302734 134.902344,121.603516 C134.902344,122.246094 135.339844,122.669922 135.955078,122.669922 C136.40625,122.669922 136.720703,122.492188 136.939453,122.095703 C137.732422,120.6875 138.785156,120.126953 140.330078,120.126953 C142.298828,120.126953 143.447266,121.166016 143.447266,122.902344 L143.447266,124.091797 L139.359375,124.324219 C136.078125,124.515625 134.205078,126.046875 134.205078,128.480469 C134.205078,131.037109 136.105469,132.746094 138.935547,132.746094 C140.849609,132.746094 142.667969,131.679688 143.515625,130.052734 L143.570312,130.052734 L143.570312,131.542969 C143.570312,132.253906 144.035156,132.746094 144.705078,132.746094 Z M139.46875,130.722656 C137.759766,130.722656 136.625,129.833984 136.625,128.480469 C136.625,127.140625 137.71875,126.292969 139.632812,126.169922 L143.447266,125.9375 L143.447266,127.099609 C143.447266,129.150391 141.710938,130.722656 139.46875,130.722656 Z M150.037109,132.746094 C150.734375,132.746094 151.226562,132.226562 151.226562,131.474609 L151.226562,123.667969 C151.226562,121.849609 152.142578,120.304688 154.289062,120.304688 C154.808594,120.304688 155.177734,120.208984 155.423828,120.003906 C155.669922,119.8125 155.792969,119.539062 155.792969,119.169922 C155.792969,118.841797 155.697266,118.568359 155.492188,118.376953 C155.259766,118.158203 154.890625,118.035156 154.371094,118.035156 C152.949219,118.035156 151.554688,119.128906 151.144531,120.605469 L151.089844,120.605469 L151.089844,119.238281 C151.089844,118.527344 150.625,118.035156 149.96875,118.035156 C149.3125,118.035156 148.847656,118.527344 148.847656,119.238281 L148.847656,131.474609 C148.847656,132.226562 149.339844,132.746094 150.037109,132.746094 Z M167.919922,132.746094 C168.603516,132.746094 169.082031,132.267578 169.082031,131.583984 L169.082031,113.796875 C169.082031,113.044922 168.589844,112.525391 167.892578,112.525391 C167.195312,112.525391 166.703125,113.044922 166.703125,113.796875 L166.703125,120.591797 L166.648438,120.591797 C165.800781,119.033203 164.160156,118.035156 162.123047,118.035156 C158.541016,118.035156 156.09375,120.933594 156.09375,125.390625 C156.09375,129.847656 158.554688,132.746094 162.177734,132.746094 C164.40625,132.746094 165.882812,131.652344 166.662109,129.957031 L166.703125,129.957031 L166.703125,131.583984 C166.703125,132.28125 167.25,132.746094 167.919922,132.746094 Z M162.628906,130.654297 C160.113281,130.654297 158.527344,128.617188 158.527344,125.390625 C158.527344,122.177734 160.113281,120.126953 162.628906,120.126953 C165.076172,120.126953 166.716797,122.21875 166.716797,125.390625 C166.716797,128.576172 165.076172,130.654297 162.628906,130.654297 Z"/><path id="Play/pause" fill="#000" fill-rule="nonzero" d="M280.394531,132.691406 C281.146484,132.691406 281.625,132.199219 281.625,131.419922 L281.625,125.458984 L286.177734,125.458984 C289.882812,125.458984 292.521484,122.847656 292.521484,119.101562 C292.521484,115.369141 289.910156,112.771484 286.205078,112.771484 L280.394531,112.771484 C279.642578,112.771484 279.164062,113.263672 279.164062,114.042969 L279.164062,131.419922 C279.164062,132.199219 279.642578,132.691406 280.394531,132.691406 Z M285.5625,123.271484 L281.625,123.271484 L281.625,114.958984 L285.5625,114.958984 C288.392578,114.958984 289.992188,116.490234 289.992188,119.101562 C289.992188,121.726562 288.378906,123.271484 285.5625,123.271484 Z M296.28125,132.746094 C296.978516,132.746094 297.470703,132.226562 297.470703,131.474609 L297.470703,113.796875 C297.470703,113.044922 296.978516,112.525391 296.28125,112.525391 C295.583984,112.525391 295.091797,113.044922 295.091797,113.796875 L295.091797,131.474609 C295.091797,132.226562 295.583984,132.746094 296.28125,132.746094 Z M310.595703,132.746094 C311.251953,132.746094 311.716797,132.253906 311.716797,131.542969 L311.716797,122.669922 C311.716797,119.839844 309.611328,118.035156 306.275391,118.035156 C303.964844,118.035156 301.886719,119.060547 301.080078,120.619141 C300.888672,120.960938 300.792969,121.302734 300.792969,121.603516 C300.792969,122.246094 301.230469,122.669922 301.845703,122.669922 C302.296875,122.669922 302.611328,122.492188 302.830078,122.095703 C303.623047,120.6875 304.675781,120.126953 306.220703,120.126953 C308.189453,120.126953 309.337891,121.166016 309.337891,122.902344 L309.337891,124.091797 L305.25,124.324219 C301.96875,124.515625 300.095703,126.046875 300.095703,128.480469 C300.095703,131.037109 301.996094,132.746094 304.826172,132.746094 C306.740234,132.746094 308.558594,131.679688 309.40625,130.052734 L309.460938,130.052734 L309.460938,131.542969 C309.460938,132.253906 309.925781,132.746094 310.595703,132.746094 Z M305.359375,130.722656 C303.650391,130.722656 302.515625,129.833984 302.515625,128.480469 C302.515625,127.140625 303.609375,126.292969 305.523438,126.169922 L309.337891,125.9375 L309.337891,127.099609 C309.337891,129.150391 307.601562,130.722656 305.359375,130.722656 Z M316.132812,137.818359 C318.484375,137.818359 319.646484,136.765625 320.876953,133.498047 L326.126953,119.757812 C326.208984,119.525391 326.25,119.306641 326.25,119.128906 C326.25,118.486328 325.771484,118.035156 325.087891,118.035156 C324.5,118.035156 324.185547,118.28125 323.966797,118.910156 L320.029297,130.121094 L319.988281,130.121094 L316.064453,118.910156 C315.845703,118.28125 315.490234,118.035156 314.929688,118.035156 C314.246094,118.035156 313.740234,118.472656 313.740234,119.128906 C313.740234,119.306641 313.78125,119.525391 313.863281,119.757812 L318.757812,132.513672 L318.429688,133.511719 C317.869141,135.234375 317.007812,135.78125 316.105469,135.78125 C315.736328,135.78125 315.640625,135.767578 315.298828,135.767578 C314.697266,135.767578 314.341797,136.123047 314.341797,136.642578 C314.341797,137.394531 314.984375,137.818359 316.132812,137.818359 Z M326.701172,137.244141 C327.193359,137.244141 327.521484,136.957031 327.671875,136.451172 L334.302734,113.783203 C334.34375,113.619141 334.34375,113.537109 334.34375,113.427734 C334.34375,112.894531 333.960938,112.525391 333.400391,112.525391 C332.853516,112.525391 332.539062,112.8125 332.375,113.386719 L325.798828,135.917969 C325.771484,136.013672 325.730469,136.191406 325.730469,136.355469 C325.730469,136.902344 326.140625,137.244141 326.701172,137.244141 Z M337.324219,137.517578 C338.021484,137.517578 338.513672,136.998047 338.513672,136.246094 L338.513672,130.189453 L338.568359,130.189453 C339.416016,131.748047 341.056641,132.746094 343.09375,132.746094 C346.675781,132.746094 349.123047,129.847656 349.123047,125.390625 C349.123047,120.933594 346.662109,118.035156 343.039062,118.035156 C340.974609,118.035156 339.320312,119.087891 338.445312,120.6875 L338.390625,120.6875 L338.390625,119.238281 C338.390625,118.527344 337.925781,118.035156 337.269531,118.035156 C336.599609,118.035156 336.134766,118.527344 336.134766,119.238281 L336.134766,136.246094 C336.134766,136.998047 336.626953,137.517578 337.324219,137.517578 Z M342.574219,130.654297 C340.140625,130.654297 338.5,128.5625 338.5,125.390625 C338.5,122.232422 340.140625,120.126953 342.574219,120.126953 C345.103516,120.126953 346.689453,122.177734 346.689453,125.390625 C346.689453,128.617188 345.103516,130.654297 342.574219,130.654297 Z M361.427734,132.746094 C362.083984,132.746094 362.548828,132.253906 362.548828,131.542969 L362.548828,122.669922 C362.548828,119.839844 360.443359,118.035156 357.107422,118.035156 C354.796875,118.035156 352.71875,119.060547 351.912109,120.619141 C351.720703,120.960938 351.625,121.302734 351.625,121.603516 C351.625,122.246094 352.0625,122.669922 352.677734,122.669922 C353.128906,122.669922 353.443359,122.492188 353.662109,122.095703 C354.455078,120.6875 355.507812,120.126953 357.052734,120.126953 C359.021484,120.126953 360.169922,121.166016 360.169922,122.902344 L360.169922,124.091797 L356.082031,124.324219 C352.800781,124.515625 350.927734,126.046875 350.927734,128.480469 C350.927734,131.037109 352.828125,132.746094 355.658203,132.746094 C357.572266,132.746094 359.390625,131.679688 360.238281,130.052734 L360.292969,130.052734 L360.292969,131.542969 C360.292969,132.253906 360.757812,132.746094 361.427734,132.746094 Z M356.191406,130.722656 C354.482422,130.722656 353.347656,129.833984 353.347656,128.480469 C353.347656,127.140625 354.441406,126.292969 356.355469,126.169922 L360.169922,125.9375 L360.169922,127.099609 C360.169922,129.150391 358.433594,130.722656 356.191406,130.722656 Z M376.125,132.746094 C376.808594,132.746094 377.246094,132.226562 377.246094,131.542969 L377.246094,119.306641 C377.246094,118.554688 376.753906,118.035156 376.056641,118.035156 C375.359375,118.035156 374.867188,118.554688 374.867188,119.306641 L374.867188,126.634766 C374.867188,129.054688 373.472656,130.640625 371.162109,130.640625 C368.960938,130.640625 367.880859,129.396484 367.880859,127.085938 L367.880859,119.306641 C367.880859,118.554688 367.388672,118.035156 366.691406,118.035156 C365.994141,118.035156 365.501953,118.554688 365.501953,119.306641 L365.501953,127.509766 C365.501953,130.736328 367.320312,132.746094 370.423828,132.746094 C372.611328,132.746094 374.087891,131.830078 374.935547,130.189453 L374.990234,130.189453 L374.990234,131.542969 C374.990234,132.226562 375.441406,132.746094 376.125,132.746094 Z M385.257812,132.746094 C388.634766,132.746094 390.917969,131.037109 390.917969,128.494141 C390.917969,126.402344 389.824219,125.363281 386.857422,124.638672 L384.738281,124.119141 C383.179688,123.736328 382.414062,123.052734 382.414062,122.068359 C382.414062,120.851562 383.603516,119.990234 385.3125,119.990234 C386.761719,119.990234 387.677734,120.509766 388.292969,121.699219 C388.552734,122.191406 388.880859,122.341797 389.345703,122.341797 C389.919922,122.341797 390.275391,121.972656 390.275391,121.412109 C390.275391,121.302734 390.261719,121.193359 390.234375,121.056641 C389.865234,119.347656 387.787109,118.035156 385.449219,118.035156 C382.236328,118.035156 380.0625,119.716797 380.0625,122.191406 C380.0625,124.1875 381.388672,125.486328 384.136719,126.169922 L386.310547,126.716797 C387.910156,127.113281 388.498047,127.660156 388.498047,128.685547 C388.498047,130.011719 387.267578,130.804688 385.449219,130.804688 C383.630859,130.804688 382.783203,130.244141 382.072266,129 C381.798828,128.507812 381.457031,128.289062 381.033203,128.289062 C380.417969,128.289062 379.953125,128.644531 379.953125,129.273438 C379.953125,129.451172 379.980469,129.628906 380.0625,129.833984 C380.746094,131.611328 382.728516,132.746094 385.257812,132.746094 Z M399.3125,132.746094 C401.910156,132.746094 403.90625,131.652344 404.822266,129.724609 C404.931641,129.464844 405,129.21875 405,129.027344 C405,128.398438 404.576172,127.988281 403.947266,127.988281 C403.578125,127.988281 403.304688,128.125 403.058594,128.466797 C401.951172,130.080078 400.912109,130.681641 399.216797,130.681641 C396.673828,130.681641 395.101562,128.904297 395.101562,126.033203 L403.988281,126.033203 C404.808594,126.033203 405.300781,125.513672 405.300781,124.652344 C405.300781,120.755859 402.744141,118.035156 399.107422,118.035156 C395.183594,118.035156 392.654297,120.960938 392.654297,125.445312 C392.654297,130.039062 395.115234,132.746094 399.3125,132.746094 Z M402.839844,124.173828 L395.115234,124.173828 C395.265625,121.726562 396.851562,120.099609 399.066406,120.099609 C401.267578,120.099609 402.785156,121.712891 402.839844,124.173828 Z"/><path id="Mute" fill="#000" fill-rule="nonzero" d="M74.9570312,359.691406 C75.6679688,359.691406 76.1054688,359.240234 76.1054688,358.501953 L76.1054688,341.111328 C76.1054688,340.181641 75.4902344,339.580078 74.5605469,339.580078 C73.7128906,339.580078 73.1796875,339.990234 72.796875,340.892578 L66.4394531,356.232422 L66.3300781,356.232422 L59.9589844,340.892578 C59.5761719,339.976562 59.0703125,339.580078 58.2363281,339.580078 C57.2929688,339.580078 56.6640625,340.195312 56.6640625,341.111328 L56.6640625,358.501953 C56.6640625,359.240234 57.1015625,359.691406 57.8125,359.691406 C58.5234375,359.691406 58.9609375,359.240234 58.9609375,358.501953 L58.9609375,344.296875 L59.0566406,344.296875 L64.9082031,358.324219 C65.2089844,359.035156 65.6738281,359.363281 66.3847656,359.363281 C67.0957031,359.363281 67.546875,359.035156 67.8613281,358.296875 L73.7128906,344.296875 L73.8085938,344.296875 L73.8085938,358.501953 C73.8085938,359.240234 74.2460938,359.691406 74.9570312,359.691406 Z M90.1191406,359.746094 C90.8027344,359.746094 91.2402344,359.226562 91.2402344,358.542969 L91.2402344,346.306641 C91.2402344,345.554688 90.7480469,345.035156 90.0507812,345.035156 C89.3535156,345.035156 88.8613281,345.554688 88.8613281,346.306641 L88.8613281,353.634766 C88.8613281,356.054688 87.4667969,357.640625 85.15625,357.640625 C82.9550781,357.640625 81.875,356.396484 81.875,354.085938 L81.875,346.306641 C81.875,345.554688 81.3828125,345.035156 80.6855469,345.035156 C79.9882812,345.035156 79.4960938,345.554688 79.4960938,346.306641 L79.4960938,354.509766 C79.4960938,357.736328 81.3144531,359.746094 84.4179688,359.746094 C86.6054688,359.746094 88.0820312,358.830078 88.9296875,357.189453 L88.984375,357.189453 L88.984375,358.542969 C88.984375,359.226562 89.4355469,359.746094 90.1191406,359.746094 Z M98.6777344,359.609375 C100.003906,359.609375 100.414062,359.226562 100.414062,358.501953 C100.414062,357.941406 100.058594,357.626953 99.2792969,357.572266 L99.0742188,357.558594 C97.8847656,357.476562 97.4609375,356.902344 97.4609375,355.699219 L97.4609375,347.236328 L99.2929688,347.236328 C99.9765625,347.236328 100.359375,346.880859 100.359375,346.251953 C100.359375,345.636719 99.9765625,345.28125 99.2929688,345.28125 L97.4609375,345.28125 L97.4609375,342.847656 C97.4609375,342.095703 96.96875,341.576172 96.2714844,341.576172 C95.5742188,341.576172 95.0820312,342.095703 95.0820312,342.847656 L95.0820312,345.28125 L93.8925781,345.28125 C93.2089844,345.28125 92.8261719,345.636719 92.8261719,346.251953 C92.8261719,346.880859 93.2089844,347.236328 93.8925781,347.236328 L95.0820312,347.236328 L95.0820312,356.21875 C95.0820312,358.488281 96.2304688,359.609375 98.5273438,359.609375 L98.6777344,359.609375 Z M108.302734,359.746094 C110.900391,359.746094 112.896484,358.652344 113.8125,356.724609 C113.921875,356.464844 113.990234,356.21875 113.990234,356.027344 C113.990234,355.398438 113.566406,354.988281 112.9375,354.988281 C112.568359,354.988281 112.294922,355.125 112.048828,355.466797 C110.941406,357.080078 109.902344,357.681641 108.207031,357.681641 C105.664062,357.681641 104.091797,355.904297 104.091797,353.033203 L112.978516,353.033203 C113.798828,353.033203 114.291016,352.513672 114.291016,351.652344 C114.291016,347.755859 111.734375,345.035156 108.097656,345.035156 C104.173828,345.035156 101.644531,347.960938 101.644531,352.445312 C101.644531,357.039062 104.105469,359.746094 108.302734,359.746094 Z M111.830078,351.173828 L104.105469,351.173828 C104.255859,348.726562 105.841797,347.099609 108.056641,347.099609 C110.257812,347.099609 111.775391,348.712891 111.830078,351.173828 Z"/><path id="Skipvideo/ad" fill="#000" fill-rule="nonzero" d="M270.130859,359.828125 C274.546875,359.828125 277.417969,357.544922 277.417969,353.894531 C277.417969,351.105469 275.791016,349.464844 271.675781,348.5625 L269.488281,348.083984 C266.794922,347.496094 265.742188,346.429688 265.742188,344.871094 C265.742188,342.861328 267.642578,341.658203 270.103516,341.658203 C272.236328,341.658203 273.863281,342.533203 274.546875,344.529297 C274.765625,345.158203 275.148438,345.486328 275.777344,345.486328 C276.433594,345.486328 276.898438,345.048828 276.898438,344.378906 C276.898438,344.119141 276.871094,343.914062 276.830078,343.763672 C276.119141,341.097656 273.466797,339.443359 270.171875,339.443359 C266.083984,339.443359 263.212891,341.726562 263.212891,344.980469 C263.212891,347.783203 264.921875,349.574219 268.873047,350.435547 L271.060547,350.914062 C273.794922,351.515625 274.888672,352.609375 274.888672,354.263672 C274.888672,356.205078 272.947266,357.613281 270.267578,357.613281 C267.779297,357.613281 265.837891,356.65625 265.236328,354.619141 C265.044922,353.962891 264.662109,353.648438 264.046875,353.648438 C263.349609,353.648438 262.912109,354.140625 262.912109,354.919922 C262.912109,355.207031 262.966797,355.507812 263.048828,355.78125 C263.787109,358.160156 266.425781,359.828125 270.130859,359.828125 Z M289.982422,359.746094 C290.597656,359.746094 291.076172,359.308594 291.076172,358.734375 C291.076172,358.433594 291.007812,358.214844 290.775391,357.927734 L285.429688,351.419922 L290.269531,346.826172 C290.556641,346.552734 290.652344,346.347656 290.652344,346.019531 C290.652344,345.486328 290.201172,345.035156 289.640625,345.035156 C289.298828,345.035156 289.066406,345.144531 288.779297,345.431641 L282.421875,351.597656 L282.421875,340.796875 C282.421875,340.044922 281.929688,339.525391 281.232422,339.525391 C280.535156,339.525391 280.042969,340.044922 280.042969,340.796875 L280.042969,358.474609 C280.042969,359.226562 280.535156,359.746094 281.232422,359.746094 C281.929688,359.746094 282.421875,359.226562 282.421875,358.474609 L282.421875,354.140625 L283.748047,352.882812 L289.09375,359.308594 C289.367188,359.636719 289.613281,359.746094 289.982422,359.746094 Z M294.822266,342.888672 C295.642578,342.888672 296.3125,342.21875 296.3125,341.412109 C296.3125,340.591797 295.642578,339.935547 294.822266,339.935547 C294.015625,339.935547 293.345703,340.591797 293.345703,341.412109 C293.345703,342.21875 294.015625,342.888672 294.822266,342.888672 Z M294.822266,359.746094 C295.519531,359.746094 296.011719,359.226562 296.011719,358.474609 L296.011719,346.306641 C296.011719,345.554688 295.519531,345.035156 294.822266,345.035156 C294.125,345.035156 293.632812,345.554688 293.632812,346.306641 L293.632812,358.474609 C293.632812,359.226562 294.125,359.746094 294.822266,359.746094 Z M300.414062,364.517578 C301.111328,364.517578 301.603516,363.998047 301.603516,363.246094 L301.603516,357.189453 L301.658203,357.189453 C302.505859,358.748047 304.146484,359.746094 306.183594,359.746094 C309.765625,359.746094 312.212891,356.847656 312.212891,352.390625 C312.212891,347.933594 309.751953,345.035156 306.128906,345.035156 C304.064453,345.035156 302.410156,346.087891 301.535156,347.6875 L301.480469,347.6875 L301.480469,346.238281 C301.480469,345.527344 301.015625,345.035156 300.359375,345.035156 C299.689453,345.035156 299.224609,345.527344 299.224609,346.238281 L299.224609,363.246094 C299.224609,363.998047 299.716797,364.517578 300.414062,364.517578 Z M305.664062,357.654297 C303.230469,357.654297 301.589844,355.5625 301.589844,352.390625 C301.589844,349.232422 303.230469,347.126953 305.664062,347.126953 C308.193359,347.126953 309.779297,349.177734 309.779297,352.390625 C309.779297,355.617188 308.193359,357.654297 305.664062,357.654297 Z M325.556641,359.746094 C326.322266,359.746094 326.828125,359.363281 327.142578,358.542969 L331.654297,346.744141 C331.736328,346.539062 331.777344,346.333984 331.777344,346.128906 C331.777344,345.472656 331.3125,345.035156 330.601562,345.035156 C330.082031,345.035156 329.726562,345.322266 329.507812,345.9375 L325.597656,356.970703 L325.542969,356.970703 L321.646484,345.9375 C321.427734,345.322266 321.072266,345.035156 320.539062,345.035156 C319.828125,345.035156 319.349609,345.472656 319.349609,346.128906 C319.349609,346.333984 319.390625,346.539062 319.472656,346.744141 L323.998047,358.542969 C324.339844,359.404297 324.777344,359.746094 325.556641,359.746094 Z M335.181641,342.888672 C336.001953,342.888672 336.671875,342.21875 336.671875,341.412109 C336.671875,340.591797 336.001953,339.935547 335.181641,339.935547 C334.375,339.935547 333.705078,340.591797 333.705078,341.412109 C333.705078,342.21875 334.375,342.888672 335.181641,342.888672 Z M335.181641,359.746094 C335.878906,359.746094 336.371094,359.226562 336.371094,358.474609 L336.371094,346.306641 C336.371094,345.554688 335.878906,345.035156 335.181641,345.035156 C334.484375,345.035156 333.992188,345.554688 333.992188,346.306641 L333.992188,358.474609 C333.992188,359.226562 334.484375,359.746094 335.181641,359.746094 Z M350.712891,359.746094 C351.396484,359.746094 351.875,359.267578 351.875,358.583984 L351.875,340.796875 C351.875,340.044922 351.382812,339.525391 350.685547,339.525391 C349.988281,339.525391 349.496094,340.044922 349.496094,340.796875 L349.496094,347.591797 L349.441406,347.591797 C348.59375,346.033203 346.953125,345.035156 344.916016,345.035156 C341.333984,345.035156 338.886719,347.933594 338.886719,352.390625 C338.886719,356.847656 341.347656,359.746094 344.970703,359.746094 C347.199219,359.746094 348.675781,358.652344 349.455078,356.957031 L349.496094,356.957031 L349.496094,358.583984 C349.496094,359.28125 350.042969,359.746094 350.712891,359.746094 Z M345.421875,357.654297 C342.90625,357.654297 341.320312,355.617188 341.320312,352.390625 C341.320312,349.177734 342.90625,347.126953 345.421875,347.126953 C347.869141,347.126953 349.509766,349.21875 349.509766,352.390625 C349.509766,355.576172 347.869141,357.654297 345.421875,357.654297 Z M361.048828,359.746094 C363.646484,359.746094 365.642578,358.652344 366.558594,356.724609 C366.667969,356.464844 366.736328,356.21875 366.736328,356.027344 C366.736328,355.398438 366.3125,354.988281 365.683594,354.988281 C365.314453,354.988281 365.041016,355.125 364.794922,355.466797 C363.6875,357.080078 362.648438,357.681641 360.953125,357.681641 C358.410156,357.681641 356.837891,355.904297 356.837891,353.033203 L365.724609,353.033203 C366.544922,353.033203 367.037109,352.513672 367.037109,351.652344 C367.037109,347.755859 364.480469,345.035156 360.84375,345.035156 C356.919922,345.035156 354.390625,347.960938 354.390625,352.445312 C354.390625,357.039062 356.851562,359.746094 361.048828,359.746094 Z M364.576172,351.173828 L356.851562,351.173828 C357.001953,348.726562 358.587891,347.099609 360.802734,347.099609 C363.003906,347.099609 364.521484,348.712891 364.576172,351.173828 Z M375.322266,359.746094 C379.246094,359.746094 381.898438,356.916016 381.898438,352.390625 C381.898438,347.851562 379.246094,345.035156 375.322266,345.035156 C371.384766,345.035156 368.732422,347.851562 368.732422,352.390625 C368.732422,356.916016 371.384766,359.746094 375.322266,359.746094 Z M375.322266,357.654297 C372.806641,357.654297 371.152344,355.740234 371.152344,352.390625 C371.152344,349.041016 372.806641,347.126953 375.322266,347.126953 C377.837891,347.126953 379.478516,349.041016 379.478516,352.390625 C379.478516,355.740234 377.837891,357.654297 375.322266,357.654297 Z M383.880859,364.244141 C384.373047,364.244141 384.701172,363.957031 384.851562,363.451172 L391.482422,340.783203 C391.523438,340.619141 391.523438,340.537109 391.523438,340.427734 C391.523438,339.894531 391.140625,339.525391 390.580078,339.525391 C390.033203,339.525391 389.71875,339.8125 389.554688,340.386719 L382.978516,362.917969 C382.951172,363.013672 382.910156,363.191406 382.910156,363.355469 C382.910156,363.902344 383.320312,364.244141 383.880859,364.244141 Z M403.226562,359.746094 C403.882812,359.746094 404.347656,359.253906 404.347656,358.542969 L404.347656,349.669922 C404.347656,346.839844 402.242188,345.035156 398.90625,345.035156 C396.595703,345.035156 394.517578,346.060547 393.710938,347.619141 C393.519531,347.960938 393.423828,348.302734 393.423828,348.603516 C393.423828,349.246094 393.861328,349.669922 394.476562,349.669922 C394.927734,349.669922 395.242188,349.492188 395.460938,349.095703 C396.253906,347.6875 397.306641,347.126953 398.851562,347.126953 C400.820312,347.126953 401.96875,348.166016 401.96875,349.902344 L401.96875,351.091797 L397.880859,351.324219 C394.599609,351.515625 392.726562,353.046875 392.726562,355.480469 C392.726562,358.037109 394.626953,359.746094 397.457031,359.746094 C399.371094,359.746094 401.189453,358.679688 402.037109,357.052734 L402.091797,357.052734 L402.091797,358.542969 C402.091797,359.253906 402.556641,359.746094 403.226562,359.746094 Z M397.990234,357.722656 C396.28125,357.722656 395.146484,356.833984 395.146484,355.480469 C395.146484,354.140625 396.240234,353.292969 398.154297,353.169922 L401.96875,352.9375 L401.96875,354.099609 C401.96875,356.150391 400.232422,357.722656 397.990234,357.722656 Z M418.498047,359.746094 C419.181641,359.746094 419.660156,359.267578 419.660156,358.583984 L419.660156,340.796875 C419.660156,340.044922 419.167969,339.525391 418.470703,339.525391 C417.773438,339.525391 417.28125,340.044922 417.28125,340.796875 L417.28125,347.591797 L417.226562,347.591797 C416.378906,346.033203 414.738281,345.035156 412.701172,345.035156 C409.119141,345.035156 406.671875,347.933594 406.671875,352.390625 C406.671875,356.847656 409.132812,359.746094 412.755859,359.746094 C414.984375,359.746094 416.460938,358.652344 417.240234,356.957031 L417.28125,356.957031 L417.28125,358.583984 C417.28125,359.28125 417.828125,359.746094 418.498047,359.746094 Z M413.207031,357.654297 C410.691406,357.654297 409.105469,355.617188 409.105469,352.390625 C409.105469,349.177734 410.691406,347.126953 413.207031,347.126953 C415.654297,347.126953 417.294922,349.21875 417.294922,352.390625 C417.294922,355.576172 415.654297,357.654297 413.207031,357.654297 Z"/><path id="Picture-in-picture" fill="#000" fill-rule="nonzero" d="M497.894531,359.691406 C498.646484,359.691406 499.125,359.199219 499.125,358.419922 L499.125,352.458984 L503.677734,352.458984 C507.382812,352.458984 510.021484,349.847656 510.021484,346.101562 C510.021484,342.369141 507.410156,339.771484 503.705078,339.771484 L497.894531,339.771484 C497.142578,339.771484 496.664062,340.263672 496.664062,341.042969 L496.664062,358.419922 C496.664062,359.199219 497.142578,359.691406 497.894531,359.691406 Z M503.0625,350.271484 L499.125,350.271484 L499.125,341.958984 L503.0625,341.958984 C505.892578,341.958984 507.492188,343.490234 507.492188,346.101562 C507.492188,348.726562 505.878906,350.271484 503.0625,350.271484 Z M513.78125,342.888672 C514.601562,342.888672 515.271484,342.21875 515.271484,341.412109 C515.271484,340.591797 514.601562,339.935547 513.78125,339.935547 C512.974609,339.935547 512.304688,340.591797 512.304688,341.412109 C512.304688,342.21875 512.974609,342.888672 513.78125,342.888672 Z M513.78125,359.746094 C514.478516,359.746094 514.970703,359.226562 514.970703,358.474609 L514.970703,346.306641 C514.970703,345.554688 514.478516,345.035156 513.78125,345.035156 C513.083984,345.035156 512.591797,345.554688 512.591797,346.306641 L512.591797,358.474609 C512.591797,359.226562 513.083984,359.746094 513.78125,359.746094 Z M524.048828,359.746094 C526.632812,359.746094 528.888672,358.324219 529.572266,356.355469 C529.640625,356.136719 529.681641,355.931641 529.681641,355.753906 C529.681641,355.138672 529.271484,354.714844 528.65625,354.714844 C528.136719,354.714844 527.876953,354.90625 527.535156,355.548828 C526.796875,356.916016 525.757812,357.654297 524.048828,357.654297 C521.601562,357.654297 519.90625,355.658203 519.90625,352.390625 C519.90625,349.205078 521.574219,347.126953 524.048828,347.126953 C525.689453,347.126953 526.769531,347.824219 527.521484,349.232422 C527.849609,349.847656 528.136719,350.066406 528.65625,350.066406 C529.271484,350.066406 529.667969,349.65625 529.667969,349.027344 C529.667969,348.876953 529.640625,348.699219 529.585938,348.521484 C529.039062,346.552734 526.701172,345.035156 524.021484,345.035156 C520.083984,345.035156 517.486328,347.947266 517.486328,352.417969 C517.486328,356.916016 520.111328,359.746094 524.048828,359.746094 Z M536.572266,359.609375 C537.898438,359.609375 538.308594,359.226562 538.308594,358.501953 C538.308594,357.941406 537.953125,357.626953 537.173828,357.572266 L536.96875,357.558594 C535.779297,357.476562 535.355469,356.902344 535.355469,355.699219 L535.355469,347.236328 L537.1875,347.236328 C537.871094,347.236328 538.253906,346.880859 538.253906,346.251953 C538.253906,345.636719 537.871094,345.28125 537.1875,345.28125 L535.355469,345.28125 L535.355469,342.847656 C535.355469,342.095703 534.863281,341.576172 534.166016,341.576172 C533.46875,341.576172 532.976562,342.095703 532.976562,342.847656 L532.976562,345.28125 L531.787109,345.28125 C531.103516,345.28125 530.720703,345.636719 530.720703,346.251953 C530.720703,346.880859 531.103516,347.236328 531.787109,347.236328 L532.976562,347.236328 L532.976562,356.21875 C532.976562,358.488281 534.125,359.609375 536.421875,359.609375 L536.572266,359.609375 Z M551.201172,359.746094 C551.884766,359.746094 552.322266,359.226562 552.322266,358.542969 L552.322266,346.306641 C552.322266,345.554688 551.830078,345.035156 551.132812,345.035156 C550.435547,345.035156 549.943359,345.554688 549.943359,346.306641 L549.943359,353.634766 C549.943359,356.054688 548.548828,357.640625 546.238281,357.640625 C544.037109,357.640625 542.957031,356.396484 542.957031,354.085938 L542.957031,346.306641 C542.957031,345.554688 542.464844,345.035156 541.767578,345.035156 C541.070312,345.035156 540.578125,345.554688 540.578125,346.306641 L540.578125,354.509766 C540.578125,357.736328 542.396484,359.746094 545.5,359.746094 C547.6875,359.746094 549.164062,358.830078 550.011719,357.189453 L550.066406,357.189453 L550.066406,358.542969 C550.066406,359.226562 550.517578,359.746094 551.201172,359.746094 Z M556.587891,359.746094 C557.285156,359.746094 557.777344,359.226562 557.777344,358.474609 L557.777344,350.667969 C557.777344,348.849609 558.693359,347.304688 560.839844,347.304688 C561.359375,347.304688 561.728516,347.208984 561.974609,347.003906 C562.220703,346.8125 562.34375,346.539062 562.34375,346.169922 C562.34375,345.841797 562.248047,345.568359 562.042969,345.376953 C561.810547,345.158203 561.441406,345.035156 560.921875,345.035156 C559.5,345.035156 558.105469,346.128906 557.695312,347.605469 L557.640625,347.605469 L557.640625,346.238281 C557.640625,345.527344 557.175781,345.035156 556.519531,345.035156 C555.863281,345.035156 555.398438,345.527344 555.398438,346.238281 L555.398438,358.474609 C555.398438,359.226562 555.890625,359.746094 556.587891,359.746094 Z M569.302734,359.746094 C571.900391,359.746094 573.896484,358.652344 574.8125,356.724609 C574.921875,356.464844 574.990234,356.21875 574.990234,356.027344 C574.990234,355.398438 574.566406,354.988281 573.9375,354.988281 C573.568359,354.988281 573.294922,355.125 573.048828,355.466797 C571.941406,357.080078 570.902344,357.681641 569.207031,357.681641 C566.664062,357.681641 565.091797,355.904297 565.091797,353.033203 L573.978516,353.033203 C574.798828,353.033203 575.291016,352.513672 575.291016,351.652344 C575.291016,347.755859 572.734375,345.035156 569.097656,345.035156 C565.173828,345.035156 562.644531,347.960938 562.644531,352.445312 C562.644531,357.039062 565.105469,359.746094 569.302734,359.746094 Z M572.830078,351.173828 L565.105469,351.173828 C565.255859,348.726562 566.841797,347.099609 569.056641,347.099609 C571.257812,347.099609 572.775391,348.712891 572.830078,351.173828 Z M585.654297,352.609375 C586.324219,352.609375 586.830078,352.171875 586.830078,351.501953 C586.830078,350.832031 586.324219,350.394531 585.654297,350.394531 L578.626953,350.394531 C577.957031,350.394531 577.451172,350.832031 577.451172,351.501953 C577.451172,352.171875 577.957031,352.609375 578.626953,352.609375 L585.654297,352.609375 Z M591,342.888672 C591.820312,342.888672 592.490234,342.21875 592.490234,341.412109 C592.490234,340.591797 591.820312,339.935547 591,339.935547 C590.193359,339.935547 589.523438,340.591797 589.523438,341.412109 C589.523438,342.21875 590.193359,342.888672 591,342.888672 Z M591,359.746094 C591.697266,359.746094 592.189453,359.226562 592.189453,358.474609 L592.189453,346.306641 C592.189453,345.554688 591.697266,345.035156 591,345.035156 C590.302734,345.035156 589.810547,345.554688 589.810547,346.306641 L589.810547,358.474609 C589.810547,359.226562 590.302734,359.746094 591,359.746094 Z M605.943359,359.746094 C606.640625,359.746094 607.132812,359.226562 607.132812,358.474609 L607.132812,350.271484 C607.132812,347.044922 605.328125,345.035156 602.210938,345.035156 C600.009766,345.035156 598.492188,346.019531 597.699219,347.550781 L597.644531,347.550781 L597.644531,346.238281 C597.644531,345.527344 597.179688,345.035156 596.523438,345.035156 C595.867188,345.035156 595.402344,345.527344 595.402344,346.238281 L595.402344,358.474609 C595.402344,359.226562 595.894531,359.746094 596.591797,359.746094 C597.289062,359.746094 597.78125,359.226562 597.78125,358.474609 L597.78125,351.132812 C597.78125,348.726562 599.244141,347.140625 601.486328,347.140625 C603.673828,347.140625 604.753906,348.398438 604.753906,350.695312 L604.753906,358.474609 C604.753906,359.226562 605.246094,359.746094 605.943359,359.746094 Z M618.125,352.609375 C618.794922,352.609375 619.300781,352.171875 619.300781,351.501953 C619.300781,350.832031 618.794922,350.394531 618.125,350.394531 L611.097656,350.394531 C610.427734,350.394531 609.921875,350.832031 609.921875,351.501953 C609.921875,352.171875 610.427734,352.609375 611.097656,352.609375 L618.125,352.609375 Z M623.347656,364.517578 C624.044922,364.517578 624.537109,363.998047 624.537109,363.246094 L624.537109,357.189453 L624.591797,357.189453 C625.439453,358.748047 627.080078,359.746094 629.117188,359.746094 C632.699219,359.746094 635.146484,356.847656 635.146484,352.390625 C635.146484,347.933594 632.685547,345.035156 629.0625,345.035156 C626.998047,345.035156 625.34375,346.087891 624.46875,347.6875 L624.414062,347.6875 L624.414062,346.238281 C624.414062,345.527344 623.949219,345.035156 623.292969,345.035156 C622.623047,345.035156 622.158203,345.527344 622.158203,346.238281 L622.158203,363.246094 C622.158203,363.998047 622.650391,364.517578 623.347656,364.517578 Z M628.597656,357.654297 C626.164062,357.654297 624.523438,355.5625 624.523438,352.390625 C624.523438,349.232422 626.164062,347.126953 628.597656,347.126953 C631.126953,347.126953 632.712891,349.177734 632.712891,352.390625 C632.712891,355.617188 631.126953,357.654297 628.597656,357.654297 Z M638.851562,342.888672 C639.671875,342.888672 640.341797,342.21875 640.341797,341.412109 C640.341797,340.591797 639.671875,339.935547 638.851562,339.935547 C638.044922,339.935547 637.375,340.591797 637.375,341.412109 C637.375,342.21875 638.044922,342.888672 638.851562,342.888672 Z M638.851562,359.746094 C639.548828,359.746094 640.041016,359.226562 640.041016,358.474609 L640.041016,346.306641 C640.041016,345.554688 639.548828,345.035156 638.851562,345.035156 C638.154297,345.035156 637.662109,345.554688 637.662109,346.306641 L637.662109,358.474609 C637.662109,359.226562 638.154297,359.746094 638.851562,359.746094 Z M649.119141,359.746094 C651.703125,359.746094 653.958984,358.324219 654.642578,356.355469 C654.710938,356.136719 654.751953,355.931641 654.751953,355.753906 C654.751953,355.138672 654.341797,354.714844 653.726562,354.714844 C653.207031,354.714844 652.947266,354.90625 652.605469,355.548828 C651.867188,356.916016 650.828125,357.654297 649.119141,357.654297 C646.671875,357.654297 644.976562,355.658203 644.976562,352.390625 C644.976562,349.205078 646.644531,347.126953 649.119141,347.126953 C650.759766,347.126953 651.839844,347.824219 652.591797,349.232422 C652.919922,349.847656 653.207031,350.066406 653.726562,350.066406 C654.341797,350.066406 654.738281,349.65625 654.738281,349.027344 C654.738281,348.876953 654.710938,348.699219 654.65625,348.521484 C654.109375,346.552734 651.771484,345.035156 649.091797,345.035156 C645.154297,345.035156 642.556641,347.947266 642.556641,352.417969 C642.556641,356.916016 645.181641,359.746094 649.119141,359.746094 Z M661.642578,359.609375 C662.96875,359.609375 663.378906,359.226562 663.378906,358.501953 C663.378906,357.941406 663.023438,357.626953 662.244141,357.572266 L662.039062,357.558594 C660.849609,357.476562 660.425781,356.902344 660.425781,355.699219 L660.425781,347.236328 L662.257812,347.236328 C662.941406,347.236328 663.324219,346.880859 663.324219,346.251953 C663.324219,345.636719 662.941406,345.28125 662.257812,345.28125 L660.425781,345.28125 L660.425781,342.847656 C660.425781,342.095703 659.933594,341.576172 659.236328,341.576172 C658.539062,341.576172 658.046875,342.095703 658.046875,342.847656 L658.046875,345.28125 L656.857422,345.28125 C656.173828,345.28125 655.791016,345.636719 655.791016,346.251953 C655.791016,346.880859 656.173828,347.236328 656.857422,347.236328 L658.046875,347.236328 L658.046875,356.21875 C658.046875,358.488281 659.195312,359.609375 661.492188,359.609375 L661.642578,359.609375 Z M676.271484,359.746094 C676.955078,359.746094 677.392578,359.226562 677.392578,358.542969 L677.392578,346.306641 C677.392578,345.554688 676.900391,345.035156 676.203125,345.035156 C675.505859,345.035156 675.013672,345.554688 675.013672,346.306641 L675.013672,353.634766 C675.013672,356.054688 673.619141,357.640625 671.308594,357.640625 C669.107422,357.640625 668.027344,356.396484 668.027344,354.085938 L668.027344,346.306641 C668.027344,345.554688 667.535156,345.035156 666.837891,345.035156 C666.140625,345.035156 665.648438,345.554688 665.648438,346.306641 L665.648438,354.509766 C665.648438,357.736328 667.466797,359.746094 670.570312,359.746094 C672.757812,359.746094 674.234375,358.830078 675.082031,357.189453 L675.136719,357.189453 L675.136719,358.542969 C675.136719,359.226562 675.587891,359.746094 676.271484,359.746094 Z M681.658203,359.746094 C682.355469,359.746094 682.847656,359.226562 682.847656,358.474609 L682.847656,350.667969 C682.847656,348.849609 683.763672,347.304688 685.910156,347.304688 C686.429688,347.304688 686.798828,347.208984 687.044922,347.003906 C687.291016,346.8125 687.414062,346.539062 687.414062,346.169922 C687.414062,345.841797 687.318359,345.568359 687.113281,345.376953 C686.880859,345.158203 686.511719,345.035156 685.992188,345.035156 C684.570312,345.035156 683.175781,346.128906 682.765625,347.605469 L682.710938,347.605469 L682.710938,346.238281 C682.710938,345.527344 682.246094,345.035156 681.589844,345.035156 C680.933594,345.035156 680.46875,345.527344 680.46875,346.238281 L680.46875,358.474609 C680.46875,359.226562 680.960938,359.746094 681.658203,359.746094 Z M694.373047,359.746094 C696.970703,359.746094 698.966797,358.652344 699.882812,356.724609 C699.992188,356.464844 700.060547,356.21875 700.060547,356.027344 C700.060547,355.398438 699.636719,354.988281 699.007812,354.988281 C698.638672,354.988281 698.365234,355.125 698.119141,355.466797 C697.011719,357.080078 695.972656,357.681641 694.277344,357.681641 C691.734375,357.681641 690.162109,355.904297 690.162109,353.033203 L699.048828,353.033203 C699.869141,353.033203 700.361328,352.513672 700.361328,351.652344 C700.361328,347.755859 697.804688,345.035156 694.167969,345.035156 C690.244141,345.035156 687.714844,347.960938 687.714844,352.445312 C687.714844,357.039062 690.175781,359.746094 694.373047,359.746094 Z M697.900391,351.173828 L690.175781,351.173828 C690.326172,348.726562 691.912109,347.099609 694.126953,347.099609 C696.328125,347.099609 697.845703,348.712891 697.900391,351.173828 Z"/><path id="Skipforward" fill="#000" fill-rule="nonzero" d="M533.630859,132.828125 C538.046875,132.828125 540.917969,130.544922 540.917969,126.894531 C540.917969,124.105469 539.291016,122.464844 535.175781,121.5625 L532.988281,121.083984 C530.294922,120.496094 529.242188,119.429688 529.242188,117.871094 C529.242188,115.861328 531.142578,114.658203 533.603516,114.658203 C535.736328,114.658203 537.363281,115.533203 538.046875,117.529297 C538.265625,118.158203 538.648438,118.486328 539.277344,118.486328 C539.933594,118.486328 540.398438,118.048828 540.398438,117.378906 C540.398438,117.119141 540.371094,116.914062 540.330078,116.763672 C539.619141,114.097656 536.966797,112.443359 533.671875,112.443359 C529.583984,112.443359 526.712891,114.726562 526.712891,117.980469 C526.712891,120.783203 528.421875,122.574219 532.373047,123.435547 L534.560547,123.914062 C537.294922,124.515625 538.388672,125.609375 538.388672,127.263672 C538.388672,129.205078 536.447266,130.613281 533.767578,130.613281 C531.279297,130.613281 529.337891,129.65625 528.736328,127.619141 C528.544922,126.962891 528.162109,126.648438 527.546875,126.648438 C526.849609,126.648438 526.412109,127.140625 526.412109,127.919922 C526.412109,128.207031 526.466797,128.507812 526.548828,128.78125 C527.287109,131.160156 529.925781,132.828125 533.630859,132.828125 Z M553.482422,132.746094 C554.097656,132.746094 554.576172,132.308594 554.576172,131.734375 C554.576172,131.433594 554.507812,131.214844 554.275391,130.927734 L548.929688,124.419922 L553.769531,119.826172 C554.056641,119.552734 554.152344,119.347656 554.152344,119.019531 C554.152344,118.486328 553.701172,118.035156 553.140625,118.035156 C552.798828,118.035156 552.566406,118.144531 552.279297,118.431641 L545.921875,124.597656 L545.921875,113.796875 C545.921875,113.044922 545.429688,112.525391 544.732422,112.525391 C544.035156,112.525391 543.542969,113.044922 543.542969,113.796875 L543.542969,131.474609 C543.542969,132.226562 544.035156,132.746094 544.732422,132.746094 C545.429688,132.746094 545.921875,132.226562 545.921875,131.474609 L545.921875,127.140625 L547.248047,125.882812 L552.59375,132.308594 C552.867188,132.636719 553.113281,132.746094 553.482422,132.746094 Z M558.322266,115.888672 C559.142578,115.888672 559.8125,115.21875 559.8125,114.412109 C559.8125,113.591797 559.142578,112.935547 558.322266,112.935547 C557.515625,112.935547 556.845703,113.591797 556.845703,114.412109 C556.845703,115.21875 557.515625,115.888672 558.322266,115.888672 Z M558.322266,132.746094 C559.019531,132.746094 559.511719,132.226562 559.511719,131.474609 L559.511719,119.306641 C559.511719,118.554688 559.019531,118.035156 558.322266,118.035156 C557.625,118.035156 557.132812,118.554688 557.132812,119.306641 L557.132812,131.474609 C557.132812,132.226562 557.625,132.746094 558.322266,132.746094 Z M563.914062,137.517578 C564.611328,137.517578 565.103516,136.998047 565.103516,136.246094 L565.103516,130.189453 L565.158203,130.189453 C566.005859,131.748047 567.646484,132.746094 569.683594,132.746094 C573.265625,132.746094 575.712891,129.847656 575.712891,125.390625 C575.712891,120.933594 573.251953,118.035156 569.628906,118.035156 C567.564453,118.035156 565.910156,119.087891 565.035156,120.6875 L564.980469,120.6875 L564.980469,119.238281 C564.980469,118.527344 564.515625,118.035156 563.859375,118.035156 C563.189453,118.035156 562.724609,118.527344 562.724609,119.238281 L562.724609,136.246094 C562.724609,136.998047 563.216797,137.517578 563.914062,137.517578 Z M569.164062,130.654297 C566.730469,130.654297 565.089844,128.5625 565.089844,125.390625 C565.089844,122.232422 566.730469,120.126953 569.164062,120.126953 C571.693359,120.126953 573.279297,122.177734 573.279297,125.390625 C573.279297,128.617188 571.693359,130.654297 569.164062,130.654297 Z M585.802734,132.746094 C586.527344,132.746094 586.992188,132.253906 586.992188,131.488281 L586.992188,120.236328 L589.083984,120.236328 C589.699219,120.236328 590.095703,119.880859 590.095703,119.265625 C590.095703,118.677734 589.699219,118.28125 589.083984,118.28125 L586.978516,118.28125 L586.978516,116.777344 C586.978516,115.314453 587.525391,114.685547 588.783203,114.685547 C589.083984,114.685547 589.316406,114.658203 589.521484,114.603516 C589.958984,114.480469 590.164062,114.207031 590.164062,113.769531 C590.164062,113.072266 589.494141,112.662109 588.236328,112.662109 C585.912109,112.662109 584.613281,113.974609 584.613281,116.695312 L584.613281,118.28125 L583.4375,118.28125 C582.822266,118.28125 582.425781,118.677734 582.425781,119.265625 C582.425781,119.880859 582.822266,120.236328 583.4375,120.236328 L584.613281,120.236328 L584.613281,131.488281 C584.613281,132.253906 585.078125,132.746094 585.802734,132.746094 Z M597.560547,132.746094 C601.484375,132.746094 604.136719,129.916016 604.136719,125.390625 C604.136719,120.851562 601.484375,118.035156 597.560547,118.035156 C593.623047,118.035156 590.970703,120.851562 590.970703,125.390625 C590.970703,129.916016 593.623047,132.746094 597.560547,132.746094 Z M597.560547,130.654297 C595.044922,130.654297 593.390625,128.740234 593.390625,125.390625 C593.390625,122.041016 595.044922,120.126953 597.560547,120.126953 C600.076172,120.126953 601.716797,122.041016 601.716797,125.390625 C601.716797,128.740234 600.076172,130.654297 597.560547,130.654297 Z M607.71875,132.746094 C608.416016,132.746094 608.908203,132.226562 608.908203,131.474609 L608.908203,123.667969 C608.908203,121.849609 609.824219,120.304688 611.970703,120.304688 C612.490234,120.304688 612.859375,120.208984 613.105469,120.003906 C613.351562,119.8125 613.474609,119.539062 613.474609,119.169922 C613.474609,118.841797 613.378906,118.568359 613.173828,118.376953 C612.941406,118.158203 612.572266,118.035156 612.052734,118.035156 C610.630859,118.035156 609.236328,119.128906 608.826172,120.605469 L608.771484,120.605469 L608.771484,119.238281 C608.771484,118.527344 608.306641,118.035156 607.650391,118.035156 C606.994141,118.035156 606.529297,118.527344 606.529297,119.238281 L606.529297,131.474609 C606.529297,132.226562 607.021484,132.746094 607.71875,132.746094 Z M628.076172,132.746094 C628.814453,132.746094 629.306641,132.363281 629.525391,131.597656 L632.998047,119.675781 C633.066406,119.443359 633.09375,119.238281 633.09375,119.060547 C633.09375,118.431641 632.642578,118.035156 631.931641,118.035156 C631.34375,118.035156 631.029297,118.308594 630.851562,119.005859 L628.048828,129.847656 L627.994141,129.847656 L624.986328,119.087891 C624.794922,118.390625 624.34375,118.035156 623.632812,118.035156 C622.908203,118.035156 622.429688,118.404297 622.238281,119.101562 L619.257812,129.847656 L619.203125,129.847656 L616.400391,119.005859 C616.222656,118.308594 615.908203,118.035156 615.320312,118.035156 C614.609375,118.035156 614.158203,118.431641 614.158203,119.060547 C614.158203,119.238281 614.185547,119.443359 614.253906,119.675781 L617.726562,131.597656 C617.958984,132.390625 618.410156,132.746094 619.162109,132.746094 C619.914062,132.746094 620.433594,132.349609 620.652344,131.597656 L623.591797,121.494141 L623.646484,121.494141 L626.599609,131.597656 C626.832031,132.404297 627.283203,132.746094 628.076172,132.746094 Z M644.824219,132.746094 C645.480469,132.746094 645.945312,132.253906 645.945312,131.542969 L645.945312,122.669922 C645.945312,119.839844 643.839844,118.035156 640.503906,118.035156 C638.193359,118.035156 636.115234,119.060547 635.308594,120.619141 C635.117188,120.960938 635.021484,121.302734 635.021484,121.603516 C635.021484,122.246094 635.458984,122.669922 636.074219,122.669922 C636.525391,122.669922 636.839844,122.492188 637.058594,122.095703 C637.851562,120.6875 638.904297,120.126953 640.449219,120.126953 C642.417969,120.126953 643.566406,121.166016 643.566406,122.902344 L643.566406,124.091797 L639.478516,124.324219 C636.197266,124.515625 634.324219,126.046875 634.324219,128.480469 C634.324219,131.037109 636.224609,132.746094 639.054688,132.746094 C640.96875,132.746094 642.787109,131.679688 643.634766,130.052734 L643.689453,130.052734 L643.689453,131.542969 C643.689453,132.253906 644.154297,132.746094 644.824219,132.746094 Z M639.587891,130.722656 C637.878906,130.722656 636.744141,129.833984 636.744141,128.480469 C636.744141,127.140625 637.837891,126.292969 639.751953,126.169922 L643.566406,125.9375 L643.566406,127.099609 C643.566406,129.150391 641.830078,130.722656 639.587891,130.722656 Z M650.15625,132.746094 C650.853516,132.746094 651.345703,132.226562 651.345703,131.474609 L651.345703,123.667969 C651.345703,121.849609 652.261719,120.304688 654.408203,120.304688 C654.927734,120.304688 655.296875,120.208984 655.542969,120.003906 C655.789062,119.8125 655.912109,119.539062 655.912109,119.169922 C655.912109,118.841797 655.816406,118.568359 655.611328,118.376953 C655.378906,118.158203 655.009766,118.035156 654.490234,118.035156 C653.068359,118.035156 651.673828,119.128906 651.263672,120.605469 L651.208984,120.605469 L651.208984,119.238281 C651.208984,118.527344 650.744141,118.035156 650.087891,118.035156 C649.431641,118.035156 648.966797,118.527344 648.966797,119.238281 L648.966797,131.474609 C648.966797,132.226562 649.458984,132.746094 650.15625,132.746094 Z M668.039062,132.746094 C668.722656,132.746094 669.201172,132.267578 669.201172,131.583984 L669.201172,113.796875 C669.201172,113.044922 668.708984,112.525391 668.011719,112.525391 C667.314453,112.525391 666.822266,113.044922 666.822266,113.796875 L666.822266,120.591797 L666.767578,120.591797 C665.919922,119.033203 664.279297,118.035156 662.242188,118.035156 C658.660156,118.035156 656.212891,120.933594 656.212891,125.390625 C656.212891,129.847656 658.673828,132.746094 662.296875,132.746094 C664.525391,132.746094 666.001953,131.652344 666.78125,129.957031 L666.822266,129.957031 L666.822266,131.583984 C666.822266,132.28125 667.369141,132.746094 668.039062,132.746094 Z M662.748047,130.654297 C660.232422,130.654297 658.646484,128.617188 658.646484,125.390625 C658.646484,122.177734 660.232422,120.126953 662.748047,120.126953 C665.195312,120.126953 666.835938,122.21875 666.835938,125.390625 C666.835938,128.576172 665.195312,130.654297 662.748047,130.654297 Z"/></g></svg>