<?xml version="1.0" encoding="UTF-8"?>
<svg width="46px" height="46px" viewBox="0 0 46 46" version="1.1" xmlns="http://www.w3.org/2000/svg" xmlns:xlink="http://www.w3.org/1999/xlink">
    <title>local</title>
    <g id="local" stroke="none" stroke-width="1" fill="none" fill-rule="evenodd">
        <path d="M40.1958008,41.0195378 C40.5131836,41.0195378 40.7734375,40.9116277 40.9765625,40.6958074 C41.2050781,40.4672918 41.3193359,40.1975164 41.3193359,39.8864812 C41.3193359,39.5754461 41.2050781,39.3120183 40.9765625,39.096198 L6.62304687,4.72363941 C6.39453125,4.5078191 6.12475586,4.39673511 5.8137207,4.39013012 C5.50268555,4.3840398 5.23291016,4.49512379 5.00439453,4.72363941 C4.78857422,4.93945972 4.68066406,5.20606129 4.68066406,5.5234441 C4.68066406,5.84082691 4.78857422,6.10742847 5.00439453,6.32324879 L39.3769531,40.6958074 C39.6054687,40.9116277 39.878418,41.0195378 40.1958008,41.0195378 Z M40.7099609,24.1855535 C40.9130859,24.1855535 41.1035156,24.0966863 41.28125,23.9189519 L43.6425781,21.5195378 C43.7822266,21.3798894 43.8552246,21.221198 43.8615723,21.0434636 C43.8679199,20.8657293 43.8139648,20.7006902 43.699707,20.5483464 C42.2397461,18.8217839 40.4243164,17.2761296 38.253418,15.9113836 C36.0825195,14.5466375 33.692627,13.4707097 31.0837402,12.6836003 C28.4748535,11.896491 25.7802734,11.5029363 23,11.5029363 C21.9589844,11.5029363 20.9274902,11.563239 19.9055176,11.6838445 C18.8835449,11.80445 17.8710938,11.9790105 16.8681641,12.2075261 L21.4575195,16.7968816 C23.8188477,16.6318425 26.119873,16.7968816 28.3605957,17.2919988 C30.6013184,17.787116 32.7214355,18.5932683 34.7209473,19.7104558 C36.720459,20.8276433 38.5327148,22.236823 40.1577148,23.9379949 C40.3227539,24.1030339 40.5068359,24.1855535 40.7099609,24.1855535 Z M5.29956055,24.176032 C5.5090332,24.1696843 5.68994141,24.0776433 5.84228516,23.8999089 C8.24169922,21.3735418 11.0283203,19.5009832 14.2021484,18.2822332 L10.3745117,14.4545964 C8.74951172,15.2417058 7.24829102,16.1525945 5.87084961,17.1872625 C4.4934082,18.2219304 3.30322266,19.3422918 2.30029297,20.5483464 C2.18603516,20.7006902 2.13208008,20.8657293 2.13842773,21.0434636 C2.14477539,21.221198 2.21777344,21.3798894 2.35742187,21.5195378 L4.73779297,23.9379949 C4.90283203,24.1030339 5.09008789,24.1823796 5.29956055,24.176032 Z M12.9262695,31.8217839 C13.1293945,31.8090886 13.3134766,31.7075261 13.4785156,31.5170964 C14.265625,30.6538152 15.1923828,29.9079656 16.2587891,29.2795476 C17.3251953,28.6511296 18.4614258,28.1718816 19.6674805,27.8418035 C20.8735352,27.5117253 22.0922852,27.3657293 23.3237305,27.4038152 L18.6582031,22.7382878 C16.7792969,23.1699285 15.0495605,23.8459539 13.4689941,24.766364 C11.8884277,25.6867742 10.590332,26.7563543 9.57470703,27.9751043 C9.46044922,28.127448 9.40649414,28.2861394 9.4128418,28.4511785 C9.41918945,28.6162175 9.49853516,28.7685613 9.65087891,28.9082097 L12.3549805,31.5932683 C12.5327148,31.7583074 12.7231445,31.8344793 12.9262695,31.8217839 Z M34.9399414,30.2793035 L36.3491211,28.9082097 C36.4887695,28.7685613 36.5649414,28.6162175 36.5776367,28.4511785 C36.590332,28.2861394 36.5332031,28.127448 36.40625,27.9751043 C35.4287109,26.7690496 34.1623535,25.7153386 32.6071777,24.8139714 C31.052002,23.9126043 29.3540039,23.2587957 27.5131836,22.8525457 L34.9399414,30.2793035 Z M23.019043,41.6098699 C23.184082,41.6098699 23.3649902,41.5495671 23.5617676,41.4289617 C23.7585449,41.3083562 24.0219727,41.0830144 24.3520508,40.7529363 L28.7509766,36.5253972 C28.890625,36.3984441 28.9699707,36.2556218 28.9890137,36.0969304 C29.0080566,35.938239 28.9604492,35.7827214 28.8461914,35.6303777 C28.2875977,34.8940496 27.4814453,34.2529363 26.4277344,33.7070378 C25.3740234,33.1611394 24.237793,32.8881902 23.019043,32.8881902 C21.762207,32.8881902 20.6037598,33.1674871 19.5437012,33.7260808 C18.4836426,34.2846746 17.6806641,34.9448308 17.1347656,35.7065496 C17.0458984,35.846198 17.0109863,35.9858464 17.0300293,36.1254949 C17.0490723,36.2651433 17.128418,36.3984441 17.2680664,36.5253972 L21.6669922,40.7529363 C22.0097656,41.0830144 22.2763672,41.3083562 22.4667969,41.4289617 C22.6572266,41.5495671 22.8413086,41.6098699 23.019043,41.6098699 Z" fill="#FFFFFF" fill-rule="nonzero"></path>
   </g>
</svg>