<?xml version="1.0" encoding="UTF-8"?>
<svg width="46px" height="46px" viewBox="0 0 46 46" version="1.1" xmlns="http://www.w3.org/2000/svg" xmlns:xlink="http://www.w3.org/1999/xlink">
    <title>skip</title>
    <g id="skip" stroke="none" stroke-width="1" fill="none" fill-rule="evenodd">
        <path d="M38.234375,41.03125 C38.84375,41.03125 39.3632812,40.8242188 39.7929688,40.4101562 C40.2226562,39.9960938 40.4375,39.484375 40.4375,38.875 L40.4375,6.15625 C40.4375,5.53125 40.2226562,5.015625 39.7929688,4.609375 C39.3632812,4.203125 38.84375,4 38.234375,4 C37.625,4 37.1054688,4.203125 36.6757812,4.609375 C36.2460938,5.015625 36.03125,5.53125 36.03125,6.15625 L36.0302813,21.702 L36.0115741,21.6174769 C35.9170525,21.2596451 35.7634549,20.922309 35.5507812,20.6054688 C35.1679688,20.0351562 34.5625,19.5078125 33.734375,19.0234375 L11.0703125,5.7109375 C10.6015625,5.4296875 10.15625,5.21875 9.734375,5.078125 C9.3125,4.9375 8.8671875,4.8671875 8.3984375,4.8671875 C7.4765625,4.8671875 6.6796875,5.2109375 6.0078125,5.8984375 C5.3359375,6.5859375 5,7.578125 5,8.875 L5,36.15625 C5,37.453125 5.3359375,38.4453125 6.0078125,39.1328125 C6.6796875,39.8203125 7.4765625,40.1640625 8.3984375,40.1640625 C8.8671875,40.1640625 9.3125,40.09375 9.734375,39.953125 C10.15625,39.8125 10.6015625,39.6015625 11.0703125,39.3203125 L33.734375,26.0078125 C34.546875,25.5234375 35.1484375,24.9921875 35.5390625,24.4140625 C35.7560764,24.0928819 35.9128086,23.7548225 36.0092593,23.3998843 L36.0302813,23.307 L36.03125,38.875 C36.03125,39.484375 36.2460938,39.9960938 36.6757812,40.4101562 C37.1054688,40.8242188 37.625,41.03125 38.234375,41.03125 Z M9.5703125,35.5 C9.4140625,35.5 9.28125,35.453125 9.171875,35.359375 C9.0625,35.265625 9.0078125,35.1171875 9.0078125,34.9140625 L9.0078125,10.1171875 C9.0078125,9.9140625 9.0625,9.765625 9.171875,9.671875 C9.28125,9.578125 9.4140625,9.53125 9.5703125,9.53125 C9.6328125,9.53125 9.70703125,9.54296875 9.79296875,9.56640625 C9.87890625,9.58984375 9.9765625,9.6328125 10.0859375,9.6953125 L30.7578125,21.9296875 C31.0546875,22.1015625 31.203125,22.296875 31.203125,22.515625 C31.203125,22.734375 31.0546875,22.9296875 30.7578125,23.1015625 L10.0859375,35.3359375 C9.9765625,35.3984375 9.87890625,35.4414062 9.79296875,35.4648438 C9.70703125,35.4882812 9.6328125,35.5 9.5703125,35.5 Z" fill="#000000" fill-rule="nonzero"></path>
   </g>
</svg>