<?xml version="1.0" encoding="UTF-8"?>
<svg width="46px" height="46px" viewBox="0 0 46 46" version="1.1" xmlns="http://www.w3.org/2000/svg" xmlns:xlink="http://www.w3.org/1999/xlink">
    <title>speed</title>
    <g id="speed" stroke="none" stroke-width="1" fill="none" fill-rule="evenodd">
        <path d="M22.78125,45.5625 C25.90625,45.5625 28.84375,44.9648438 31.59375,43.7695312 C34.34375,42.5742188 36.765625,40.9296875 38.859375,38.8359375 C40.953125,36.7421875 42.59375,34.3242188 43.78125,31.5820312 C44.96875,28.8398438 45.5625,25.90625 45.5625,22.78125 C45.5625,19.65625 44.96875,16.7226562 43.78125,13.9804688 C42.59375,11.2382812 40.9492188,8.81640625 38.8476562,6.71484375 C36.7460938,4.61328125 34.3203125,2.96875 31.5703125,1.78125 C28.8203125,0.59375 25.8828125,0 22.7578125,0 C19.6640625,0 16.7421875,0.59375 13.9921875,1.78125 C11.2421875,2.96875 8.81640625,4.61328125 6.71484375,6.71484375 C4.61328125,8.81640625 2.96875,11.2382812 1.78125,13.9804688 C0.59375,16.7226562 0,19.65625 0,22.78125 C0,25.90625 0.59765625,28.8398438 1.79296875,31.5820312 C2.98828125,34.3242188 4.6328125,36.7421875 6.7265625,38.8359375 C8.8203125,40.9296875 11.2421875,42.5742188 13.9921875,43.7695312 C16.7421875,44.9648438 19.671875,45.5625 22.78125,45.5625 Z M22.78125,41.3671875 C20.21875,41.3671875 17.8125,40.8867188 15.5625,39.9257812 C13.3125,38.9648438 11.3398438,37.6367188 9.64453125,35.9414062 C7.94921875,34.2460938 6.625,32.2734375 5.671875,30.0234375 C4.71875,27.7734375 4.2421875,25.359375 4.2421875,22.78125 C4.2421875,20.21875 4.71875,17.8125 5.671875,15.5625 C6.625,13.3125 7.94921875,11.3359375 9.64453125,9.6328125 C11.3398438,7.9296875 13.3085938,6.59765625 15.5507812,5.63671875 C17.7929688,4.67578125 20.1953125,4.1953125 22.7578125,4.1953125 C25.3515625,4.1953125 27.7695312,4.67578125 30.0117187,5.63671875 C32.2539062,6.59765625 34.2265625,7.9296875 35.9296875,9.6328125 C37.6328125,11.3359375 38.9648438,13.3125 39.9257812,15.5625 C40.8867188,17.8125 41.3671875,20.21875 41.3671875,22.78125 C41.3828125,25.359375 40.90625,27.7734375 39.9375,30.0234375 C38.96875,32.2734375 37.640625,34.2460938 35.953125,35.9414062 C34.265625,37.6367188 32.296875,38.9648438 30.046875,39.9257812 C27.796875,40.8867188 25.375,41.3671875 22.78125,41.3671875 Z M22.7578125,12.3515625 C23.3671875,12.3515625 23.8945312,12.1289062 24.3398438,11.6835938 C24.7851562,11.2382812 25.0078125,10.7109375 25.0078125,10.1015625 C25.0078125,9.4765625 24.7851562,8.94921875 24.3398438,8.51953125 C23.8945312,8.08984375 23.3671875,7.875 22.7578125,7.875 C22.1484375,7.875 21.625,8.08984375 21.1875,8.51953125 C20.75,8.94921875 20.53125,9.4765625 20.53125,10.1015625 C20.53125,10.7109375 20.75,11.2382812 21.1875,11.6835938 C21.625,12.1289062 22.1484375,12.3515625 22.7578125,12.3515625 Z M23.3789062,27.0234375 C24.0585937,26.7109375 24.640625,26.1953125 25.125,25.4765625 L33.515625,13.6875 C33.8125,13.265625 33.8984375,12.8789063 33.7734375,12.5273438 C33.6484375,12.1757813 33.40625,11.9375 33.046875,11.8125 C32.6875,11.6875 32.3046875,11.7734375 31.8984375,12.0703125 L19.9921875,20.34375 C19.2734375,20.828125 18.7578125,21.4140625 18.4453125,22.1015625 C18.1328125,22.7890625 18.0390625,23.4960938 18.1640625,24.2226562 C18.2890625,24.9492188 18.65625,25.625 19.265625,26.25 C19.875,26.828125 20.5429687,27.1796875 21.2695312,27.3046875 C21.9960937,27.4296875 22.6992187,27.3359375 23.3789062,27.0234375 Z M13.8984375,16.21875 C14.5234375,16.21875 15.0507812,15.9960938 15.4804688,15.5507812 C15.9101562,15.1054688 16.125,14.5859375 16.125,13.9921875 C16.125,13.3671875 15.9101562,12.8398438 15.4804688,12.4101562 C15.0507812,11.9804688 14.5234375,11.765625 13.8984375,11.765625 C13.2890625,11.765625 12.765625,11.9804688 12.328125,12.4101562 C11.890625,12.8398438 11.671875,13.3671875 11.671875,13.9921875 C11.671875,14.5859375 11.890625,15.1054688 12.328125,15.5507812 C12.765625,15.9960938 13.2890625,16.21875 13.8984375,16.21875 Z M10.1953125,25.0078125 C10.8046875,25.0078125 11.328125,24.7890625 11.765625,24.3515625 C12.203125,23.9140625 12.421875,23.390625 12.421875,22.78125 C12.421875,22.171875 12.203125,21.6484375 11.765625,21.2109375 C11.328125,20.7734375 10.8046875,20.5546875 10.1953125,20.5546875 C9.5859375,20.5546875 9.05859375,20.7734375 8.61328125,21.2109375 C8.16796875,21.6484375 7.9453125,22.171875 7.9453125,22.78125 C7.9453125,23.390625 8.16796875,23.9140625 8.61328125,24.3515625 C9.05859375,24.7890625 9.5859375,25.0078125 10.1953125,25.0078125 Z M35.3671875,25.0078125 C35.9765625,25.0078125 36.5,24.7890625 36.9375,24.3515625 C37.375,23.9140625 37.59375,23.390625 37.59375,22.78125 C37.59375,22.171875 37.375,21.6484375 36.9375,21.2109375 C36.5,20.7734375 35.9765625,20.5546875 35.3671875,20.5546875 C34.7421875,20.5546875 34.2148438,20.7734375 33.7851562,21.2109375 C33.3554688,21.6484375 33.140625,22.171875 33.140625,22.78125 C33.140625,23.390625 33.3554688,23.9140625 33.7851562,24.3515625 C34.2148438,24.7890625 34.7421875,25.0078125 35.3671875,25.0078125 Z M13.9453125,33.8203125 C14.5546875,33.8203125 15.078125,33.6015625 15.515625,33.1640625 C15.953125,32.7265625 16.171875,32.203125 16.171875,31.59375 C16.171875,30.96875 15.953125,30.4375 15.515625,30 C15.078125,29.5625 14.5546875,29.34375 13.9453125,29.34375 C13.3359375,29.34375 12.8085938,29.5625 12.3632812,30 C11.9179688,30.4375 11.6953125,30.96875 11.6953125,31.59375 C11.6953125,32.203125 11.9179688,32.7265625 12.3632812,33.1640625 C12.8085938,33.6015625 13.3359375,33.8203125 13.9453125,33.8203125 Z M31.6171875,33.8203125 C32.2265625,33.8203125 32.75,33.6015625 33.1875,33.1640625 C33.625,32.7265625 33.84375,32.203125 33.84375,31.59375 C33.84375,30.96875 33.625,30.4375 33.1875,30 C32.75,29.5625 32.2265625,29.34375 31.6171875,29.34375 C30.9921875,29.34375 30.4648438,29.5625 30.0351562,30 C29.6054688,30.4375 29.390625,30.96875 29.390625,31.59375 C29.390625,32.203125 29.6054688,32.7265625 30.0351562,33.1640625 C30.4648438,33.6015625 30.9921875,33.8203125 31.6171875,33.8203125 Z" fill="#000000" fill-rule="nonzero"></path>
    </g>
</svg>