<?xml version="1.0" encoding="UTF-8"?>
<svg width="576px" height="576px" viewBox="0 0 576 576" version="1.1" xmlns="http://www.w3.org/2000/svg" xmlns:xlink="http://www.w3.org/1999/xlink">
    <title>Artboard Copy 2</title>
    <g id="Artboard-Copy-2" stroke="none" stroke-width="1" fill="none" fill-rule="evenodd">
        <g id="tachometer-alt-solid" transform="translate(0.000000, 64.000000)" fill="#000000" fill-rule="nonzero">
            <path d="M288,0 C128.94,0 0,128.94 0,288 C0,340.8 14.25,390.26 39.06,432.8 C44.67,442.42 55.36,448 66.5,448 L509.5,448 C520.64,448 531.33,442.42 536.94,432.8 C561.75,390.26 576,340.8 576,288 C576,128.94 447.06,0 288,0 Z M288,64 C302.71,64 314.58,74.13 318.32,87.65 C317.21,89.91 315.68,91.88 314.87,94.32 L305.65,121.99 C300.52,125.48 294.68,128 288.01,128 C270.34,128 256.01,113.67 256.01,96 C256.01,78.33 270.33,64 288,64 Z M96,352 C78.33,352 64,337.67 64,320 C64,302.33 78.33,288 96,288 C113.67,288 128,302.33 128,320 C128,337.67 113.67,352 96,352 Z M144,192 C126.33,192 112,177.67 112,160 C112,142.33 126.33,128 144,128 C161.67,128 176,142.33 176,160 C176,177.67 161.67,192 144,192 Z M390.77,119.59 L329.44,303.59 C343.13,315.33 352,332.54 352,352 C352,363.72 348.62,374.55 343.12,384 L232.88,384 C227.38,374.55 224,363.72 224,352 C224,318.06 250.5,290.57 283.9,288.41 L345.24,104.4 C349.41,91.84 362.97,84.95 375.6,89.23 C388.17,93.42 394.95,107.02 390.77,119.59 L390.77,119.59 Z M405.43,176.79 L420.95,130.24 C424.42,128.95 428.08,128.01 432,128.01 C449.67,128.01 464,142.34 464,160.01 C464,177.68 449.67,192.01 432,192.01 C420.62,192 411.11,185.73 405.43,176.79 Z M480,352 C462.33,352 448,337.67 448,320 C448,302.33 462.33,288 480,288 C497.67,288 512,302.33 512,320 C512,337.67 497.67,352 480,352 Z" id="Shape"></path>
        </g>
    </g>
</svg>