<?xml version="1.0" encoding="UTF-8"?>
<svg width="837px" height="558px" viewBox="0 0 837 558" version="1.1" xmlns="http://www.w3.org/2000/svg" xmlns:xlink="http://www.w3.org/1999/xlink">
    <title>Artboard</title>
    <g id="Artboard" stroke="none" stroke-width="1" fill="none" fill-rule="evenodd">
        <g id="Group" transform="translate(285.000000, 219.000000)">
            <rect id="Rectangle" stroke="#454545" stroke-width="4" fill="#454545" x="2" y="2" width="116" height="116" rx="8"></rect>
            <path d="M59.8671875,77.5625 C67.4375,77.5625 72.359375,73.6484375 72.359375,67.390625 C72.359375,62.609375 69.5703125,59.796875 62.515625,58.25 L58.765625,57.4296875 C54.1484375,56.421875 52.34375,54.59375 52.34375,51.921875 C52.34375,48.4765625 55.6015625,46.4140625 59.8203125,46.4140625 C63.4765625,46.4140625 66.265625,47.9140625 67.4375,51.3359375 C67.8125,52.4140625 68.46875,52.9765625 69.546875,52.9765625 C70.671875,52.9765625 71.46875,52.2265625 71.46875,51.078125 C71.46875,50.6328125 71.421875,50.28125 71.3515625,50.0234375 C70.1328125,45.453125 65.5859375,42.6171875 59.9375,42.6171875 C52.9296875,42.6171875 48.0078125,46.53125 48.0078125,52.109375 C48.0078125,56.9140625 50.9375,59.984375 57.7109375,61.4609375 L61.4609375,62.28125 C66.1484375,63.3125 68.0234375,65.1875 68.0234375,68.0234375 C68.0234375,71.3515625 64.6953125,73.765625 60.1015625,73.765625 C55.8359375,73.765625 52.5078125,72.125 51.4765625,68.6328125 C51.1484375,67.5078125 50.4921875,66.96875 49.4375,66.96875 C48.2421875,66.96875 47.4921875,67.8125 47.4921875,69.1484375 C47.4921875,69.640625 47.5859375,70.15625 47.7265625,70.625 C48.9921875,74.703125 53.515625,77.5625 59.8671875,77.5625 Z" id="S" fill="#FFFFFF" fill-rule="nonzero"></path>
        </g>
        <g id="Group" transform="translate(423.000000, 219.000000)">
            <rect id="Rectangle" stroke="#454545" stroke-width="4" fill="#454545" x="2" y="2" width="116" height="116" rx="8"></rect>
            <path d="M58.1484375,77 C68.203125,77 74.109375,70.7421875 74.109375,60.078125 C74.109375,49.4375 68.1796875,43.1796875 58.1484375,43.1796875 L48.890625,43.1796875 C47.6015625,43.1796875 46.78125,44.0234375 46.78125,45.359375 L46.78125,74.8203125 C46.78125,76.15625 47.6015625,77 48.890625,77 L58.1484375,77 Z M57.8671875,73.203125 L51,73.203125 L51,46.9765625 L57.8671875,46.9765625 C65.5546875,46.9765625 69.796875,51.6640625 69.796875,60.125 C69.796875,68.515625 65.53125,73.203125 57.8671875,73.203125 Z" id="D" fill="#FFFFFF" fill-rule="nonzero"></path>
        </g>
        <g id="Group" transform="translate(147.000000, 219.000000)">
            <rect id="Rectangle" stroke="#454545" stroke-width="4" fill="#454545" x="2" y="2" width="116" height="116" rx="8"></rect>
            <path d="M71.3828125,77.328125 C72.6015625,77.328125 73.4921875,76.5546875 73.4921875,75.4765625 C73.4921875,75.171875 73.421875,74.8203125 73.234375,74.3046875 L62.3359375,44.8671875 C61.8203125,43.484375 60.9765625,42.8515625 59.6875,42.8515625 C58.3046875,42.8515625 57.4375,43.5078125 56.921875,44.890625 L46.046875,74.3046875 C45.859375,74.8203125 45.7890625,75.171875 45.7890625,75.4765625 C45.7890625,76.5546875 46.6796875,77.328125 47.8984375,77.328125 C48.953125,77.328125 49.5625,76.8359375 49.9609375,75.7109375 L52.9375,67.3203125 L66.3203125,67.3203125 L69.3203125,75.7109375 C69.71875,76.8359375 70.328125,77.328125 71.3828125,77.328125 Z M65.125,63.734375 L54.15625,63.734375 L59.5703125,48.3125 L59.7109375,48.3125 L65.125,63.734375 Z" id="A" fill="#FFFFFF" fill-rule="nonzero"></path>
        </g>
        <g id="Group" transform="translate(621.000000, 356.099609)">
            <rect id="Rectangle" stroke="#454545" stroke-width="4" fill="#454545" x="2" y="2" width="116" height="116" rx="8"></rect>
            <path d="M59.640625,77.328125 C60.9765625,77.328125 61.6796875,76.8125 62.21875,75.40625 L73.5859375,45.8515625 C73.75,45.40625 73.84375,45.0078125 73.84375,44.6796875 C73.84375,43.625 72.953125,42.8515625 71.7109375,42.8515625 C70.6796875,42.8515625 70.1171875,43.2734375 69.71875,44.3515625 L59.7109375,71.8671875 L59.5703125,71.8671875 L49.5625,44.3515625 C49.1875,43.3203125 48.5546875,42.8515625 47.546875,42.8515625 C46.28125,42.8515625 45.4375,43.578125 45.4375,44.6796875 C45.4375,45.0078125 45.5078125,45.3828125 45.6953125,45.8515625 L57.0390625,75.3828125 C57.578125,76.7890625 58.3046875,77.328125 59.640625,77.328125 Z" id="V" fill="#FFFFFF" fill-rule="nonzero"></path>
        </g>
        <g id="Group" transform="translate(510.000000, 81.900391)">
            <rect id="Rectangle" stroke="#454545" stroke-width="4" fill="#454545" x="2" y="2" width="116" height="116" rx="8"></rect>
            <path d="M69.921875,77.421875 C71.140625,77.421875 72.078125,76.578125 72.078125,75.4765625 C72.078125,75.0078125 71.9609375,74.5859375 71.6328125,74 L65.4453125,62.9609375 C69.6875,61.625 72.2421875,57.96875 72.2421875,53.2578125 C72.2421875,47.1640625 67.9765625,43.1796875 61.4609375,43.1796875 L50.890625,43.1796875 C49.6015625,43.1796875 48.78125,44.0234375 48.78125,45.359375 L48.78125,75.2421875 C48.78125,76.5546875 49.625,77.421875 50.890625,77.421875 C52.15625,77.421875 53,76.5546875 53,75.2421875 L53,63.6171875 L61.0859375,63.6171875 L67.859375,76.0625 C68.3984375,77.0703125 68.9609375,77.421875 69.921875,77.421875 Z M61.0859375,59.890625 L53,59.890625 L53,46.9296875 L60.8984375,46.9296875 C65.2578125,46.9296875 67.8828125,49.34375 67.8828125,53.3984375 C67.8828125,57.546875 65.421875,59.890625 61.0859375,59.890625 Z" id="R" fill="#FFFFFF" fill-rule="nonzero"></path>
        </g>
        <rect id="Rectangle" stroke="#8F8F8F" stroke-width="4" x="563" y="221" width="116" height="116" rx="8"></rect>
        <rect id="Rectangle" stroke="#8F8F8F" stroke-width="4" x="701" y="221" width="116" height="116" rx="8"></rect>
        <rect id="Rectangle" stroke="#8F8F8F" stroke-width="4" x="650" y="83.9003906" width="116" height="116" rx="8"></rect>
        <rect id="Rectangle" stroke="#8F8F8F" stroke-width="4" x="788" y="83.9003906" width="116" height="116" rx="8"></rect>
        <rect id="Rectangle" stroke="#8F8F8F" stroke-width="4" x="761" y="358.099609" width="116" height="116" rx="8"></rect>
        <rect id="Rectangle" stroke="#8F8F8F" stroke-width="4" x="236" y="83.9003906" width="116" height="116" rx="8"></rect>
        <rect id="Rectangle" stroke="#8F8F8F" stroke-width="4" x="374" y="83.9003906" width="116" height="116" rx="8"></rect>
        <rect id="Rectangle" stroke="#8F8F8F" stroke-width="4" x="98" y="83.9003906" width="116" height="116" rx="8"></rect>
        <path d="M300.380859,424.927734 C304.796875,424.927734 307.667969,422.644531 307.667969,418.994141 C307.667969,416.205078 306.041016,414.564453 301.925781,413.662109 L299.738281,413.183594 C297.044922,412.595703 295.992188,411.529297 295.992188,409.970703 C295.992188,407.960938 297.892578,406.757812 300.353516,406.757812 C302.486328,406.757812 304.113281,407.632812 304.796875,409.628906 C305.015625,410.257812 305.398438,410.585938 306.027344,410.585938 C306.683594,410.585938 307.148438,410.148438 307.148438,409.478516 C307.148438,409.21875 307.121094,409.013672 307.080078,408.863281 C306.369141,406.197266 303.716797,404.542969 300.421875,404.542969 C296.333984,404.542969 293.462891,406.826172 293.462891,410.080078 C293.462891,412.882812 295.171875,414.673828 299.123047,415.535156 L301.310547,416.013672 C304.044922,416.615234 305.138672,417.708984 305.138672,419.363281 C305.138672,421.304688 303.197266,422.712891 300.517578,422.712891 C298.029297,422.712891 296.087891,421.755859 295.486328,419.71875 C295.294922,419.0625 294.912109,418.748047 294.296875,418.748047 C293.599609,418.748047 293.162109,419.240234 293.162109,420.019531 C293.162109,420.306641 293.216797,420.607422 293.298828,420.880859 C294.037109,423.259766 296.675781,424.927734 300.380859,424.927734 Z M311.359375,429.617188 C312.056641,429.617188 312.548828,429.097656 312.548828,428.345703 L312.548828,422.289062 L312.603516,422.289062 C313.451172,423.847656 315.091797,424.845703 317.128906,424.845703 C320.710938,424.845703 323.158203,421.947266 323.158203,417.490234 C323.158203,413.033203 320.697266,410.134766 317.074219,410.134766 C315.009766,410.134766 313.355469,411.1875 312.480469,412.787109 L312.425781,412.787109 L312.425781,411.337891 C312.425781,410.626953 311.960938,410.134766 311.304688,410.134766 C310.634766,410.134766 310.169922,410.626953 310.169922,411.337891 L310.169922,428.345703 C310.169922,429.097656 310.662109,429.617188 311.359375,429.617188 Z M316.609375,422.753906 C314.175781,422.753906 312.535156,420.662109 312.535156,417.490234 C312.535156,414.332031 314.175781,412.226562 316.609375,412.226562 C319.138672,412.226562 320.724609,414.277344 320.724609,417.490234 C320.724609,420.716797 319.138672,422.753906 316.609375,422.753906 Z M331.511719,424.845703 C334.109375,424.845703 336.105469,423.751953 337.021484,421.824219 C337.130859,421.564453 337.199219,421.318359 337.199219,421.126953 C337.199219,420.498047 336.775391,420.087891 336.146484,420.087891 C335.777344,420.087891 335.503906,420.224609 335.257812,420.566406 C334.150391,422.179688 333.111328,422.78125 331.416016,422.78125 C328.873047,422.78125 327.300781,421.003906 327.300781,418.132812 L336.1875,418.132812 C337.007812,418.132812 337.5,417.613281 337.5,416.751953 C337.5,412.855469 334.943359,410.134766 331.306641,410.134766 C327.382812,410.134766 324.853516,413.060547 324.853516,417.544922 C324.853516,422.138672 327.314453,424.845703 331.511719,424.845703 Z M335.039062,416.273438 L327.314453,416.273438 C327.464844,413.826172 329.050781,412.199219 331.265625,412.199219 C333.466797,412.199219 334.984375,413.8125 335.039062,416.273438 Z M345.853516,424.845703 C348.451172,424.845703 350.447266,423.751953 351.363281,421.824219 C351.472656,421.564453 351.541016,421.318359 351.541016,421.126953 C351.541016,420.498047 351.117188,420.087891 350.488281,420.087891 C350.119141,420.087891 349.845703,420.224609 349.599609,420.566406 C348.492188,422.179688 347.453125,422.78125 345.757812,422.78125 C343.214844,422.78125 341.642578,421.003906 341.642578,418.132812 L350.529297,418.132812 C351.349609,418.132812 351.841797,417.613281 351.841797,416.751953 C351.841797,412.855469 349.285156,410.134766 345.648438,410.134766 C341.724609,410.134766 339.195312,413.060547 339.195312,417.544922 C339.195312,422.138672 341.65625,424.845703 345.853516,424.845703 Z M349.380859,416.273438 L341.65625,416.273438 C341.806641,413.826172 343.392578,412.199219 345.607422,412.199219 C347.808594,412.199219 349.326172,413.8125 349.380859,416.273438 Z M365.363281,424.845703 C366.046875,424.845703 366.525391,424.367188 366.525391,423.683594 L366.525391,405.896484 C366.525391,405.144531 366.033203,404.625 365.335938,404.625 C364.638672,404.625 364.146484,405.144531 364.146484,405.896484 L364.146484,412.691406 L364.091797,412.691406 C363.244141,411.132812 361.603516,410.134766 359.566406,410.134766 C355.984375,410.134766 353.537109,413.033203 353.537109,417.490234 C353.537109,421.947266 355.998047,424.845703 359.621094,424.845703 C361.849609,424.845703 363.326172,423.751953 364.105469,422.056641 L364.146484,422.056641 L364.146484,423.683594 C364.146484,424.380859 364.693359,424.845703 365.363281,424.845703 Z M360.072266,422.753906 C357.556641,422.753906 355.970703,420.716797 355.970703,417.490234 C355.970703,414.277344 357.556641,412.226562 360.072266,412.226562 C362.519531,412.226562 364.160156,414.318359 364.160156,417.490234 C364.160156,420.675781 362.519531,422.753906 360.072266,422.753906 Z M386.035156,424.845703 C386.71875,424.845703 387.15625,424.326172 387.15625,423.642578 L387.15625,411.40625 C387.15625,410.654297 386.664062,410.134766 385.966797,410.134766 C385.269531,410.134766 384.777344,410.654297 384.777344,411.40625 L384.777344,418.734375 C384.777344,421.154297 383.382812,422.740234 381.072266,422.740234 C378.871094,422.740234 377.791016,421.496094 377.791016,419.185547 L377.791016,411.40625 C377.791016,410.654297 377.298828,410.134766 376.601562,410.134766 C375.904297,410.134766 375.412109,410.654297 375.412109,411.40625 L375.412109,419.609375 C375.412109,422.835938 377.230469,424.845703 380.333984,424.845703 C382.521484,424.845703 383.998047,423.929688 384.845703,422.289062 L384.900391,422.289062 L384.900391,423.642578 C384.900391,424.326172 385.351562,424.845703 386.035156,424.845703 Z M391.421875,429.617188 C392.119141,429.617188 392.611328,429.097656 392.611328,428.345703 L392.611328,422.289062 L392.666016,422.289062 C393.513672,423.847656 395.154297,424.845703 397.191406,424.845703 C400.773438,424.845703 403.220703,421.947266 403.220703,417.490234 C403.220703,413.033203 400.759766,410.134766 397.136719,410.134766 C395.072266,410.134766 393.417969,411.1875 392.542969,412.787109 L392.488281,412.787109 L392.488281,411.337891 C392.488281,410.626953 392.023438,410.134766 391.367188,410.134766 C390.697266,410.134766 390.232422,410.626953 390.232422,411.337891 L390.232422,428.345703 C390.232422,429.097656 390.724609,429.617188 391.421875,429.617188 Z M396.671875,422.753906 C394.238281,422.753906 392.597656,420.662109 392.597656,417.490234 C392.597656,414.332031 394.238281,412.226562 396.671875,412.226562 C399.201172,412.226562 400.787109,414.277344 400.787109,417.490234 C400.787109,420.716797 399.201172,422.753906 396.671875,422.753906 Z" id="Speedup" fill="#000000" fill-rule="nonzero"></path>
        <path d="M66.1445312,424.791016 C66.8964844,424.791016 67.375,424.298828 67.375,423.519531 L67.375,417.558594 L71.9277344,417.558594 C75.6328125,417.558594 78.2714844,414.947266 78.2714844,411.201172 C78.2714844,407.46875 75.6601562,404.871094 71.9550781,404.871094 L66.1445312,404.871094 C65.3925781,404.871094 64.9140625,405.363281 64.9140625,406.142578 L64.9140625,423.519531 C64.9140625,424.298828 65.3925781,424.791016 66.1445312,424.791016 Z M71.3125,415.371094 L67.375,415.371094 L67.375,407.058594 L71.3125,407.058594 C74.1425781,407.058594 75.7421875,408.589844 75.7421875,411.201172 C75.7421875,413.826172 74.1289062,415.371094 71.3125,415.371094 Z M81.9082031,424.845703 C82.6054688,424.845703 83.0976562,424.326172 83.0976562,423.574219 L83.0976562,415.767578 C83.0976562,413.949219 84.0136719,412.404297 86.1601562,412.404297 C86.6796875,412.404297 87.0488281,412.308594 87.2949219,412.103516 C87.5410156,411.912109 87.6640625,411.638672 87.6640625,411.269531 C87.6640625,410.941406 87.5683594,410.667969 87.3632812,410.476562 C87.1308594,410.257812 86.7617188,410.134766 86.2421875,410.134766 C84.8203125,410.134766 83.4257812,411.228516 83.015625,412.705078 L82.9609375,412.705078 L82.9609375,411.337891 C82.9609375,410.626953 82.4960938,410.134766 81.8398438,410.134766 C81.1835938,410.134766 80.71875,410.626953 80.71875,411.337891 L80.71875,423.574219 C80.71875,424.326172 81.2109375,424.845703 81.9082031,424.845703 Z M94.6230469,424.845703 C97.2207031,424.845703 99.2167969,423.751953 100.132812,421.824219 C100.242188,421.564453 100.310547,421.318359 100.310547,421.126953 C100.310547,420.498047 99.8867188,420.087891 99.2578125,420.087891 C98.8886719,420.087891 98.6152344,420.224609 98.3691406,420.566406 C97.2617188,422.179688 96.2226562,422.78125 94.5273438,422.78125 C91.984375,422.78125 90.4121094,421.003906 90.4121094,418.132812 L99.2988281,418.132812 C100.119141,418.132812 100.611328,417.613281 100.611328,416.751953 C100.611328,412.855469 98.0546875,410.134766 94.4179688,410.134766 C90.4941406,410.134766 87.9648438,413.060547 87.9648438,417.544922 C87.9648438,422.138672 90.4257812,424.845703 94.6230469,424.845703 Z M98.1503906,416.273438 L90.4257812,416.273438 C90.5761719,413.826172 92.1621094,412.199219 94.3769531,412.199219 C96.578125,412.199219 98.0957031,413.8125 98.1503906,416.273438 Z M104.958984,424.845703 C105.683594,424.845703 106.148438,424.353516 106.148438,423.587891 L106.148438,412.335938 L108.240234,412.335938 C108.855469,412.335938 109.251953,411.980469 109.251953,411.365234 C109.251953,410.777344 108.855469,410.380859 108.240234,410.380859 L106.134766,410.380859 L106.134766,408.876953 C106.134766,407.414062 106.681641,406.785156 107.939453,406.785156 C108.240234,406.785156 108.472656,406.757812 108.677734,406.703125 C109.115234,406.580078 109.320312,406.306641 109.320312,405.869141 C109.320312,405.171875 108.650391,404.761719 107.392578,404.761719 C105.068359,404.761719 103.769531,406.074219 103.769531,408.794922 L103.769531,410.380859 L102.59375,410.380859 C101.978516,410.380859 101.582031,410.777344 101.582031,411.365234 C101.582031,411.980469 101.978516,412.335938 102.59375,412.335938 L103.769531,412.335938 L103.769531,423.587891 C103.769531,424.353516 104.234375,424.845703 104.958984,424.845703 Z M116.785156,424.845703 C119.382812,424.845703 121.378906,423.751953 122.294922,421.824219 C122.404297,421.564453 122.472656,421.318359 122.472656,421.126953 C122.472656,420.498047 122.048828,420.087891 121.419922,420.087891 C121.050781,420.087891 120.777344,420.224609 120.53125,420.566406 C119.423828,422.179688 118.384766,422.78125 116.689453,422.78125 C114.146484,422.78125 112.574219,421.003906 112.574219,418.132812 L121.460938,418.132812 C122.28125,418.132812 122.773438,417.613281 122.773438,416.751953 C122.773438,412.855469 120.216797,410.134766 116.580078,410.134766 C112.65625,410.134766 110.126953,413.060547 110.126953,417.544922 C110.126953,422.138672 112.587891,424.845703 116.785156,424.845703 Z M120.3125,416.273438 L112.587891,416.273438 C112.738281,413.826172 114.324219,412.199219 116.539062,412.199219 C118.740234,412.199219 120.257812,413.8125 120.3125,416.273438 Z M126.355469,424.845703 C127.052734,424.845703 127.544922,424.326172 127.544922,423.574219 L127.544922,415.767578 C127.544922,413.949219 128.460938,412.404297 130.607422,412.404297 C131.126953,412.404297 131.496094,412.308594 131.742188,412.103516 C131.988281,411.912109 132.111328,411.638672 132.111328,411.269531 C132.111328,410.941406 132.015625,410.667969 131.810547,410.476562 C131.578125,410.257812 131.208984,410.134766 130.689453,410.134766 C129.267578,410.134766 127.873047,411.228516 127.462891,412.705078 L127.408203,412.705078 L127.408203,411.337891 C127.408203,410.626953 126.943359,410.134766 126.287109,410.134766 C125.630859,410.134766 125.166016,410.626953 125.166016,411.337891 L125.166016,423.574219 C125.166016,424.326172 125.658203,424.845703 126.355469,424.845703 Z M134.982422,424.845703 C135.679688,424.845703 136.171875,424.326172 136.171875,423.574219 L136.171875,415.767578 C136.171875,413.949219 137.087891,412.404297 139.234375,412.404297 C139.753906,412.404297 140.123047,412.308594 140.369141,412.103516 C140.615234,411.912109 140.738281,411.638672 140.738281,411.269531 C140.738281,410.941406 140.642578,410.667969 140.4375,410.476562 C140.205078,410.257812 139.835938,410.134766 139.316406,410.134766 C137.894531,410.134766 136.5,411.228516 136.089844,412.705078 L136.035156,412.705078 L136.035156,411.337891 C136.035156,410.626953 135.570312,410.134766 134.914062,410.134766 C134.257812,410.134766 133.792969,410.626953 133.792969,411.337891 L133.792969,423.574219 C133.792969,424.326172 134.285156,424.845703 134.982422,424.845703 Z M147.697266,424.845703 C150.294922,424.845703 152.291016,423.751953 153.207031,421.824219 C153.316406,421.564453 153.384766,421.318359 153.384766,421.126953 C153.384766,420.498047 152.960938,420.087891 152.332031,420.087891 C151.962891,420.087891 151.689453,420.224609 151.443359,420.566406 C150.335938,422.179688 149.296875,422.78125 147.601562,422.78125 C145.058594,422.78125 143.486328,421.003906 143.486328,418.132812 L152.373047,418.132812 C153.193359,418.132812 153.685547,417.613281 153.685547,416.751953 C153.685547,412.855469 151.128906,410.134766 147.492188,410.134766 C143.568359,410.134766 141.039062,413.060547 141.039062,417.544922 C141.039062,422.138672 143.5,424.845703 147.697266,424.845703 Z M151.224609,416.273438 L143.5,416.273438 C143.650391,413.826172 145.236328,412.199219 147.451172,412.199219 C149.652344,412.199219 151.169922,413.8125 151.224609,416.273438 Z M167.207031,424.845703 C167.890625,424.845703 168.369141,424.367188 168.369141,423.683594 L168.369141,405.896484 C168.369141,405.144531 167.876953,404.625 167.179688,404.625 C166.482422,404.625 165.990234,405.144531 165.990234,405.896484 L165.990234,412.691406 L165.935547,412.691406 C165.087891,411.132812 163.447266,410.134766 161.410156,410.134766 C157.828125,410.134766 155.380859,413.033203 155.380859,417.490234 C155.380859,421.947266 157.841797,424.845703 161.464844,424.845703 C163.693359,424.845703 165.169922,423.751953 165.949219,422.056641 L165.990234,422.056641 L165.990234,423.683594 C165.990234,424.380859 166.537109,424.845703 167.207031,424.845703 Z M161.916016,422.753906 C159.400391,422.753906 157.814453,420.716797 157.814453,417.490234 C157.814453,414.277344 159.400391,412.226562 161.916016,412.226562 C164.363281,412.226562 166.003906,414.318359 166.003906,417.490234 C166.003906,420.675781 164.363281,422.753906 161.916016,422.753906 Z M182.259766,424.845703 C185.636719,424.845703 187.919922,423.136719 187.919922,420.59375 C187.919922,418.501953 186.826172,417.462891 183.859375,416.738281 L181.740234,416.21875 C180.181641,415.835938 179.416016,415.152344 179.416016,414.167969 C179.416016,412.951172 180.605469,412.089844 182.314453,412.089844 C183.763672,412.089844 184.679688,412.609375 185.294922,413.798828 C185.554688,414.291016 185.882812,414.441406 186.347656,414.441406 C186.921875,414.441406 187.277344,414.072266 187.277344,413.511719 C187.277344,413.402344 187.263672,413.292969 187.236328,413.15625 C186.867188,411.447266 184.789062,410.134766 182.451172,410.134766 C179.238281,410.134766 177.064453,411.816406 177.064453,414.291016 C177.064453,416.287109 178.390625,417.585938 181.138672,418.269531 L183.3125,418.816406 C184.912109,419.212891 185.5,419.759766 185.5,420.785156 C185.5,422.111328 184.269531,422.904297 182.451172,422.904297 C180.632812,422.904297 179.785156,422.34375 179.074219,421.099609 C178.800781,420.607422 178.458984,420.388672 178.035156,420.388672 C177.419922,420.388672 176.955078,420.744141 176.955078,421.373047 C176.955078,421.550781 176.982422,421.728516 177.064453,421.933594 C177.748047,423.710938 179.730469,424.845703 182.259766,424.845703 Z M191.542969,429.617188 C192.240234,429.617188 192.732422,429.097656 192.732422,428.345703 L192.732422,422.289062 L192.787109,422.289062 C193.634766,423.847656 195.275391,424.845703 197.3125,424.845703 C200.894531,424.845703 203.341797,421.947266 203.341797,417.490234 C203.341797,413.033203 200.880859,410.134766 197.257812,410.134766 C195.193359,410.134766 193.539062,411.1875 192.664062,412.787109 L192.609375,412.787109 L192.609375,411.337891 C192.609375,410.626953 192.144531,410.134766 191.488281,410.134766 C190.818359,410.134766 190.353516,410.626953 190.353516,411.337891 L190.353516,428.345703 C190.353516,429.097656 190.845703,429.617188 191.542969,429.617188 Z M196.792969,422.753906 C194.359375,422.753906 192.71875,420.662109 192.71875,417.490234 C192.71875,414.332031 194.359375,412.226562 196.792969,412.226562 C199.322266,412.226562 200.908203,414.277344 200.908203,417.490234 C200.908203,420.716797 199.322266,422.753906 196.792969,422.753906 Z M211.695312,424.845703 C214.292969,424.845703 216.289062,423.751953 217.205078,421.824219 C217.314453,421.564453 217.382812,421.318359 217.382812,421.126953 C217.382812,420.498047 216.958984,420.087891 216.330078,420.087891 C215.960938,420.087891 215.6875,420.224609 215.441406,420.566406 C214.333984,422.179688 213.294922,422.78125 211.599609,422.78125 C209.056641,422.78125 207.484375,421.003906 207.484375,418.132812 L216.371094,418.132812 C217.191406,418.132812 217.683594,417.613281 217.683594,416.751953 C217.683594,412.855469 215.126953,410.134766 211.490234,410.134766 C207.566406,410.134766 205.037109,413.060547 205.037109,417.544922 C205.037109,422.138672 207.498047,424.845703 211.695312,424.845703 Z M215.222656,416.273438 L207.498047,416.273438 C207.648438,413.826172 209.234375,412.199219 211.449219,412.199219 C213.650391,412.199219 215.167969,413.8125 215.222656,416.273438 Z M226.037109,424.845703 C228.634766,424.845703 230.630859,423.751953 231.546875,421.824219 C231.65625,421.564453 231.724609,421.318359 231.724609,421.126953 C231.724609,420.498047 231.300781,420.087891 230.671875,420.087891 C230.302734,420.087891 230.029297,420.224609 229.783203,420.566406 C228.675781,422.179688 227.636719,422.78125 225.941406,422.78125 C223.398438,422.78125 221.826172,421.003906 221.826172,418.132812 L230.712891,418.132812 C231.533203,418.132812 232.025391,417.613281 232.025391,416.751953 C232.025391,412.855469 229.46875,410.134766 225.832031,410.134766 C221.908203,410.134766 219.378906,413.060547 219.378906,417.544922 C219.378906,422.138672 221.839844,424.845703 226.037109,424.845703 Z M229.564453,416.273438 L221.839844,416.273438 C221.990234,413.826172 223.576172,412.199219 225.791016,412.199219 C227.992188,412.199219 229.509766,413.8125 229.564453,416.273438 Z M245.546875,424.845703 C246.230469,424.845703 246.708984,424.367188 246.708984,423.683594 L246.708984,405.896484 C246.708984,405.144531 246.216797,404.625 245.519531,404.625 C244.822266,404.625 244.330078,405.144531 244.330078,405.896484 L244.330078,412.691406 L244.275391,412.691406 C243.427734,411.132812 241.787109,410.134766 239.75,410.134766 C236.167969,410.134766 233.720703,413.033203 233.720703,417.490234 C233.720703,421.947266 236.181641,424.845703 239.804688,424.845703 C242.033203,424.845703 243.509766,423.751953 244.289062,422.056641 L244.330078,422.056641 L244.330078,423.683594 C244.330078,424.380859 244.876953,424.845703 245.546875,424.845703 Z M240.255859,422.753906 C237.740234,422.753906 236.154297,420.716797 236.154297,417.490234 C236.154297,414.277344 237.740234,412.226562 240.255859,412.226562 C242.703125,412.226562 244.34375,414.318359 244.34375,417.490234 C244.34375,420.675781 242.703125,422.753906 240.255859,422.753906 Z" id="Preferredspeed" fill="#000000" fill-rule="nonzero"></path>
        <path d="M449.380859,424.927734 C453.796875,424.927734 456.667969,422.644531 456.667969,418.994141 C456.667969,416.205078 455.041016,414.564453 450.925781,413.662109 L448.738281,413.183594 C446.044922,412.595703 444.992188,411.529297 444.992188,409.970703 C444.992188,407.960938 446.892578,406.757812 449.353516,406.757812 C451.486328,406.757812 453.113281,407.632812 453.796875,409.628906 C454.015625,410.257812 454.398438,410.585938 455.027344,410.585938 C455.683594,410.585938 456.148438,410.148438 456.148438,409.478516 C456.148438,409.21875 456.121094,409.013672 456.080078,408.863281 C455.369141,406.197266 452.716797,404.542969 449.421875,404.542969 C445.333984,404.542969 442.462891,406.826172 442.462891,410.080078 C442.462891,412.882812 444.171875,414.673828 448.123047,415.535156 L450.310547,416.013672 C453.044922,416.615234 454.138672,417.708984 454.138672,419.363281 C454.138672,421.304688 452.197266,422.712891 449.517578,422.712891 C447.029297,422.712891 445.087891,421.755859 444.486328,419.71875 C444.294922,419.0625 443.912109,418.748047 443.296875,418.748047 C442.599609,418.748047 442.162109,419.240234 442.162109,420.019531 C442.162109,420.306641 442.216797,420.607422 442.298828,420.880859 C443.037109,423.259766 445.675781,424.927734 449.380859,424.927734 Z M460.482422,424.845703 C461.179688,424.845703 461.671875,424.326172 461.671875,423.574219 L461.671875,405.896484 C461.671875,405.144531 461.179688,404.625 460.482422,404.625 C459.785156,404.625 459.292969,405.144531 459.292969,405.896484 L459.292969,423.574219 C459.292969,424.326172 459.785156,424.845703 460.482422,424.845703 Z M470.777344,424.845703 C474.701172,424.845703 477.353516,422.015625 477.353516,417.490234 C477.353516,412.951172 474.701172,410.134766 470.777344,410.134766 C466.839844,410.134766 464.1875,412.951172 464.1875,417.490234 C464.1875,422.015625 466.839844,424.845703 470.777344,424.845703 Z M470.777344,422.753906 C468.261719,422.753906 466.607422,420.839844 466.607422,417.490234 C466.607422,414.140625 468.261719,412.226562 470.777344,412.226562 C473.292969,412.226562 474.933594,414.140625 474.933594,417.490234 C474.933594,420.839844 473.292969,422.753906 470.777344,422.753906 Z M492.666016,424.845703 C493.404297,424.845703 493.896484,424.462891 494.115234,423.697266 L497.587891,411.775391 C497.65625,411.542969 497.683594,411.337891 497.683594,411.160156 C497.683594,410.53125 497.232422,410.134766 496.521484,410.134766 C495.933594,410.134766 495.619141,410.408203 495.441406,411.105469 L492.638672,421.947266 L492.583984,421.947266 L489.576172,411.1875 C489.384766,410.490234 488.933594,410.134766 488.222656,410.134766 C487.498047,410.134766 487.019531,410.503906 486.828125,411.201172 L483.847656,421.947266 L483.792969,421.947266 L480.990234,411.105469 C480.8125,410.408203 480.498047,410.134766 479.910156,410.134766 C479.199219,410.134766 478.748047,410.53125 478.748047,411.160156 C478.748047,411.337891 478.775391,411.542969 478.84375,411.775391 L482.316406,423.697266 C482.548828,424.490234 483,424.845703 483.751953,424.845703 C484.503906,424.845703 485.023438,424.449219 485.242188,423.697266 L488.181641,413.59375 L488.236328,413.59375 L491.189453,423.697266 C491.421875,424.503906 491.873047,424.845703 492.666016,424.845703 Z M516.646484,424.845703 C517.330078,424.845703 517.808594,424.367188 517.808594,423.683594 L517.808594,405.896484 C517.808594,405.144531 517.316406,404.625 516.619141,404.625 C515.921875,404.625 515.429688,405.144531 515.429688,405.896484 L515.429688,412.691406 L515.375,412.691406 C514.527344,411.132812 512.886719,410.134766 510.849609,410.134766 C507.267578,410.134766 504.820312,413.033203 504.820312,417.490234 C504.820312,421.947266 507.28125,424.845703 510.904297,424.845703 C513.132812,424.845703 514.609375,423.751953 515.388672,422.056641 L515.429688,422.056641 L515.429688,423.683594 C515.429688,424.380859 515.976562,424.845703 516.646484,424.845703 Z M511.355469,422.753906 C508.839844,422.753906 507.253906,420.716797 507.253906,417.490234 C507.253906,414.277344 508.839844,412.226562 511.355469,412.226562 C513.802734,412.226562 515.443359,414.318359 515.443359,417.490234 C515.443359,420.675781 513.802734,422.753906 511.355469,422.753906 Z M526.914062,424.845703 C530.837891,424.845703 533.490234,422.015625 533.490234,417.490234 C533.490234,412.951172 530.837891,410.134766 526.914062,410.134766 C522.976562,410.134766 520.324219,412.951172 520.324219,417.490234 C520.324219,422.015625 522.976562,424.845703 526.914062,424.845703 Z M526.914062,422.753906 C524.398438,422.753906 522.744141,420.839844 522.744141,417.490234 C522.744141,414.140625 524.398438,412.226562 526.914062,412.226562 C529.429688,412.226562 531.070312,414.140625 531.070312,417.490234 C531.070312,420.839844 529.429688,422.753906 526.914062,422.753906 Z M548.802734,424.845703 C549.541016,424.845703 550.033203,424.462891 550.251953,423.697266 L553.724609,411.775391 C553.792969,411.542969 553.820312,411.337891 553.820312,411.160156 C553.820312,410.53125 553.369141,410.134766 552.658203,410.134766 C552.070312,410.134766 551.755859,410.408203 551.578125,411.105469 L548.775391,421.947266 L548.720703,421.947266 L545.712891,411.1875 C545.521484,410.490234 545.070312,410.134766 544.359375,410.134766 C543.634766,410.134766 543.15625,410.503906 542.964844,411.201172 L539.984375,421.947266 L539.929688,421.947266 L537.126953,411.105469 C536.949219,410.408203 536.634766,410.134766 536.046875,410.134766 C535.335938,410.134766 534.884766,410.53125 534.884766,411.160156 C534.884766,411.337891 534.912109,411.542969 534.980469,411.775391 L538.453125,423.697266 C538.685547,424.490234 539.136719,424.845703 539.888672,424.845703 C540.640625,424.845703 541.160156,424.449219 541.378906,423.697266 L544.318359,413.59375 L544.373047,413.59375 L547.326172,423.697266 C547.558594,424.503906 548.009766,424.845703 548.802734,424.845703 Z M566.453125,424.845703 C567.150391,424.845703 567.642578,424.326172 567.642578,423.574219 L567.642578,415.371094 C567.642578,412.144531 565.837891,410.134766 562.720703,410.134766 C560.519531,410.134766 559.001953,411.119141 558.208984,412.650391 L558.154297,412.650391 L558.154297,411.337891 C558.154297,410.626953 557.689453,410.134766 557.033203,410.134766 C556.376953,410.134766 555.912109,410.626953 555.912109,411.337891 L555.912109,423.574219 C555.912109,424.326172 556.404297,424.845703 557.101562,424.845703 C557.798828,424.845703 558.291016,424.326172 558.291016,423.574219 L558.291016,416.232422 C558.291016,413.826172 559.753906,412.240234 561.996094,412.240234 C564.183594,412.240234 565.263672,413.498047 565.263672,415.794922 L565.263672,423.574219 C565.263672,424.326172 565.755859,424.845703 566.453125,424.845703 Z" id="Slowdown" fill="#000000" fill-rule="nonzero"></path>
        <path d="M560.380859,517.527344 C564.796875,517.527344 567.667969,515.244141 567.667969,511.59375 C567.667969,508.804688 566.041016,507.164062 561.925781,506.261719 L559.738281,505.783203 C557.044922,505.195312 555.992188,504.128906 555.992188,502.570312 C555.992188,500.560547 557.892578,499.357422 560.353516,499.357422 C562.486328,499.357422 564.113281,500.232422 564.796875,502.228516 C565.015625,502.857422 565.398438,503.185547 566.027344,503.185547 C566.683594,503.185547 567.148438,502.748047 567.148438,502.078125 C567.148438,501.818359 567.121094,501.613281 567.080078,501.462891 C566.369141,498.796875 563.716797,497.142578 560.421875,497.142578 C556.333984,497.142578 553.462891,499.425781 553.462891,502.679688 C553.462891,505.482422 555.171875,507.273438 559.123047,508.134766 L561.310547,508.613281 C564.044922,509.214844 565.138672,510.308594 565.138672,511.962891 C565.138672,513.904297 563.197266,515.3125 560.517578,515.3125 C558.029297,515.3125 556.087891,514.355469 555.486328,512.318359 C555.294922,511.662109 554.912109,511.347656 554.296875,511.347656 C553.599609,511.347656 553.162109,511.839844 553.162109,512.619141 C553.162109,512.90625 553.216797,513.207031 553.298828,513.480469 C554.037109,515.859375 556.675781,517.527344 560.380859,517.527344 Z M581.052734,517.445312 C581.75,517.445312 582.242188,516.925781 582.242188,516.173828 L582.242188,508.011719 C582.242188,504.839844 580.355469,502.734375 577.238281,502.734375 C575.078125,502.734375 573.519531,503.664062 572.726562,505.25 L572.671875,505.25 L572.671875,498.46875 C572.671875,497.730469 572.207031,497.224609 571.482422,497.224609 C570.771484,497.224609 570.292969,497.730469 570.292969,498.46875 L570.292969,516.173828 C570.292969,516.925781 570.785156,517.445312 571.482422,517.445312 C572.179688,517.445312 572.671875,516.925781 572.671875,516.173828 L572.671875,508.914062 C572.671875,506.453125 574.134766,504.839844 576.5,504.839844 C578.728516,504.839844 579.863281,506.193359 579.863281,508.449219 L579.863281,516.173828 C579.863281,516.925781 580.355469,517.445312 581.052734,517.445312 Z M591.15625,517.445312 C595.080078,517.445312 597.732422,514.615234 597.732422,510.089844 C597.732422,505.550781 595.080078,502.734375 591.15625,502.734375 C587.21875,502.734375 584.566406,505.550781 584.566406,510.089844 C584.566406,514.615234 587.21875,517.445312 591.15625,517.445312 Z M591.15625,515.353516 C588.640625,515.353516 586.986328,513.439453 586.986328,510.089844 C586.986328,506.740234 588.640625,504.826172 591.15625,504.826172 C593.671875,504.826172 595.3125,506.740234 595.3125,510.089844 C595.3125,513.439453 593.671875,515.353516 591.15625,515.353516 Z M613.044922,517.445312 C613.783203,517.445312 614.275391,517.0625 614.494141,516.296875 L617.966797,504.375 C618.035156,504.142578 618.0625,503.9375 618.0625,503.759766 C618.0625,503.130859 617.611328,502.734375 616.900391,502.734375 C616.3125,502.734375 615.998047,503.007812 615.820312,503.705078 L613.017578,514.546875 L612.962891,514.546875 L609.955078,503.787109 C609.763672,503.089844 609.3125,502.734375 608.601562,502.734375 C607.876953,502.734375 607.398438,503.103516 607.207031,503.800781 L604.226562,514.546875 L604.171875,514.546875 L601.369141,503.705078 C601.191406,503.007812 600.876953,502.734375 600.289062,502.734375 C599.578125,502.734375 599.126953,503.130859 599.126953,503.759766 C599.126953,503.9375 599.154297,504.142578 599.222656,504.375 L602.695312,516.296875 C602.927734,517.089844 603.378906,517.445312 604.130859,517.445312 C604.882812,517.445312 605.402344,517.048828 605.621094,516.296875 L608.560547,506.193359 L608.615234,506.193359 L611.568359,516.296875 C611.800781,517.103516 612.251953,517.445312 613.044922,517.445312 Z M631.761719,517.445312 C634.345703,517.445312 636.601562,516.023438 637.285156,514.054688 C637.353516,513.835938 637.394531,513.630859 637.394531,513.453125 C637.394531,512.837891 636.984375,512.414062 636.369141,512.414062 C635.849609,512.414062 635.589844,512.605469 635.248047,513.248047 C634.509766,514.615234 633.470703,515.353516 631.761719,515.353516 C629.314453,515.353516 627.619141,513.357422 627.619141,510.089844 C627.619141,506.904297 629.287109,504.826172 631.761719,504.826172 C633.402344,504.826172 634.482422,505.523438 635.234375,506.931641 C635.5625,507.546875 635.849609,507.765625 636.369141,507.765625 C636.984375,507.765625 637.380859,507.355469 637.380859,506.726562 C637.380859,506.576172 637.353516,506.398438 637.298828,506.220703 C636.751953,504.251953 634.414062,502.734375 631.734375,502.734375 C627.796875,502.734375 625.199219,505.646484 625.199219,510.117188 C625.199219,514.615234 627.824219,517.445312 631.761719,517.445312 Z M650.478516,517.445312 C651.162109,517.445312 651.599609,516.925781 651.599609,516.242188 L651.599609,504.005859 C651.599609,503.253906 651.107422,502.734375 650.410156,502.734375 C649.712891,502.734375 649.220703,503.253906 649.220703,504.005859 L649.220703,511.333984 C649.220703,513.753906 647.826172,515.339844 645.515625,515.339844 C643.314453,515.339844 642.234375,514.095703 642.234375,511.785156 L642.234375,504.005859 C642.234375,503.253906 641.742188,502.734375 641.044922,502.734375 C640.347656,502.734375 639.855469,503.253906 639.855469,504.005859 L639.855469,512.208984 C639.855469,515.435547 641.673828,517.445312 644.777344,517.445312 C646.964844,517.445312 648.441406,516.529297 649.289062,514.888672 L649.34375,514.888672 L649.34375,516.242188 C649.34375,516.925781 649.794922,517.445312 650.478516,517.445312 Z M655.865234,517.445312 C656.5625,517.445312 657.054688,516.925781 657.054688,516.173828 L657.054688,508.367188 C657.054688,506.548828 657.970703,505.003906 660.117188,505.003906 C660.636719,505.003906 661.005859,504.908203 661.251953,504.703125 C661.498047,504.511719 661.621094,504.238281 661.621094,503.869141 C661.621094,503.541016 661.525391,503.267578 661.320312,503.076172 C661.087891,502.857422 660.71875,502.734375 660.199219,502.734375 C658.777344,502.734375 657.382812,503.828125 656.972656,505.304688 L656.917969,505.304688 L656.917969,503.9375 C656.917969,503.226562 656.453125,502.734375 655.796875,502.734375 C655.140625,502.734375 654.675781,503.226562 654.675781,503.9375 L654.675781,516.173828 C654.675781,516.925781 655.167969,517.445312 655.865234,517.445312 Z M664.492188,517.445312 C665.189453,517.445312 665.681641,516.925781 665.681641,516.173828 L665.681641,508.367188 C665.681641,506.548828 666.597656,505.003906 668.744141,505.003906 C669.263672,505.003906 669.632812,504.908203 669.878906,504.703125 C670.125,504.511719 670.248047,504.238281 670.248047,503.869141 C670.248047,503.541016 670.152344,503.267578 669.947266,503.076172 C669.714844,502.857422 669.345703,502.734375 668.826172,502.734375 C667.404297,502.734375 666.009766,503.828125 665.599609,505.304688 L665.544922,505.304688 L665.544922,503.9375 C665.544922,503.226562 665.080078,502.734375 664.423828,502.734375 C663.767578,502.734375 663.302734,503.226562 663.302734,503.9375 L663.302734,516.173828 C663.302734,516.925781 663.794922,517.445312 664.492188,517.445312 Z M677.207031,517.445312 C679.804688,517.445312 681.800781,516.351562 682.716797,514.423828 C682.826172,514.164062 682.894531,513.917969 682.894531,513.726562 C682.894531,513.097656 682.470703,512.6875 681.841797,512.6875 C681.472656,512.6875 681.199219,512.824219 680.953125,513.166016 C679.845703,514.779297 678.806641,515.380859 677.111328,515.380859 C674.568359,515.380859 672.996094,513.603516 672.996094,510.732422 L681.882812,510.732422 C682.703125,510.732422 683.195312,510.212891 683.195312,509.351562 C683.195312,505.455078 680.638672,502.734375 677.001953,502.734375 C673.078125,502.734375 670.548828,505.660156 670.548828,510.144531 C670.548828,514.738281 673.009766,517.445312 677.207031,517.445312 Z M680.734375,508.873047 L673.009766,508.873047 C673.160156,506.425781 674.746094,504.798828 676.960938,504.798828 C679.162109,504.798828 680.679688,506.412109 680.734375,508.873047 Z M696.128906,517.445312 C696.826172,517.445312 697.318359,516.925781 697.318359,516.173828 L697.318359,507.970703 C697.318359,504.744141 695.513672,502.734375 692.396484,502.734375 C690.195312,502.734375 688.677734,503.71875 687.884766,505.25 L687.830078,505.25 L687.830078,503.9375 C687.830078,503.226562 687.365234,502.734375 686.708984,502.734375 C686.052734,502.734375 685.587891,503.226562 685.587891,503.9375 L685.587891,516.173828 C685.587891,516.925781 686.080078,517.445312 686.777344,517.445312 C687.474609,517.445312 687.966797,516.925781 687.966797,516.173828 L687.966797,508.832031 C687.966797,506.425781 689.429688,504.839844 691.671875,504.839844 C693.859375,504.839844 694.939453,506.097656 694.939453,508.394531 L694.939453,516.173828 C694.939453,516.925781 695.431641,517.445312 696.128906,517.445312 Z M704.701172,517.308594 C706.027344,517.308594 706.4375,516.925781 706.4375,516.201172 C706.4375,515.640625 706.082031,515.326172 705.302734,515.271484 L705.097656,515.257812 C703.908203,515.175781 703.484375,514.601562 703.484375,513.398438 L703.484375,504.935547 L705.316406,504.935547 C706,504.935547 706.382812,504.580078 706.382812,503.951172 C706.382812,503.335938 706,502.980469 705.316406,502.980469 L703.484375,502.980469 L703.484375,500.546875 C703.484375,499.794922 702.992188,499.275391 702.294922,499.275391 C701.597656,499.275391 701.105469,499.794922 701.105469,500.546875 L701.105469,502.980469 L699.916016,502.980469 C699.232422,502.980469 698.849609,503.335938 698.849609,503.951172 C698.849609,504.580078 699.232422,504.935547 699.916016,504.935547 L701.105469,504.935547 L701.105469,513.917969 C701.105469,516.1875 702.253906,517.308594 704.550781,517.308594 L704.701172,517.308594 Z M719.453125,517.445312 C722.830078,517.445312 725.113281,515.736328 725.113281,513.193359 C725.113281,511.101562 724.019531,510.0625 721.052734,509.337891 L718.933594,508.818359 C717.375,508.435547 716.609375,507.751953 716.609375,506.767578 C716.609375,505.550781 717.798828,504.689453 719.507812,504.689453 C720.957031,504.689453 721.873047,505.208984 722.488281,506.398438 C722.748047,506.890625 723.076172,507.041016 723.541016,507.041016 C724.115234,507.041016 724.470703,506.671875 724.470703,506.111328 C724.470703,506.001953 724.457031,505.892578 724.429688,505.755859 C724.060547,504.046875 721.982422,502.734375 719.644531,502.734375 C716.431641,502.734375 714.257812,504.416016 714.257812,506.890625 C714.257812,508.886719 715.583984,510.185547 718.332031,510.869141 L720.505859,511.416016 C722.105469,511.8125 722.693359,512.359375 722.693359,513.384766 C722.693359,514.710938 721.462891,515.503906 719.644531,515.503906 C717.826172,515.503906 716.978516,514.943359 716.267578,513.699219 C715.994141,513.207031 715.652344,512.988281 715.228516,512.988281 C714.613281,512.988281 714.148438,513.34375 714.148438,513.972656 C714.148438,514.150391 714.175781,514.328125 714.257812,514.533203 C714.941406,516.310547 716.923828,517.445312 719.453125,517.445312 Z M728.736328,522.216797 C729.433594,522.216797 729.925781,521.697266 729.925781,520.945312 L729.925781,514.888672 L729.980469,514.888672 C730.828125,516.447266 732.46875,517.445312 734.505859,517.445312 C738.087891,517.445312 740.535156,514.546875 740.535156,510.089844 C740.535156,505.632812 738.074219,502.734375 734.451172,502.734375 C732.386719,502.734375 730.732422,503.787109 729.857422,505.386719 L729.802734,505.386719 L729.802734,503.9375 C729.802734,503.226562 729.337891,502.734375 728.681641,502.734375 C728.011719,502.734375 727.546875,503.226562 727.546875,503.9375 L727.546875,520.945312 C727.546875,521.697266 728.039062,522.216797 728.736328,522.216797 Z M733.986328,515.353516 C731.552734,515.353516 729.912109,513.261719 729.912109,510.089844 C729.912109,506.931641 731.552734,504.826172 733.986328,504.826172 C736.515625,504.826172 738.101562,506.876953 738.101562,510.089844 C738.101562,513.316406 736.515625,515.353516 733.986328,515.353516 Z M748.888672,517.445312 C751.486328,517.445312 753.482422,516.351562 754.398438,514.423828 C754.507812,514.164062 754.576172,513.917969 754.576172,513.726562 C754.576172,513.097656 754.152344,512.6875 753.523438,512.6875 C753.154297,512.6875 752.880859,512.824219 752.634766,513.166016 C751.527344,514.779297 750.488281,515.380859 748.792969,515.380859 C746.25,515.380859 744.677734,513.603516 744.677734,510.732422 L753.564453,510.732422 C754.384766,510.732422 754.876953,510.212891 754.876953,509.351562 C754.876953,505.455078 752.320312,502.734375 748.683594,502.734375 C744.759766,502.734375 742.230469,505.660156 742.230469,510.144531 C742.230469,514.738281 744.691406,517.445312 748.888672,517.445312 Z M752.416016,508.873047 L744.691406,508.873047 C744.841797,506.425781 746.427734,504.798828 748.642578,504.798828 C750.84375,504.798828 752.361328,506.412109 752.416016,508.873047 Z M763.230469,517.445312 C765.828125,517.445312 767.824219,516.351562 768.740234,514.423828 C768.849609,514.164062 768.917969,513.917969 768.917969,513.726562 C768.917969,513.097656 768.494141,512.6875 767.865234,512.6875 C767.496094,512.6875 767.222656,512.824219 766.976562,513.166016 C765.869141,514.779297 764.830078,515.380859 763.134766,515.380859 C760.591797,515.380859 759.019531,513.603516 759.019531,510.732422 L767.90625,510.732422 C768.726562,510.732422 769.21875,510.212891 769.21875,509.351562 C769.21875,505.455078 766.662109,502.734375 763.025391,502.734375 C759.101562,502.734375 756.572266,505.660156 756.572266,510.144531 C756.572266,514.738281 759.033203,517.445312 763.230469,517.445312 Z M766.757812,508.873047 L759.033203,508.873047 C759.183594,506.425781 760.769531,504.798828 762.984375,504.798828 C765.185547,504.798828 766.703125,506.412109 766.757812,508.873047 Z M782.740234,517.445312 C783.423828,517.445312 783.902344,516.966797 783.902344,516.283203 L783.902344,498.496094 C783.902344,497.744141 783.410156,497.224609 782.712891,497.224609 C782.015625,497.224609 781.523438,497.744141 781.523438,498.496094 L781.523438,505.291016 L781.46875,505.291016 C780.621094,503.732422 778.980469,502.734375 776.943359,502.734375 C773.361328,502.734375 770.914062,505.632812 770.914062,510.089844 C770.914062,514.546875 773.375,517.445312 776.998047,517.445312 C779.226562,517.445312 780.703125,516.351562 781.482422,514.65625 L781.523438,514.65625 L781.523438,516.283203 C781.523438,516.980469 782.070312,517.445312 782.740234,517.445312 Z M777.449219,515.353516 C774.933594,515.353516 773.347656,513.316406 773.347656,510.089844 C773.347656,506.876953 774.933594,504.826172 777.449219,504.826172 C779.896484,504.826172 781.537109,506.917969 781.537109,510.089844 C781.537109,513.275391 779.896484,515.353516 777.449219,515.353516 Z" id="Showcurrentspeed" fill="#000000" fill-rule="nonzero"></path>
        <path d="M497.044922,60.8007812 C502.910156,60.8007812 506.355469,57.1503906 506.355469,50.9296875 C506.355469,44.7226562 502.896484,41.0722656 497.044922,41.0722656 L491.644531,41.0722656 C490.892578,41.0722656 490.414062,41.5644531 490.414062,42.34375 L490.414062,59.5292969 C490.414062,60.3085938 490.892578,60.8007812 491.644531,60.8007812 L497.044922,60.8007812 Z M496.880859,58.5859375 L492.875,58.5859375 L492.875,43.2871094 L496.880859,43.2871094 C501.365234,43.2871094 503.839844,46.0214844 503.839844,50.9570312 C503.839844,55.8515625 501.351562,58.5859375 496.880859,58.5859375 Z M514.996094,61.046875 C517.59375,61.046875 519.589844,59.953125 520.505859,58.0253906 C520.615234,57.765625 520.683594,57.5195312 520.683594,57.328125 C520.683594,56.6992188 520.259766,56.2890625 519.630859,56.2890625 C519.261719,56.2890625 518.988281,56.4257812 518.742188,56.7675781 C517.634766,58.3808594 516.595703,58.9824219 514.900391,58.9824219 C512.357422,58.9824219 510.785156,57.2050781 510.785156,54.3339844 L519.671875,54.3339844 C520.492188,54.3339844 520.984375,53.8144531 520.984375,52.953125 C520.984375,49.0566406 518.427734,46.3359375 514.791016,46.3359375 C510.867188,46.3359375 508.337891,49.2617188 508.337891,53.7460938 C508.337891,58.3398438 510.798828,61.046875 514.996094,61.046875 Z M518.523438,52.4746094 L510.798828,52.4746094 C510.949219,50.0273438 512.535156,48.4003906 514.75,48.4003906 C516.951172,48.4003906 518.46875,50.0136719 518.523438,52.4746094 Z M525.332031,61.046875 C526.056641,61.046875 526.521484,60.5546875 526.521484,59.7890625 L526.521484,48.5371094 L528.613281,48.5371094 C529.228516,48.5371094 529.625,48.1816406 529.625,47.5664062 C529.625,46.9785156 529.228516,46.5820312 528.613281,46.5820312 L526.507812,46.5820312 L526.507812,45.078125 C526.507812,43.6152344 527.054688,42.9863281 528.3125,42.9863281 C528.613281,42.9863281 528.845703,42.9589844 529.050781,42.9042969 C529.488281,42.78125 529.693359,42.5078125 529.693359,42.0703125 C529.693359,41.3730469 529.023438,40.9628906 527.765625,40.9628906 C525.441406,40.9628906 524.142578,42.2753906 524.142578,44.9960938 L524.142578,46.5820312 L522.966797,46.5820312 C522.351562,46.5820312 521.955078,46.9785156 521.955078,47.5664062 C521.955078,48.1816406 522.351562,48.5371094 522.966797,48.5371094 L524.142578,48.5371094 L524.142578,59.7890625 C524.142578,60.5546875 524.607422,61.046875 525.332031,61.046875 Z M540.972656,61.046875 C541.628906,61.046875 542.09375,60.5546875 542.09375,59.84375 L542.09375,50.9707031 C542.09375,48.140625 539.988281,46.3359375 536.652344,46.3359375 C534.341797,46.3359375 532.263672,47.3613281 531.457031,48.9199219 C531.265625,49.2617188 531.169922,49.6035156 531.169922,49.9042969 C531.169922,50.546875 531.607422,50.9707031 532.222656,50.9707031 C532.673828,50.9707031 532.988281,50.7929688 533.207031,50.3964844 C534,48.9882812 535.052734,48.4277344 536.597656,48.4277344 C538.566406,48.4277344 539.714844,49.4667969 539.714844,51.203125 L539.714844,52.3925781 L535.626953,52.625 C532.345703,52.8164062 530.472656,54.3476562 530.472656,56.78125 C530.472656,59.3378906 532.373047,61.046875 535.203125,61.046875 C537.117188,61.046875 538.935547,59.9804688 539.783203,58.3535156 L539.837891,58.3535156 L539.837891,59.84375 C539.837891,60.5546875 540.302734,61.046875 540.972656,61.046875 Z M535.736328,59.0234375 C534.027344,59.0234375 532.892578,58.1347656 532.892578,56.78125 C532.892578,55.4414062 533.986328,54.59375 535.900391,54.4707031 L539.714844,54.2382812 L539.714844,55.4003906 C539.714844,57.4511719 537.978516,59.0234375 535.736328,59.0234375 Z M555.669922,61.046875 C556.353516,61.046875 556.791016,60.5273438 556.791016,59.84375 L556.791016,47.6074219 C556.791016,46.8554688 556.298828,46.3359375 555.601562,46.3359375 C554.904297,46.3359375 554.412109,46.8554688 554.412109,47.6074219 L554.412109,54.9355469 C554.412109,57.3554688 553.017578,58.9414062 550.707031,58.9414062 C548.505859,58.9414062 547.425781,57.6972656 547.425781,55.3867188 L547.425781,47.6074219 C547.425781,46.8554688 546.933594,46.3359375 546.236328,46.3359375 C545.539062,46.3359375 545.046875,46.8554688 545.046875,47.6074219 L545.046875,55.8105469 C545.046875,59.0371094 546.865234,61.046875 549.96875,61.046875 C552.15625,61.046875 553.632812,60.1308594 554.480469,58.4902344 L554.535156,58.4902344 L554.535156,59.84375 C554.535156,60.5273438 554.986328,61.046875 555.669922,61.046875 Z M561.179688,61.046875 C561.876953,61.046875 562.369141,60.5273438 562.369141,59.7753906 L562.369141,42.0976562 C562.369141,41.3457031 561.876953,40.8261719 561.179688,40.8261719 C560.482422,40.8261719 559.990234,41.3457031 559.990234,42.0976562 L559.990234,59.7753906 C559.990234,60.5273438 560.482422,61.046875 561.179688,61.046875 Z M569.943359,60.9101562 C571.269531,60.9101562 571.679688,60.5273438 571.679688,59.8027344 C571.679688,59.2421875 571.324219,58.9277344 570.544922,58.8730469 L570.339844,58.859375 C569.150391,58.7773438 568.726562,58.203125 568.726562,57 L568.726562,48.5371094 L570.558594,48.5371094 C571.242188,48.5371094 571.625,48.1816406 571.625,47.5527344 C571.625,46.9375 571.242188,46.5820312 570.558594,46.5820312 L568.726562,46.5820312 L568.726562,44.1484375 C568.726562,43.3964844 568.234375,42.8769531 567.537109,42.8769531 C566.839844,42.8769531 566.347656,43.3964844 566.347656,44.1484375 L566.347656,46.5820312 L565.158203,46.5820312 C564.474609,46.5820312 564.091797,46.9375 564.091797,47.5527344 C564.091797,48.1816406 564.474609,48.5371094 565.158203,48.5371094 L566.347656,48.5371094 L566.347656,57.5195312 C566.347656,59.7890625 567.496094,60.9101562 569.792969,60.9101562 L569.943359,60.9101562 Z M584.695312,61.046875 C588.072266,61.046875 590.355469,59.3378906 590.355469,56.7949219 C590.355469,54.703125 589.261719,53.6640625 586.294922,52.9394531 L584.175781,52.4199219 C582.617188,52.0371094 581.851562,51.3535156 581.851562,50.3691406 C581.851562,49.1523438 583.041016,48.2910156 584.75,48.2910156 C586.199219,48.2910156 587.115234,48.8105469 587.730469,50 C587.990234,50.4921875 588.318359,50.6425781 588.783203,50.6425781 C589.357422,50.6425781 589.712891,50.2734375 589.712891,49.7128906 C589.712891,49.6035156 589.699219,49.4941406 589.671875,49.3574219 C589.302734,47.6484375 587.224609,46.3359375 584.886719,46.3359375 C581.673828,46.3359375 579.5,48.0175781 579.5,50.4921875 C579.5,52.4882812 580.826172,53.7871094 583.574219,54.4707031 L585.748047,55.0175781 C587.347656,55.4140625 587.935547,55.9609375 587.935547,56.9863281 C587.935547,58.3125 586.705078,59.1054688 584.886719,59.1054688 C583.068359,59.1054688 582.220703,58.5449219 581.509766,57.3007812 C581.236328,56.8085938 580.894531,56.5898438 580.470703,56.5898438 C579.855469,56.5898438 579.390625,56.9453125 579.390625,57.5742188 C579.390625,57.7519531 579.417969,57.9296875 579.5,58.1347656 C580.183594,59.9121094 582.166016,61.046875 584.695312,61.046875 Z M593.978516,65.8183594 C594.675781,65.8183594 595.167969,65.2988281 595.167969,64.546875 L595.167969,58.4902344 L595.222656,58.4902344 C596.070312,60.0488281 597.710938,61.046875 599.748047,61.046875 C603.330078,61.046875 605.777344,58.1484375 605.777344,53.6914062 C605.777344,49.234375 603.316406,46.3359375 599.693359,46.3359375 C597.628906,46.3359375 595.974609,47.3886719 595.099609,48.9882812 L595.044922,48.9882812 L595.044922,47.5390625 C595.044922,46.828125 594.580078,46.3359375 593.923828,46.3359375 C593.253906,46.3359375 592.789062,46.828125 592.789062,47.5390625 L592.789062,64.546875 C592.789062,65.2988281 593.28125,65.8183594 593.978516,65.8183594 Z M599.228516,58.9550781 C596.794922,58.9550781 595.154297,56.8632812 595.154297,53.6914062 C595.154297,50.5332031 596.794922,48.4277344 599.228516,48.4277344 C601.757812,48.4277344 603.34375,50.4785156 603.34375,53.6914062 C603.34375,56.9179688 601.757812,58.9550781 599.228516,58.9550781 Z M614.130859,61.046875 C616.728516,61.046875 618.724609,59.953125 619.640625,58.0253906 C619.75,57.765625 619.818359,57.5195312 619.818359,57.328125 C619.818359,56.6992188 619.394531,56.2890625 618.765625,56.2890625 C618.396484,56.2890625 618.123047,56.4257812 617.876953,56.7675781 C616.769531,58.3808594 615.730469,58.9824219 614.035156,58.9824219 C611.492188,58.9824219 609.919922,57.2050781 609.919922,54.3339844 L618.806641,54.3339844 C619.626953,54.3339844 620.119141,53.8144531 620.119141,52.953125 C620.119141,49.0566406 617.5625,46.3359375 613.925781,46.3359375 C610.001953,46.3359375 607.472656,49.2617188 607.472656,53.7460938 C607.472656,58.3398438 609.933594,61.046875 614.130859,61.046875 Z M617.658203,52.4746094 L609.933594,52.4746094 C610.083984,50.0273438 611.669922,48.4003906 613.884766,48.4003906 C616.085938,48.4003906 617.603516,50.0136719 617.658203,52.4746094 Z M628.472656,61.046875 C631.070312,61.046875 633.066406,59.953125 633.982422,58.0253906 C634.091797,57.765625 634.160156,57.5195312 634.160156,57.328125 C634.160156,56.6992188 633.736328,56.2890625 633.107422,56.2890625 C632.738281,56.2890625 632.464844,56.4257812 632.21875,56.7675781 C631.111328,58.3808594 630.072266,58.9824219 628.376953,58.9824219 C625.833984,58.9824219 624.261719,57.2050781 624.261719,54.3339844 L633.148438,54.3339844 C633.96875,54.3339844 634.460938,53.8144531 634.460938,52.953125 C634.460938,49.0566406 631.904297,46.3359375 628.267578,46.3359375 C624.34375,46.3359375 621.814453,49.2617188 621.814453,53.7460938 C621.814453,58.3398438 624.275391,61.046875 628.472656,61.046875 Z M632,52.4746094 L624.275391,52.4746094 C624.425781,50.0273438 626.011719,48.4003906 628.226562,48.4003906 C630.427734,48.4003906 631.945312,50.0136719 632,52.4746094 Z M647.982422,61.046875 C648.666016,61.046875 649.144531,60.5683594 649.144531,59.8847656 L649.144531,42.0976562 C649.144531,41.3457031 648.652344,40.8261719 647.955078,40.8261719 C647.257812,40.8261719 646.765625,41.3457031 646.765625,42.0976562 L646.765625,48.8925781 L646.710938,48.8925781 C645.863281,47.3339844 644.222656,46.3359375 642.185547,46.3359375 C638.603516,46.3359375 636.15625,49.234375 636.15625,53.6914062 C636.15625,58.1484375 638.617188,61.046875 642.240234,61.046875 C644.46875,61.046875 645.945312,59.953125 646.724609,58.2578125 L646.765625,58.2578125 L646.765625,59.8847656 C646.765625,60.5820312 647.3125,61.046875 647.982422,61.046875 Z M642.691406,58.9550781 C640.175781,58.9550781 638.589844,56.9179688 638.589844,53.6914062 C638.589844,50.4785156 640.175781,48.4277344 642.691406,48.4277344 C645.138672,48.4277344 646.779297,50.5195312 646.779297,53.6914062 C646.779297,56.8769531 645.138672,58.9550781 642.691406,58.9550781 Z" id="Defaultspeed" fill="#000000" fill-rule="nonzero"></path>
        <path id="Line" d="M178.5,347.5 L178.768672,363.15017 L173.356,360.559 L156.901972,394.931795 L156.470177,395.833767 L154.666233,394.970177 L155.098028,394.068205 L171.552,359.696 L166.141068,357.10504 L178.5,347.5 Z" fill="#000000" fill-rule="nonzero"></path>
        <path id="Line" d="M344.75,347.5 L351.75,361.5 L345.75,361.5 L345.75,395.5 L343.75,395.5 L343.75,361.5 L337.75,361.5 L344.75,347.5 Z" fill="#000000" fill-rule="nonzero"></path>
        <path id="Line" d="M488.5,347.5 L498.134937,359.835639 L492.253,361.024 L498.980178,394.301879 L499.178299,395.282057 L497.217943,395.678299 L497.019822,394.698121 L490.293,361.42 L484.412451,362.609333 L488.5,347.5 Z" fill="#000000" fill-rule="nonzero"></path>
    </g>
</svg>