<?xml version="1.0" encoding="UTF-8"?>
<svg width="281px" height="281px" viewBox="0 0 281 281" version="1.1" xmlns="http://www.w3.org/2000/svg" xmlns:xlink="http://www.w3.org/1999/xlink">
    <!-- Generator: Sketch 43 (38999) - http://www.bohemiancoding.com/sketch -->
    <title>Group 3</title>
    <desc>Created with Sketch.</desc>
    <defs></defs>
    <g id="Page-1" stroke="none" stroke-width="1" fill="none" fill-rule="evenodd">
        <g id="Group-3">
            <circle id="Oval-2" fill="#EB6959" cx="140.5" cy="140.5" r="140.5"></circle>
            <g id="Group-4" transform="translate(46.000000, 70.000000)" fill="#FFFFFF">
                <g id="Group" transform="translate(0.000000, 32.000000)">
                    <rect id="Rectangle-8" transform="translate(33.177528, 24.468081) rotate(-32.000000) translate(-33.177528, -24.468081) " x="-1.42792437" y="17.239735" width="69.2109052" height="14.4566929" rx="7.22834646"></rect>
                    <rect id="Rectangle-8" transform="translate(33.177528, 53.468081) scale(1, -1) rotate(-32.000000) translate(-33.177528, -53.468081) " x="-1.42792437" y="46.239735" width="69.2109052" height="14.4566929" rx="7.22834646"></rect>
                </g>
                <rect id="Rectangle-8" transform="translate(96.032289, 69.582163) rotate(-70.000000) translate(-96.032289, -69.582163) " x="24.5322886" y="62.5821634" width="143" height="14" rx="7"></rect>
                <g id="Group" transform="translate(156.500000, 71.000000) scale(-1, 1) translate(-156.500000, -71.000000) translate(123.000000, 32.000000)">
                    <rect id="Rectangle-8" transform="translate(33.177528, 24.468081) rotate(-32.000000) translate(-33.177528, -24.468081) " x="-1.42792437" y="17.239735" width="69.2109052" height="14.4566929" rx="7.22834646"></rect>
                    <rect id="Rectangle-8" transform="translate(33.177528, 53.468081) scale(1, -1) rotate(-32.000000) translate(-33.177528, -53.468081) " x="-1.42792437" y="46.239735" width="69.2109052" height="14.4566929" rx="7.22834646"></rect>
                </g>
            </g>
        </g>
    </g>
</svg>