<?xml version="1.0" encoding="UTF-8"?>
<svg width="281px" height="281px" viewBox="0 0 281 281" version="1.1" xmlns="http://www.w3.org/2000/svg" xmlns:xlink="http://www.w3.org/1999/xlink">
    <!-- Generator: Sketch 43 (38999) - http://www.bohemiancoding.com/sketch -->
    <title>design</title>
    <desc>Created with Sketch.</desc>
    <defs></defs>
    <g id="Page-1" stroke="none" stroke-width="1" fill="none" fill-rule="evenodd">
        <g id="design">
            <circle id="Oval-2" fill="#3D9F80" cx="140.5" cy="140.5" r="140.5"></circle>
            <g id="Ruler" transform="translate(141.000000, 140.500000) rotate(-315.000000) translate(-141.000000, -140.500000) translate(46.000000, 117.000000)">
                <rect id="Rectangle-13" fill="#C9AD84" x="-4.54747351e-13" y="0" width="190" height="47"></rect>
                <g id="Group-5" transform="translate(10.000000, 0.000000)" fill="#6B4D1F">
                    <path d="M0,0 L3,0 L3,20.5051468 C3,21.3307314 2.33420277,22 1.5,22 L1.5,22 C0.671572875,22 0,21.3295713 0,20.5051468 L0,0 Z" id="Rectangle-14"></path>
                    <path d="M13,0 L16,0 L16,10.3519019 C16,11.1809941 15.3342028,11.853106 14.5,11.853106 L14.5,11.853106 C13.6715729,11.853106 13,11.1818701 13,10.3519019 L13,0 Z" id="Rectangle-14"></path>
                    <path d="M26,0 L29,0 L29,10.3519019 C29,11.1809941 28.3342028,11.853106 27.5,11.853106 L27.5,11.853106 C26.6715729,11.853106 26,11.1818701 26,10.3519019 L26,0 Z" id="Rectangle-14"></path>
                </g>
                <g id="Group-5" transform="translate(49.000000, 0.000000)" fill="#6B4D1F">
                    <path d="M0,0 L3,0 L3,20.5051468 C3,21.3307314 2.33420277,22 1.5,22 L1.5,22 C0.671572875,22 0,21.3295713 0,20.5051468 L0,0 Z" id="Rectangle-14"></path>
                    <path d="M13,0 L16,0 L16,10.3519019 C16,11.1809941 15.3342028,11.853106 14.5,11.853106 L14.5,11.853106 C13.6715729,11.853106 13,11.1818701 13,10.3519019 L13,0 Z" id="Rectangle-14"></path>
                    <path d="M26,0 L29,0 L29,10.3519019 C29,11.1809941 28.3342028,11.853106 27.5,11.853106 L27.5,11.853106 C26.6715729,11.853106 26,11.1818701 26,10.3519019 L26,0 Z" id="Rectangle-14"></path>
                </g>
                <g id="Group-5" transform="translate(88.000000, 0.000000)" fill="#6B4D1F">
                    <path d="M0,0 L3,0 L3,20.5051468 C3,21.3307314 2.33420277,22 1.5,22 L1.5,22 C0.671572875,22 0,21.3295713 0,20.5051468 L0,0 Z" id="Rectangle-14"></path>
                    <path d="M13,0 L16,0 L16,10.3519019 C16,11.1809941 15.3342028,11.853106 14.5,11.853106 L14.5,11.853106 C13.6715729,11.853106 13,11.1818701 13,10.3519019 L13,0 Z" id="Rectangle-14"></path>
                    <path d="M26,0 L29,0 L29,10.3519019 C29,11.1809941 28.3342028,11.853106 27.5,11.853106 L27.5,11.853106 C26.6715729,11.853106 26,11.1818701 26,10.3519019 L26,0 Z" id="Rectangle-14"></path>
                </g>
                <g id="Group-5" transform="translate(127.000000, 0.000000)" fill="#6B4D1F">
                    <path d="M0,0 L3,0 L3,20.5051468 C3,21.3307314 2.33420277,22 1.5,22 L1.5,22 C0.671572875,22 0,21.3295713 0,20.5051468 L0,0 Z" id="Rectangle-14"></path>
                    <path d="M13,0 L16,0 L16,10.3519019 C16,11.1809941 15.3342028,11.853106 14.5,11.853106 L14.5,11.853106 C13.6715729,11.853106 13,11.1818701 13,10.3519019 L13,0 Z" id="Rectangle-14"></path>
                    <path d="M26,0 L29,0 L29,10.3519019 C29,11.1809941 28.3342028,11.853106 27.5,11.853106 L27.5,11.853106 C26.6715729,11.853106 26,11.1818701 26,10.3519019 L26,0 Z" id="Rectangle-14"></path>
                </g>
                <g id="Group-5" transform="translate(166.000000, -0.000000)" fill="#6B4D1F">
                    <path d="M0,0 L3,0 L3,20.5051468 C3,21.3307314 2.33420277,22 1.5,22 L1.5,22 C0.671572875,22 0,21.3295713 0,20.5051468 L0,0 Z" id="Rectangle-14"></path>
                    <path d="M13,0 L16,0 L16,10.3519019 C16,11.1809941 15.3342028,11.853106 14.5,11.853106 L14.5,11.853106 C13.6715729,11.853106 13,11.1818701 13,10.3519019 L13,0 Z" id="Rectangle-14"></path>
                </g>
            </g>
            <g id="Pencil" transform="translate(140.802561, 140.802561) rotate(-315.000000) translate(-140.802561, -140.802561) translate(117.302561, 37.302561)">
                <polygon id="Triangle" fill="#E3C79D" points="23 207 0.126117302 168.138582 23 143.695545 46.222247 168.138582"></polygon>
                <polygon id="Triangle" fill="#2C2C2C" points="23 207 11.4045395 188 34.3851501 188"></polygon>
                <path d="M-4.54747351e-13,37 L46,37 L46,168 C46,168 34.5,163.106121 23,163.106121 C11.5,163.106121 -4.54747351e-13,168 -4.54747351e-13,168 L-4.54747351e-13,37 Z" id="Rectangle-12" fill="#FFE448"></path>
                <rect id="Rectangle-10" fill="#9B9B9B" x="-4.8316906e-13" y="30" width="46" height="7"></rect>
                <path d="M-6.82121026e-13,14.9903277 C-6.82121026e-13,7.26368307 6.27562724,1 14.0045143,1 L31.9954857,1 C39.7299654,1 46,7.27470806 46,14.9903277 L46,30 L-6.82121026e-13,30 L-6.82121026e-13,14.9903277 Z" id="Rectangle-11" fill="#E94E4D"></path>
            </g>
        </g>
    </g>
</svg>