<?xml version="1.0" encoding="UTF-8"?>
<svg width="199px" height="199px" viewBox="0 0 199 199" version="1.1" xmlns="http://www.w3.org/2000/svg" xmlns:xlink="http://www.w3.org/1999/xlink">
    <!-- Generator: Sketch 43 (38999) - http://www.bohemiancoding.com/sketch -->
    <title>code</title>
    <desc>Created with Sketch.</desc>
    <defs></defs>
    <g id="Welcome" stroke="none" stroke-width="1" fill="none" fill-rule="evenodd">
        <g id="code" transform="translate(1.000000, 1.000000)" stroke="#7FAAC8" stroke-width="2">
            <circle id="Oval-2" cx="98.5" cy="98.5" r="98.5"></circle>
            <g transform="translate(33.000000, 48.000000)">
                <g id="Group" transform="translate(109.000000, 49.400000) scale(-1, 1) translate(-109.000000, -49.400000) translate(87.000000, 23.400000)">
                    <path d="M2.24615784,27.906241 C2.01700764,27.3907603 1.9013475,26.8377624 1.90194145,26.2787194 C1.9013475,25.7175516 2.01700764,25.1645537 2.24615784,24.649073 C2.34932575,24.4152348 2.47279847,24.1939421 2.61630808,23.9856093 C3.00256857,23.4126816 3.51235029,22.9630093 4.10830843,22.6563953 L36.3352003,2.52289038 C38.2295917,1.33914324 40.7264855,1.91219348 41.9034727,3.79576669 L41.9348941,3.84605147 C43.1148348,5.73435128 42.5366658,8.22234189 40.6379778,9.40877382 L14.9992822,25.4296089 L13.6421216,26.277657 L14.9992822,27.1257051 L40.6379778,43.1465402 C42.5366658,44.3329721 43.1148348,46.8209627 41.9348941,48.7092625 L41.9034727,48.7595473 C40.7264855,50.6431205 38.2295917,51.2161708 36.3352003,50.0324236 L4.18073667,29.9400848 C3.51235029,29.5923047 3.00256857,29.1426323 2.62198692,28.5780383 C2.47279847,28.3613719 2.34932575,28.1400792 2.24729592,27.9088109 L2.24615784,27.906241 Z" id="Combined-Shape"></path>
                </g>
                <rect id="Rectangle-8" transform="translate(66.222602, 48.707514) rotate(-70.000000) translate(-66.222602, -48.707514) " x="17.172602" y="44.8075144" width="98.1" height="7.8" rx="3.9"></rect>
                <path d="M2.24615784,51.306241 C2.01700764,50.7907603 1.9013475,50.2377624 1.90194145,49.6787194 C1.9013475,49.1175516 2.01700764,48.5645537 2.24615784,48.049073 C2.34932575,47.8152348 2.47279847,47.5939421 2.61630808,47.3856093 C3.00256857,46.8126816 3.51235029,46.3630093 4.10830843,46.0563953 L36.3352003,25.9228904 C38.2295917,24.7391432 40.7264855,25.3121935 41.9034727,27.1957667 L41.9348941,27.2460515 C43.1148348,29.1343513 42.5366658,31.6223419 40.6379778,32.8087738 L14.9992822,48.8296089 L13.6421216,49.677657 L14.9992822,50.5257051 L40.6379778,66.5465402 C42.5366658,67.7329721 43.1148348,70.2209627 41.9348941,72.1092625 L41.9034727,72.1595473 C40.7264855,74.0431205 38.2295917,74.6161708 36.3352003,73.4324236 L4.18073667,53.3400848 C3.51235029,52.9923047 3.00256857,52.5426323 2.62198692,51.9780383 C2.47279847,51.7613719 2.34932575,51.5400792 2.24729592,51.3088109 L2.24615784,51.306241 Z" id="Combined-Shape"></path>
            </g>
        </g>
    </g>
</svg>
