<?xml version="1.0" encoding="UTF-8"?>
<svg width="138px" height="138px" viewBox="0 0 138 138" version="1.1" xmlns="http://www.w3.org/2000/svg" xmlns:xlink="http://www.w3.org/1999/xlink">
    <!-- Generator: Sketch 47.1 (45422) - http://www.bohemiancoding.com/sketch -->
    <title>code</title>
    <desc>Created with Sketch.</desc>
    <defs></defs>
    <g id="Page-1" stroke="none" stroke-width="1" fill="none" fill-rule="evenodd">
        <g id="Desktop-HD" transform="translate(-595.000000, -1318.000000)">
            <g id="experience" transform="translate(98.000000, 1144.000000)">
                <g id="Group-7" transform="translate(0.000000, 91.000000)">
                    <g id="Group-4" transform="translate(71.000000, 83.000000)">
                        <g id="Group-2" transform="translate(416.000000, 0.000000)">
                            <g id="code" transform="translate(10.000000, 0.000000)">
                                <circle id="Oval-2" fill="#EFF0F4" cx="69" cy="69" r="69"></circle>
                                <g transform="translate(21.000000, 35.000000)" fill="#1B1B1B">
                                    <rect id="Rectangle-8" transform="translate(47.100097, 34.495619) rotate(-70.000000) translate(-47.100097, -34.495619) " x="12.0396908" y="31.0631319" width="70.1208122" height="6.86497462" rx="3.43248731"></rect>
                                    <g id="Group-11" transform="translate(0.000000, 15.000000)">
                                        <rect id="Rectangle-3" transform="translate(17.274835, 27.318785) scale(-1, 1) rotate(-33.000000) translate(-17.274835, -27.318785) " x="0.212360371" y="23.7108184" width="34.1249491" height="7.21593413" rx="3.60796706"></rect>
                                        <rect id="Rectangle-3" transform="translate(17.216652, 12.563682) rotate(-33.000000) translate(-17.216652, -12.563682) " x="0.154177139" y="8.9557148" width="34.1249491" height="7.21593413" rx="3.60796706"></rect>
                                    </g>
                                    <g id="Group-10" transform="translate(62.000000, 17.000000)">
                                        <path d="M28.1412294,30.238195 L5.57343057,15.5824951 C3.90227447,14.4972336 1.66775654,14.9721951 0.58249508,16.6433512 C-0.502766379,18.3145073 -0.0278049305,20.5490252 1.64335117,21.6342867 L24.21115,36.2899866 C25.8823061,37.3752481 28.1168241,36.9002866 29.2020855,35.2291305 C30.287347,33.5579744 29.8123855,31.3234565 28.1412294,30.238195 Z" id="Rectangle-3" transform="translate(14.892290, 25.936241) scale(1, -1) translate(-14.892290, -25.936241) "></path>
                                        <path d="M28.1412294,15.238195 L5.57343057,0.58249508 C3.90227447,-0.502766379 1.66775654,-0.0278049305 0.58249508,1.64335117 C-0.502766379,3.31450726 -0.0278049305,5.54902519 1.64335117,6.63428665 L24.21115,21.2899866 C25.8823061,22.3752481 28.1168241,21.9002866 29.2020855,20.2291305 C30.287347,18.5579744 29.8123855,16.3234565 28.1412294,15.238195 Z" id="Rectangle-3"></path>
                                    </g>
                                </g>
                            </g>
                        </g>
                    </g>
                </g>
            </g>
        </g>
    </g>
</svg>