<?xml version="1.0" encoding="UTF-8"?>
<svg width="197px" height="197px" viewBox="0 0 197 197" version="1.1" xmlns="http://www.w3.org/2000/svg" xmlns:xlink="http://www.w3.org/1999/xlink">
    <!-- Generator: Sketch 43 (38999) - http://www.bohemiancoding.com/sketch -->
    <title>code</title>
    <desc>Created with Sketch.</desc>
    <defs></defs>
    <g id="Page-1" stroke="none" stroke-width="1" fill="none" fill-rule="evenodd">
        <g id="Desktop-HD" transform="translate(-585.000000, -1074.000000)">
            <g id="experience" transform="translate(179.000000, 820.000000)">
                <g id="icons" transform="translate(54.000000, 198.000000)">
                    <g id="Group-6" transform="translate(335.000000, 56.000000)">
                        <g id="code" transform="translate(17.000000, 0.000000)">
                            <ellipse id="Oval-2" fill="#4CDCBC" cx="98.5" cy="98.5" rx="98.5" ry="98.5"></ellipse>
                            <g transform="translate(33.000000, 48.000000)" fill="#FFFFFF">
                                <g id="Group" transform="translate(109.000000, 49.400000) scale(-1, 1) translate(-109.000000, -49.400000) translate(87.000000, 23.400000)">
                                    <path d="M1.33237766,28.3124501 C1.04130801,27.6576796 0.901212146,26.9646294 0.901942011,26.277657 C0.901212146,25.5906846 1.04130801,24.8976344 1.33237766,24.2428639 C1.45897033,23.9559196 1.61276127,23.6796669 1.79278471,23.418327 C2.27832866,22.698021 2.92279985,22.1417382 3.65081741,21.7671811 L35.805281,1.67484229 C38.1694145,0.197567684 41.2827245,0.915282045 42.7515208,3.26584743 L42.7829422,3.31613221 C44.2551109,5.67209468 43.5356558,8.77728207 41.167897,10.2568219 L15.5292015,26.277657 L41.167897,42.2984921 C43.5356558,43.7780319 44.2551109,46.8832193 42.7829422,49.2391818 L42.7515208,49.2894666 C41.2827245,51.640032 38.1694145,52.3577463 35.805281,50.8804717 L3.65081741,30.7881329 C2.92279985,30.4135758 2.27832866,29.857293 1.79278471,29.136987 C1.61276127,28.8756471 1.45897033,28.5993943 1.33237766,28.31245 Z" id="Combined-Shape"></path>
                                </g>
                                <rect id="Rectangle-8" transform="translate(66.222602, 48.707514) rotate(-70.000000) translate(-66.222602, -48.707514) " x="16.172602" y="43.8075144" width="100.1" height="9.8" rx="4.9"></rect>
                                <path d="M1.33237766,51.71245 C1.04130801,51.0576796 0.901212146,50.3646294 0.901942011,49.677657 C0.901212146,48.9906846 1.04130801,48.2976344 1.33237766,47.6428639 C1.45897033,47.3559196 1.61276127,47.0796669 1.79278471,46.818327 C2.27832866,46.098021 2.92279985,45.5417382 3.65081741,45.1671811 L35.805281,25.0748423 C38.1694145,23.5975677 41.2827245,24.315282 42.7515208,26.6658474 L42.7829422,26.7161322 C44.2551109,29.0720947 43.5356558,32.1772821 41.167897,33.6568219 L15.5292015,49.677657 L41.167897,65.6984921 C43.5356558,67.1780319 44.2551109,70.2832193 42.7829422,72.6391818 L42.7515208,72.6894666 C41.2827245,75.040032 38.1694145,75.7577463 35.805281,74.2804717 L3.65081741,54.1881329 C2.92279985,53.8135758 2.27832866,53.257293 1.79278471,52.536987 C1.61276127,52.2756471 1.45897033,51.9993943 1.33237766,51.71245 Z" id="Combined-Shape"></path>
                            </g>
                        </g>
                    </g>
                </g>
            </g>
        </g>
    </g>
</svg>