<?xml version="1.0" encoding="UTF-8"?>
<svg width="199px" height="199px" viewBox="0 0 199 199" version="1.1" xmlns="http://www.w3.org/2000/svg" xmlns:xlink="http://www.w3.org/1999/xlink">
    <!-- Generator: Sketch 43 (38999) - http://www.bohemiancoding.com/sketch -->
    <title>pen</title>
    <desc>Created with Sketch.</desc>
    <defs></defs>
    <g id="Welcome" stroke="none" stroke-width="1" fill="none" fill-rule="evenodd">
        <g id="pen" transform="translate(1.000000, 1.000000)" stroke="#7FAAC8" stroke-width="2">
            <circle id="Oval-2" cx="98.5" cy="98.5" r="98.5"></circle>
            <g transform="translate(98.357125, 98.357125) rotate(-315.000000) translate(-98.357125, -98.357125) translate(69.857125, 27.357125)">
                <path d="M54.1020857,89.8134992 C53.7209934,90.2687623 52.9972253,91.3514015 51.8532655,93.3519229 C49.8849159,96.7941117 47.2931159,101.906934 43.9974797,109.022464 C40.6814868,116.181947 38.2621388,123.60907 36.5966029,130.877793 C36.0134735,133.422684 35.5660353,135.767151 35.2367212,137.8579 C35.1211668,138.591533 35.0285842,139.241661 34.9567864,139.801619 C34.9347678,139.973344 34.916964,140.118489 34.903091,140.236187 C34.8361069,140.320603 34.7490744,140.41942 34.6474654,140.517084 C34.4306328,140.725497 34.2220098,140.848137 34.0643573,140.869721 C33.7160663,140.917405 33.4477202,140.714135 33.1351305,140.130658 C32.848589,139.595802 32.6373564,130.10913 32.611874,116.804462 C32.6010836,111.170699 32.6181139,105.132009 32.6531217,99.1783713 C32.6628353,97.5264147 32.6732426,96.0069999 32.6836495,94.6546411 C32.6868421,94.2397643 32.6898347,93.8669232 32.6925688,93.5390239 C32.8575158,93.439105 33.0445278,93.3210016 33.249813,93.1848657 C34.0470253,92.6561904 34.8435323,92.0324535 35.5898686,91.313737 C37.8240617,89.1622247 39.1613558,86.6192048 39.0924025,83.7084296 C38.9391996,77.2411732 34.7542433,73.0787418 28.406564,73.2306459 C22.1864811,73.3794965 18.3243902,77.5665403 18.3243902,83.732112 C18.3243902,86.4232359 19.6438973,88.8882749 21.8092507,91.0883004 C22.5492919,91.8401912 23.3391847,92.5081122 24.1296286,93.08669 C24.3589187,93.2545225 24.5649927,93.3983174 24.7424016,93.517287 C24.7468679,93.6245038 24.751844,93.7446277 24.7573049,93.8772849 C24.7866607,94.5904035 24.8193757,95.4087328 24.85461,96.3197478 C24.9552902,98.9229278 25.055974,101.746623 25.1499435,104.690599 C25.2844756,108.905359 25.393759,113.010791 25.4688262,116.87284 C25.7242271,130.012676 25.5212559,139.0914 24.8858313,140.050648 C24.777228,140.214597 24.6693509,140.354039 24.563045,140.470166 C24.0159442,141.067813 23.5721221,141.017342 22.9502437,140.48951 C22.8258241,140.383907 22.7195732,140.277745 22.6379195,140.18732 C22.6243268,140.09635 22.6080056,139.988903 22.5889044,139.86546 C22.5142628,139.383083 22.4227973,138.824384 22.3138291,138.195699 C22.0030241,136.40253 21.6140852,134.40569 21.1415344,132.2558 C19.7909763,126.111379 18.0403005,119.965801 15.8434691,114.221932 C15.7392712,113.949494 15.6342326,113.678461 15.5283499,113.40886 C14.3934411,110.519131 13.103561,107.643436 11.6874953,104.80207 C9.74253071,100.899457 7.65922142,97.2531496 5.57527726,93.9617704 C4.84520194,92.8086902 4.16677664,91.7817661 3.5572056,90.8933992 C3.34318678,90.5814959 3.15284928,90.3089106 2.98834368,90.0771963 C2.88862011,89.9367306 2.81903848,89.8402553 2.78174948,89.7893246 C1.86756714,88.4575843 1.38599916,85.9217151 1.7535076,84.3073961 L11.4575723,41.6812841 C11.78409,40.2470213 13.2933407,39.0398618 14.7585032,39.0398618 L42.1024724,39.0398618 C43.5654681,39.0398618 45.0775086,40.249758 45.4034033,41.6812841 L55.107468,84.3073961 C55.4661498,85.8829433 55.0018739,88.3798015 54.1020857,89.8134992 Z" id="Rectangle-4"></path>
                <path d="M6.04988667,3.8697026 C5.74187623,2.61697739 6.45665087,1.70017699 7.73464555,1.70017699 L49.0579401,1.70017699 C50.3318572,1.70017699 51.0314958,2.60558662 50.7141405,3.8446897 L43.762932,30.985445 C43.3969531,32.4143971 41.8357599,33.6261752 40.3655383,33.6261752 L16.0794863,33.6261752 C14.6080332,33.6261752 13.0687451,32.4164657 12.7153434,30.9791271 L6.04988667,3.8697026 Z" id="Rectangle-5"></path>
            </g>
        </g>
    </g>
</svg>
