<svg width="281" height="281" viewBox="0 0 281 281" xmlns="http://www.w3.org/2000/svg"><title>design</title><g fill="none" fill-rule="evenodd"><circle fill="#3D9F80" cx="140.5" cy="140.5" r="140.5"/><path fill="#C9AD84" d="M90.442 56.708l134.35 134.35-33.234 33.234-134.35-134.35z"/><g fill="#6B4D1F"><path d="M97.513 63.779l2.121 2.121-14.5 14.5a1.494 1.494 0 0 1-2.117-.004 1.498 1.498 0 0 1-.003-2.118l14.499-14.5zM106.705 72.971l2.122 2.122-7.32 7.32a1.5 1.5 0 0 1-2.121-2.121l7.32-7.32zM115.898 82.164l2.121 2.121-7.32 7.32a1.5 1.5 0 0 1-2.121-2.121l7.32-7.32z"/></g><g fill="#6B4D1F"><path d="M125.09 91.356l2.121 2.121-14.499 14.5a1.494 1.494 0 0 1-2.118-.004 1.498 1.498 0 0 1-.003-2.118l14.5-14.499zM134.282 100.548l2.122 2.122-7.32 7.32a1.5 1.5 0 0 1-2.121-2.121l7.32-7.32zM143.475 109.74l2.121 2.122-7.32 7.32a1.5 1.5 0 0 1-2.121-2.121l7.32-7.32z"/></g><g fill="#6B4D1F"><path d="M152.667 118.933l2.122 2.122-14.5 14.499a1.494 1.494 0 0 1-2.117-.004 1.498 1.498 0 0 1-.004-2.117l14.5-14.5zM161.86 128.126l2.121 2.121-7.32 7.32a1.5 1.5 0 0 1-2.121-2.121l7.32-7.32zM171.052 137.318l2.121 2.121-7.32 7.32a1.5 1.5 0 0 1-2.121-2.121l7.32-7.32z"/></g><g fill="#6B4D1F"><path d="M180.244 146.51l2.122 2.122-14.5 14.5a1.494 1.494 0 0 1-2.117-.005 1.498 1.498 0 0 1-.004-2.117l14.5-14.5zM189.437 155.703l2.121 2.121-7.32 7.32a1.5 1.5 0 0 1-2.121-2.121l7.32-7.32zM198.63 164.895l2.12 2.122-7.32 7.32a1.5 1.5 0 0 1-2.121-2.121l7.32-7.32z"/></g><g fill="#6B4D1F"><path d="M207.822 174.088l2.12 2.12-14.498 14.5a1.494 1.494 0 0 1-2.118-.003 1.498 1.498 0 0 1-.004-2.118l14.5-14.5zM217.014 183.28l2.121 2.121-7.32 7.32a1.5 1.5 0 0 1-2.121-2.121l7.32-7.32z"/></g><g><path fill="#E3C79D" d="M67.263 213.635l11.305-43.654 33.458-1.11-.863 33.705z"/><path fill="#2C2C2C" d="M67.263 213.635L72.5 192l16.25 16.25z"/><path d="M171.208 77.163l32.527 32.527-92.63 92.63s-4.672-11.591-12.804-19.723c-8.132-8.132-19.724-12.803-19.724-12.803l92.631-92.631z" fill="#FFE448"/><path fill="#9B9B9B" d="M176.158 72.213l32.527 32.527-4.95 4.95-32.527-32.527z"/><path d="M186.771 61.6c5.464-5.464 14.33-5.455 19.796.01l12.721 12.721c5.47 5.47 5.466 14.34.01 19.796l-10.613 10.613-32.527-32.527L186.77 61.6z" fill="#E94E4D"/></g></g></svg>