<?xml version="1.0" encoding="UTF-8"?>
<svg width="197px" height="197px" viewBox="0 0 197 197" version="1.1" xmlns="http://www.w3.org/2000/svg" xmlns:xlink="http://www.w3.org/1999/xlink">
    <!-- Generator: Sketch 43 (38999) - http://www.bohemiancoding.com/sketch -->
    <title>pen</title>
    <desc>Created with Sketch.</desc>
    <defs></defs>
    <g id="Page-1" stroke="none" stroke-width="1" fill="none" fill-rule="evenodd">
        <g id="Desktop-HD" transform="translate(-915.000000, -1130.000000)">
            <g id="experience" transform="translate(179.000000, 820.000000)">
                <g id="icons" transform="translate(54.000000, 198.000000)">
                    <g id="Group-9" transform="translate(673.000000, 112.000000)">
                        <g id="pen" transform="translate(9.000000, 0.000000)">
                            <ellipse id="Oval-2" fill="#000000" cx="98.5" cy="98.5" rx="98.5" ry="98.5"></ellipse>
                            <g transform="translate(98.357125, 98.357125) rotate(-315.000000) translate(-98.357125, -98.357125) translate(69.857125, 27.357125)" fill="#FFFFFF">
                                <path d="M10.4825202,41.4593082 C10.9124492,39.5708001 12.8256827,38.0398618 14.7585032,38.0398618 L42.1024724,38.0398618 C44.0341035,38.0398618 45.949367,39.5744926 46.3784554,41.4593082 L56.0825202,84.0854202 C56.5124492,85.9739283 55.9585847,88.7868448 54.9073505,90.4105679 C54.9073505,90.4105679 52.4121951,93.2338643 44.904878,109.442736 C37.397561,125.651608 35.8682927,140.602894 35.8682927,140.602894 C35.8682927,140.602894 35.16888,141.727832 34.2,141.860479 C33.23112,141.993127 32.6441181,141.331723 32.2536585,140.602894 C31.2804878,138.786383 31.697561,92.954401 31.697561,92.954401 C31.697561,92.954401 38.2317073,89.6008414 38.0926829,83.732112 C37.9536585,77.8633826 34.2695122,74.090628 28.4304878,74.2303596 C22.5914634,74.3700913 19.3243902,78.2825776 19.3243902,83.732112 C19.3243902,89.1816464 25.7195122,92.954401 25.7195122,92.954401 C25.7195122,92.954401 27.6541625,137.682313 25.7195122,140.602894 C23.7848619,143.523476 21.6878049,140.602894 21.6878049,140.602894 C21.6878049,140.602894 19.8109756,127.048924 14.597561,113.774417 C9.38414634,100.49991 1.97488993,90.3800679 1.97488993,90.3800679 C0.88418834,88.7921381 0.349366985,85.9702358 0.778455444,84.0854202 L10.4825202,41.4593082 Z" id="Rectangle-4"></path>
                                <path d="M5.07880837,4.10846386 C4.6159919,2.226119 5.80707892,0.700176995 7.73464555,0.700176995 L49.0579401,0.700176995 C50.9875349,0.700176995 52.1615512,2.22381458 51.6828726,4.09279847 L44.7316642,31.2335537 C44.2517796,33.1072468 42.290115,34.6261752 40.3655383,34.6261752 L16.0794863,34.6261752 C14.1480262,34.6261752 12.2076481,33.1025376 11.7442651,31.2178883 L5.07880837,4.10846386 Z" id="Rectangle-5"></path>
                            </g>
                        </g>
                    </g>
                </g>
            </g>
        </g>
    </g>
</svg>