<?xml version="1.0" encoding="UTF-8"?>
<svg width="138px" height="138px" viewBox="0 0 138 138" version="1.1" xmlns="http://www.w3.org/2000/svg" xmlns:xlink="http://www.w3.org/1999/xlink">
    <!-- Generator: Sketch 47.1 (45422) - http://www.bohemiancoding.com/sketch -->
    <title>pen</title>
    <desc>Created with Sketch.</desc>
    <defs></defs>
    <g id="Page-1" stroke="none" stroke-width="1" fill="none" fill-rule="evenodd">
        <g id="Desktop-HD" transform="translate(-1021.000000, -1318.000000)">
            <g id="experience" transform="translate(98.000000, 1144.000000)">
                <g id="Group-7" transform="translate(0.000000, 91.000000)">
                    <g id="Group-4" transform="translate(71.000000, 83.000000)">
                        <g id="Group" transform="translate(843.000000, 0.000000)">
                            <g id="pen" transform="translate(9.000000, 0.000000)">
                                <circle id="Oval-2" fill="#EFF0F4" cx="69" cy="69" r="69"></circle>
                                <g transform="translate(69.143921, 69.143921) rotate(-315.000000) translate(-69.143921, -69.143921) translate(49.143921, 19.643921)" fill="#1B1B1B">
                                    <path d="M9.84332953,26 L29.9882168,26 L29.9882168,26 C31.1317854,26 32.12325,26.7911201 32.3770946,27.9061591 L39.5827348,59.557682 L39.5827488,59.5576788 C39.7366163,60.2335578 39.59698,60.9429845 39.1984474,61.5101348 C37.1984273,64.3563561 34.6176812,69.1923968 31.456209,76.018257 C27.9502538,83.5878823 25.8401882,90.8638584 25.1260121,97.8461852 C24.7993829,98.3715367 24.4098323,98.6651859 23.9573604,98.727133 C23.2786526,98.8200535 22.8674533,98.3567349 22.5939334,97.8461852 C22.1394577,96.9978651 22.0096075,85.871821 22.2043828,64.4680528 C25.2558623,62.9019235 26.7491395,60.7484956 26.6842144,58.0077692 C26.5868268,53.8966795 24.0060542,51.2538362 19.9157732,51.3517193 C15.8254921,51.4496024 13.5368825,54.1903288 13.5368825,58.0077692 C13.5368825,60.5527294 15.0301597,62.7061573 18.0167141,64.4680528 C18.9202056,85.3562146 18.9202056,96.4822588 18.0167141,97.8461852 C17.1132226,99.2101116 16.1718087,99.2101116 15.1924725,97.8461852 C14.3159837,91.5164123 12.6603937,85.2518948 10.2257026,79.0526327 C7.90920566,73.154319 4.71109244,67.3150787 0.631362968,61.5349119 L0.631363701,61.5349113 C0.230623663,60.9671423 0.0898587222,60.2558987 0.244120678,59.578287 L7.45445175,27.9061591 L7.45445175,27.9061591 C7.7082964,26.7911201 8.69976096,26 9.84332953,26 Z" id="Rectangle-4"></path>
                                    <path d="M6.61087136,1.42108547e-14 L34.1711565,1.42108547e-14 L34.1711565,1.46549439e-14 C35.5242542,1.44063839e-14 36.6211565,1.09690236 36.6211565,2.45 C36.6211565,2.65502937 36.59542,2.85924792 36.5445504,3.05786648 L31.7127959,21.9232865 L31.7127959,21.9232865 C31.4351678,23.0072759 30.4583794,23.7654201 29.339402,23.7654201 L11.2493557,23.7654201 L11.2493557,23.7654201 C10.1215769,23.7654201 9.13948375,22.9955466 8.87021387,21.9003852 L4.23172953,3.03496509 L4.23172953,3.03496509 C3.90866223,1.72100134 4.71194252,0.393925468 6.02590627,0.0708581703 C6.21733391,0.0237914144 6.41374241,1.38029775e-14 6.61087136,1.37667655e-14 Z" id="Rectangle-5"></path>
                                </g>
                            </g>
                        </g>
                    </g>
                </g>
            </g>
        </g>
    </g>
</svg>