<?xml version="1.0" encoding="UTF-8"?>
<svg width="46px" height="46px" viewBox="0 0 46 46" version="1.1" xmlns="http://www.w3.org/2000/svg" xmlns:xlink="http://www.w3.org/1999/xlink">
    <title>globe</title>
    <g id="globe" stroke="none" stroke-width="1" fill="none" fill-rule="evenodd">
        <path d="M22.78125,45.5625 C25.90625,45.5625 28.84375,44.9648438 31.59375,43.7695312 C34.34375,42.5742188 36.765625,40.9296875 38.859375,38.8359375 C40.953125,36.7421875 42.59375,34.3242188 43.78125,31.5820312 C44.96875,28.8398438 45.5625,25.90625 45.5625,22.78125 C45.5625,19.65625 44.96875,16.7226562 43.78125,13.9804688 C42.59375,11.2382812 40.9492188,8.81640625 38.8476562,6.71484375 C36.7460938,4.61328125 34.3203125,2.96875 31.5703125,1.78125 C28.8203125,0.59375 25.8828125,0 22.7578125,0 C19.6640625,0 16.7421875,0.59375 13.9921875,1.78125 C11.2421875,2.96875 8.81640625,4.61328125 6.71484375,6.71484375 C4.61328125,8.81640625 2.96875,11.2382812 1.78125,13.9804688 C0.59375,16.7226562 0,19.65625 0,22.78125 C0,25.90625 0.59765625,28.8398438 1.79296875,31.5820312 C2.98828125,34.3242188 4.6328125,36.7421875 6.7265625,38.8359375 C8.8203125,40.9296875 11.2421875,42.5742188 13.9921875,43.7695312 C16.7421875,44.9648438 19.671875,45.5625 22.78125,45.5625 Z M13.4987813,10.6020625 C13.1740729,10.4958264 12.8580729,10.3836806 12.5507812,10.265625 C11.4752604,9.85243056 10.5202546,9.37307099 9.68576389,8.8275463 L9.46978125,8.6820625 L9.8034375,8.37239583 C11.4230208,6.90538194 13.2450521,5.73177083 15.2695312,4.8515625 C15.8924479,4.58072917 16.5267535,4.34600694 17.1724479,4.14739583 L17.3927812,4.0840625 L17.2734375,4.20248724 C16.3694196,5.13520408 15.5491071,6.28515625 14.8125,7.65234375 C14.3365385,8.53575721 13.9088388,9.49073132 13.5294009,10.5172661 L13.4987813,10.6020625 Z M32.0867813,10.6060625 L32.0556352,10.5172661 C31.6725915,9.49073132 31.2412861,8.53575721 30.7617187,7.65234375 C30.0195312,6.28515625 29.1956314,5.13520408 28.2900191,4.20248724 L28.1787812,4.0920625 L28.37125,4.14739583 C29.0195833,4.34600694 29.65625,4.58072917 30.28125,4.8515625 C32.3125,5.73177083 34.1383681,6.90538194 35.7588542,8.37239583 L36.0937812,8.6850625 L35.8865741,8.8275463 C35.0628858,9.37307099 34.1163194,9.85243056 33.046875,10.265625 C32.7413194,10.3836806 32.4270833,10.4951775 32.1041667,10.6001157 L32.0867813,10.6060625 Z M24.3037813,11.8330625 L24.3037813,4.7420625 L24.48125,4.82625 C24.9625,5.07125 25.4309896,5.4234375 25.8867188,5.8828125 C26.8632812,6.8671875 27.734375,8.21484375 28.5,9.92578125 C28.6392045,10.2368608 28.7731147,10.5562048 28.9017304,10.8838133 L29.0767813,11.3470625 L28.9635417,11.3674769 C28.7760417,11.4002701 28.5863715,11.4314236 28.3945312,11.4609375 C27.2434896,11.6380208 26.0282118,11.7560764 24.7486979,11.8151042 L24.3037813,11.8330625 Z M21.2807813,11.8340625 L20.5905762,11.8033447 C19.4064941,11.7410889 18.2773438,11.6269531 17.203125,11.4609375 L16.6364294,11.3674769 L16.6364294,11.3674769 L16.4877813,11.3400625 L16.6607696,10.8838133 C16.7893853,10.5562048 16.9232955,10.2368608 17.0625,9.92578125 C17.828125,8.21484375 18.7070312,6.8671875 19.6992188,5.8828125 C20.1622396,5.4234375 20.6329167,5.07125 21.11125,4.82625 L21.2807813,4.7450625 L21.2807813,11.8340625 Z M11.5567813,21.2820625 L3.40678125,21.2820625 L3.41203125,21.20625 C3.57328125,19.13125 4.05703125,17.15625 4.86328125,15.28125 C5.53515625,13.71875 6.38237847,12.2777778 7.40494792,10.9583333 L7.47078125,10.8760625 L7.53369141,10.9233398 C8.42138672,11.5825195 9.48046875,12.1757813 10.7109375,12.703125 C11.203125,12.9140625 11.7142969,13.1102344 12.2444531,13.2916406 L12.6337813,13.4210625 L12.5358728,13.8115523 C12.4887204,14.006495 12.4429087,14.2034255 12.3984375,14.4023438 C11.9648438,16.3417969 11.6938477,18.4064941 11.5854492,20.5964355 L11.5567813,21.2820625 Z M42.1777813,21.2820625 L34.0507812,21.2820625 L34.0231934,20.5964355 C33.9133301,18.4064941 33.6386719,16.3417969 33.1992188,14.4023438 L33.0599806,13.8115523 L33.0599806,13.8115523 L32.9587813,13.4180625 L33.3414844,13.2916406 C33.8716406,13.1102344 34.3828125,12.9140625 34.875,12.703125 C36.1054688,12.1757813 37.1601562,11.5825195 38.0390625,10.9233398 L38.0957813,10.8800625 L38.1588542,10.9583333 C39.1831597,12.2777778 40.0338542,13.71875 40.7109375,15.28125 C41.5234375,17.15625 42.0109375,19.13125 42.1734375,21.20625 L42.1777813,21.2820625 Z M21.2807812,21.2820625 L14.6087812,21.2820625 L14.6382422,20.6410547 C14.7317578,18.9670703 14.934375,17.35625 15.2460937,15.8085937 C15.3270597,15.4066051 15.41332,15.0128809 15.5048747,14.6274212 L15.6117812,14.1940625 L15.6532031,14.2028906 C15.8552344,14.2436719 16.059375,14.2828125 16.265625,14.3203125 C17.8697917,14.6119792 19.5401235,14.7902199 21.2766204,14.8550347 L21.2807812,14.8550625 L21.2807812,21.2820625 Z M30.9527813,21.2820625 L24.3037813,21.2820625 L24.3037813,14.8550625 L25.0390625,14.8203125 C26.5182292,14.7369792 27.9453125,14.5703125 29.3203125,14.3203125 L29.9327344,14.2028906 L29.9327344,14.2028906 L29.9507812,14.1990625 L30.0576253,14.6274212 C30.14918,15.0128809 30.2354403,15.4066051 30.3164062,15.8085937 C30.628125,17.35625 30.8307422,18.9670703 30.9242578,20.6410547 L30.9527813,21.2820625 Z M7.50878125,34.7520625 L7.40494792,34.6210938 C6.38237847,33.3033854 5.53515625,31.8606771 4.86328125,30.2929688 C4.05703125,28.4117188 3.57328125,26.4329688 3.41203125,24.3567188 L3.40678125,24.2820625 L11.5537813,24.2820625 L11.5553385,24.3245443 C11.6356337,26.7865668 11.9166667,29.0885417 12.3984375,31.2304688 L12.5358728,31.8177931 L12.5358728,31.8177931 L12.6447813,32.2510625 L12.2444531,32.38125 C11.7142969,32.5617187 11.203125,32.75625 10.7109375,32.9648438 C9.48046875,33.4863281 8.42138672,34.0759277 7.53369141,34.7336426 L7.50878125,34.7520625 Z M15.6317812,31.4730625 L15.5048747,30.9585163 C15.41332,30.5730566 15.3270597,30.1793324 15.2460937,29.7773437 C14.8997396,28.0577257 14.6880787,26.2743056 14.6111111,24.4270833 L14.6057812,24.2820625 L21.2807812,24.2820625 L21.2807812,30.8020625 C19.5415104,30.8680486 17.8697917,31.0499132 16.265625,31.3476562 L15.6532031,31.4671875 L15.6532031,31.4671875 L15.6317812,31.4730625 Z M29.3203125,31.3476562 C27.9453125,31.0924479 26.5182292,30.922309 25.0390625,30.8372396 L24.3037813,30.8020625 L24.3037813,24.2820625 L30.9557813,24.2820625 L30.9513889,24.4270833 C30.8744213,26.2743056 30.6627604,28.0577257 30.3164062,29.7773437 C30.2354403,30.1793324 30.14918,30.5730566 30.0576253,30.9585163 L29.9317813,31.4680625 L29.3203125,31.3476562 L29.3203125,31.3476562 Z M38.0607812,34.7510625 L38.0390625,34.7336426 C37.1601562,34.0759277 36.1054688,33.4863281 34.875,32.9648438 C34.3828125,32.75625 33.8716406,32.5617187 33.3414844,32.38125 L32.9347813,32.2490625 L33.0465976,31.8177931 C33.0948595,31.6239599 33.1418269,31.4281851 33.1875,31.2304687 C33.6442308,29.2533053 33.9252959,27.1397698 34.0306953,24.8898622 L34.0537813,24.2820625 L42.1777813,24.2820625 L42.1734375,24.3567187 C42.0109375,26.4329687 41.5234375,28.4117187 40.7109375,30.2929687 C40.0338542,31.8606771 39.1848958,33.3033854 38.1640625,34.6210938 L38.0607812,34.7510625 Z M21.2807813,40.8420625 L21.11125,40.7596875 C20.6329167,40.5146875 20.1622396,40.1625 19.6992188,39.703125 C18.7070312,38.71875 17.828125,37.3710938 17.0625,35.6601562 C16.9232955,35.3490767 16.7893853,35.0297327 16.6607696,34.7021242 L16.5167813,34.3230625 L16.6223958,34.3028067 C16.8098958,34.2693383 16.999566,34.2374132 17.1914062,34.2070312 C18.2705078,34.0361328 19.4030151,33.9186401 20.5889282,33.8545532 L21.2807813,33.8240625 L21.2807813,40.8420625 Z M24.3037813,40.8450625 L24.3037813,33.8260625 L24.7486979,33.8424479 C26.0282118,33.9032118 27.2434896,34.0247396 28.3945312,34.2070312 L28.9635417,34.3028067 L28.9635417,34.3028067 L29.0467813,34.3190625 L28.9017304,34.7021242 C28.7731147,35.0297327 28.6392045,35.3490767 28.5,35.6601562 C27.734375,37.3710937 26.8632812,38.71875 25.8867188,39.703125 C25.4309896,40.1625 24.9625,40.5146875 24.48125,40.7596875 L24.3037813,40.8450625 Z M28.2297813,41.4590625 L28.2890625,41.4009088 C29.1930804,40.4721779 30.0133929,39.3242188 30.75,37.9570312 C31.2259615,37.0736178 31.6553254,36.1203079 32.0380917,35.0971015 L32.0527813,35.0560625 L32.1041667,35.0719039 C32.4270833,35.1758777 32.7413194,35.2860243 33.046875,35.4023438 C34.1163194,35.8094618 35.0628858,36.2898341 35.8865741,36.8434606 L36.0397813,36.9520625 L35.7732813,37.1989063 C34.1577604,38.6600521 32.3309896,39.8307292 30.2929688,40.7109375 C29.6658854,40.9817708 29.0279688,41.2164931 28.3792188,41.4151042 L28.2297813,41.4590625 Z M17.3377812,41.4590625 L17.1895833,41.4151042 C16.5423611,41.2164931 15.90625,40.9817708 15.28125,40.7109375 C13.2723214,39.8404018 11.4642857,38.6857462 9.85714286,37.2469707 L9.53278125,36.9490625 L9.68518519,36.8434606 C10.5183256,36.2898341 11.4696181,35.8094618 12.5390625,35.4023438 C12.8446181,35.2860243 13.1588542,35.1758777 13.4817708,35.0719039 L13.5157812,35.0610625 L13.5294009,35.0971015 C13.9088388,36.1203079 14.3365385,37.0736178 14.8125,37.9570313 C15.5491071,39.3242188 16.3714126,40.4721779 17.2794165,41.4009088 L17.3377812,41.4590625 Z" fill="#000000" fill-rule="nonzero"></path>
   </g>
</svg>