<?xml version="1.0" encoding="UTF-8"?>
<svg width="46px" height="46px" viewBox="0 0 46 46" version="1.1" xmlns="http://www.w3.org/2000/svg" xmlns:xlink="http://www.w3.org/1999/xlink">
    <title>safari</title>
    <g id="safari" stroke="none" stroke-width="1" fill="none" fill-rule="evenodd">
        <path d="M23,43.5693359 C25.8164062,43.5693359 28.465332,43.0327148 30.9467773,41.9594727 C33.4282227,40.8862305 35.6123047,39.402832 37.4990234,37.5092773 C39.3857422,35.6157227 40.8691406,33.4282227 41.9492188,30.9467773 C43.0292969,28.465332 43.5693359,25.8164062 43.5693359,23 C43.5693359,20.1835938 43.0292969,17.534668 41.9492188,15.0532227 C40.8691406,12.5717773 39.3857422,10.3842773 37.4990234,8.49072266 C35.6123047,6.59716797 33.4248047,5.11376953 30.9365234,4.04052734 C28.4482422,2.96728516 25.7958984,2.43066406 22.9794922,2.43066406 C20.1630859,2.43066406 17.5141602,2.96728516 15.0327148,4.04052734 C12.5512695,5.11376953 10.3671875,6.59716797 8.48046875,8.49072266 C6.59375,10.3842773 5.11376953,12.5717773 4.04052734,15.0532227 C2.96728516,17.534668 2.43066406,20.1835938 2.43066406,23 C2.43066406,25.8164062 2.96728516,28.465332 4.04052734,30.9467773 C5.11376953,33.4282227 6.59716797,35.6157227 8.49072266,37.5092773 C10.3842773,39.402832 12.5717773,40.8862305 15.0532227,41.9594727 C17.534668,43.0327148 20.1835938,43.5693359 23,43.5693359 Z M23,40.9238281 C20.5117188,40.9238281 18.1875,40.4589844 16.0273438,39.5292969 C13.8671875,38.5996094 11.9667969,37.3144531 10.3261719,35.6738281 C8.68554688,34.0332031 7.40380859,32.1293945 6.48095703,29.9624023 C5.55810547,27.7954102 5.09667969,25.4746094 5.09667969,23 C5.09667969,20.5253906 5.55810547,18.2045898 6.48095703,16.0375977 C7.40380859,13.8706055 8.68212891,11.9633789 10.315918,10.315918 C11.949707,8.66845703 13.8500977,7.38330078 16.0170898,6.46044922 C18.184082,5.53759766 20.5048828,5.07617188 22.9794922,5.07617188 C25.4677734,5.07617188 27.7919922,5.53759766 29.9521484,6.46044922 C32.1123047,7.38330078 34.0161133,8.66845703 35.6635742,10.315918 C37.3110352,11.9633789 38.5996094,13.8706055 39.5292969,16.0375977 C40.4589844,18.2045898 40.9238281,20.5253906 40.9238281,23 C40.9238281,25.4746094 40.4624023,27.7954102 39.5395508,29.9624023 C38.6166992,32.1293945 37.3349609,34.0332031 35.6943359,35.6738281 C34.0537109,37.3144531 32.1464844,38.5996094 29.9726562,39.5292969 C27.7988281,40.4589844 25.4746094,40.9238281 23,40.9238281 Z M14.0585938,33.4384766 L26.0966797,27.4091797 C26.6708984,27.1220703 27.1083984,26.6845703 27.4091797,26.0966797 L33.4179688,14.0791016 C33.7050781,13.4638672 33.6845703,12.9819336 33.3564453,12.6333008 C33.0283203,12.284668 32.5429688,12.2675781 31.9003906,12.5820312 L19.8828125,18.5908203 C19.3359375,18.8642578 18.9052734,19.3017578 18.5908203,19.9033203 L12.5615234,31.9414062 C12.3701172,32.3378906 12.3222656,32.6865234 12.4179688,32.9873047 C12.5136719,33.2880859 12.7084961,33.4897461 13.0024414,33.5922852 C13.2963867,33.6948242 13.6484375,33.6435547 14.0585938,33.4384766 Z M23,25.5429688 C22.3027344,25.5429688 21.7080078,25.296875 21.2158203,24.8046875 C20.7236328,24.3125 20.4775391,23.7177734 20.4775391,23.0205078 C20.4775391,22.3232422 20.7236328,21.7319336 21.2158203,21.246582 C21.7080078,20.7612305 22.3027344,20.5185547 23,20.5185547 C23.6835938,20.5185547 24.2714844,20.7612305 24.7636719,21.246582 C25.2558594,21.7319336 25.5019531,22.3232422 25.5019531,23.0205078 C25.5019531,23.7177734 25.2558594,24.3125 24.7636719,24.8046875 C24.2714844,25.296875 23.6835938,25.5429688 23,25.5429688 Z" fill="#FFFFFF" fill-rule="nonzero"></path>
   </g>
</svg>