<?xml version="1.0" encoding="UTF-8"?>
<svg width="46px" height="46px" viewBox="0 0 46 46" version="1.1" xmlns="http://www.w3.org/2000/svg" xmlns:xlink="http://www.w3.org/1999/xlink">
    <title>secure</title>
    <g id="secure" stroke="none" stroke-width="1" fill="none" fill-rule="evenodd">
        <path d="M32.5947266,42.6142578 C35.1992188,42.6142578 36.4912109,41.3427734 36.4912109,38.4921875 L36.4912109,23.234375 C36.4912109,20.5478516 35.3427734,19.2558594 33.0253906,19.1123047 L33.0253906,14.1494141 C33.0253906,6.93066406 28.3291016,2.99316406 22.7714844,2.99316406 C17.2138672,2.99316406 12.5175781,6.93066406 12.5175781,14.1494141 L12.5175781,19.1533203 C10.3232422,19.3789062 9.05175781,20.6708984 9.05175781,23.234375 L9.05175781,38.4921875 C9.05175781,41.3427734 10.34375,42.6142578 12.96875,42.6142578 L32.5947266,42.6142578 Z M15.0605469,19.1328125 L15.0605469,13.9033203 C15.0605469,8.55078125 18.4443359,5.39257812 22.7714844,5.39257812 C27.0986328,5.39257812 30.5029297,8.55078125 30.5029297,13.9033203 L30.5029297,19.1123047 L15.0605469,19.1328125 Z" fill="#FFFFFF" fill-rule="nonzero"></path>
   </g>
</svg>