<?xml version="1.0" encoding="UTF-8"?>
<svg width="46px" height="46px" viewBox="0 0 46 46" version="1.1" xmlns="http://www.w3.org/2000/svg" xmlns:xlink="http://www.w3.org/1999/xlink">
    <title>text</title>
    <g id="text" stroke="none" stroke-width="1" fill="none" fill-rule="evenodd">
        <path d="M40.9581445,43.9882812 C41.7100977,43.9882812 42.0860742,43.6669922 42.0860742,43.0244141 C42.0860742,42.3955078 41.7100977,42.0810547 40.9581445,42.0810547 L36.0567773,42.0810547 L36.0567773,3.95703125 L40.9581445,3.95703125 C41.7100977,3.95703125 42.0860742,3.64257812 42.0860742,3.01367188 C42.0860742,2.38476562 41.7100977,2.0703125 40.9581445,2.0703125 L28.9610742,2.0703125 C28.222793,2.0703125 27.8536523,2.38476562 27.8536523,3.01367188 C27.8536523,3.64257812 28.222793,3.95703125 28.9610742,3.95703125 L33.8829492,3.95703125 L33.8829492,42.0810547 L28.9610742,42.0810547 C28.222793,42.0810547 27.8536523,42.3955078 27.8536523,43.0244141 C27.8536523,43.6669922 28.222793,43.9882812 28.9610742,43.9882812 L40.9581445,43.9882812 Z M14.9747461,38.3076172 C15.4122461,38.3076172 15.7677148,38.1743164 16.0411523,37.9077148 C16.3145898,37.6411133 16.4513086,37.2753906 16.4513086,36.8105469 L16.4513086,11.1552734 L25.5157617,11.1552734 C25.9122461,11.1552734 26.2403711,11.0356445 26.5001367,10.7963867 C26.7599023,10.5571289 26.8897852,10.2324219 26.8897852,9.82226562 C26.8897852,9.41210938 26.7599023,9.08740234 26.5001367,8.84814453 C26.2403711,8.60888672 25.9122461,8.48925781 25.5157617,8.48925781 L4.43373047,8.48925781 C4.02357422,8.48925781 3.69203125,8.60888672 3.43910156,8.84814453 C3.18617187,9.08740234 3.05970703,9.41210938 3.05970703,9.82226562 C3.05970703,10.2324219 3.18617187,10.5571289 3.43910156,10.7963867 C3.69203125,11.0356445 4.02357422,11.1552734 4.43373047,11.1552734 L13.4981836,11.1552734 L13.4981836,36.8105469 C13.4981836,37.2753906 13.6280664,37.6411133 13.887832,37.9077148 C14.1475977,38.1743164 14.5099023,38.3076172 14.9747461,38.3076172 Z" fill="#FFFFFF" fill-rule="nonzero"></path>
   </g>
</svg>